<svg width="24" height="24" viewBox="0 0 24 24" fill="none" xmlns="http://www.w3.org/2000/svg">
<path d="M16.3664 6.41479C14.4764 6.41479 13.6776 7.31667 12.3614 7.31667C11.0118 7.31667 9.98245 6.42136 8.34464 6.42136C6.74151 6.42136 5.03198 7.40011 3.94636 9.06745C2.42198 11.4187 2.68073 15.847 5.14964 19.6195C6.03276 20.97 7.21214 22.4845 8.75901 22.5009H8.78714C10.1315 22.5009 10.5309 21.6206 12.381 21.6103H12.4092C14.2317 21.6103 14.5973 22.4957 15.936 22.4957H15.9642C17.511 22.4793 18.7537 20.8012 19.6368 19.4559C20.2725 18.4884 20.5087 18.0028 20.9962 16.9082C17.4248 15.5526 16.851 10.4896 20.3831 8.54855C19.305 7.19855 17.79 6.41667 16.3617 6.41667L16.3664 6.41479Z" fill="currentColor"/>
<path d="M15.9481 1.5C14.8231 1.57641 13.5106 2.29266 12.7419 3.22781C12.0444 4.07531 11.4706 5.3325 11.6956 6.55172H11.7856C12.9837 6.55172 14.21 5.83031 14.9262 4.90594C15.6162 4.02609 16.1394 2.77922 15.9481 1.5Z" fill="currentColor"/>
</svg>
