<svg width="17" height="17" viewBox="0 0 17 17" fill="none" xmlns="http://www.w3.org/2000/svg">
<path d="M9 11.9988C8.82984 11.998 8.662 11.9592 8.50867 11.8855C8.35534 11.8117 8.22035 11.7047 8.11351 11.5722L5.30739 8.17291C5.14341 7.96826 5.04023 7.72167 5.00959 7.46123C4.97895 7.20079 5.02209 6.93698 5.13409 6.69986C5.22492 6.49379 5.37315 6.31821 5.56108 6.19411C5.74901 6.07001 5.96869 6.00262 6.19388 6L11.8061 6C12.0313 6.00262 12.251 6.07001 12.4389 6.19411C12.6268 6.31821 12.7751 6.49379 12.8659 6.69986C12.9779 6.93698 13.0211 7.20079 12.9904 7.46123C12.9598 7.72167 12.8566 7.96826 12.6926 8.17291L9.88649 11.5722C9.77965 11.7047 9.64466 11.8117 9.49133 11.8855C9.338 11.9592 9.17016 11.998 9 11.9988Z" fill="currentColor"/>
</svg>
