<svg xmlns="http://www.w3.org/2000/svg" viewBox="0 0 41 66.11"><defs><style>.cls-1{fill:#c63c36;}</style></defs><g id="Layer_2" data-name="Layer 2"><g id="Layer_1-2" data-name="Layer 1"><path class="cls-1" d="M23.08,1.62c0,2.72-.13,5.44,0,8.14.25,4.12,2.45,7.36,5.06,10.38s5.27,5.84,7.52,9A27.22,27.22,0,0,1,41,46.23c-.36,8.18-3.86,14.6-11.34,18.46A19.73,19.73,0,0,1,25.86,66c-1.34.36-2.13-.46-1.85-1.81a28,28,0,0,0,.51-11.57A19,19,0,0,0,21,45.37c-1.67-2.27-3.42-4.49-5.26-6.63C11.89,34.28,9,29.34,8,23.46,6.55,14.7,10,6.09,17.35,1.82a22.82,22.82,0,0,1,4-1.7C22.49-.29,23.24.38,23.08,1.62Z"/><path class="cls-1" d="M7.07,39a7.85,7.85,0,0,0,2,5.7A52.49,52.49,0,0,1,13,49.45c2.3,3.47,3.09,7.26,1.56,11.28a8.64,8.64,0,0,1-4.64,4.89c-1.31.59-2.41-.21-2.12-1.58.7-3.3-.43-6-2.44-8.5a33.24,33.24,0,0,1-4.07-5.79c-1.87-3.78-1.74-7.61,1-11a10,10,0,0,1,2.44-2C6,35.88,7.05,36.52,7.07,38,7.08,38.35,7.07,38.66,7.07,39Z"/></g></g></svg>