<svg width="24" height="24" viewBox="0 0 24 24" fill="none" xmlns="http://www.w3.org/2000/svg">
<path d="M2.00098 10.999H22.001V19.999C22.001 20.2642 21.8956 20.5186 21.7081 20.7061C21.5205 20.8937 21.2662 20.999 21.001 20.999H3.00098C2.73576 20.999 2.48141 20.8937 2.29387 20.7061C2.10633 20.5186 2.00098 20.2642 2.00098 19.999V10.999ZM17.001 2.99902H21.001C21.2662 2.99902 21.5205 3.10438 21.7081 3.29192C21.8956 3.47945 22.001 3.73381 22.001 3.99902V8.99902H2.00098V3.99902C2.00098 3.73381 2.10633 3.47945 2.29387 3.29192C2.48141 3.10438 2.73576 2.99902 3.00098 2.99902H7.00098V0.999023H9.00098V2.99902H15.001V0.999023H17.001V2.99902Z" fill="currentColor"/>
</svg>
