<svg width="24" height="24" viewBox="0 0 24 24" fill="none" xmlns="http://www.w3.org/2000/svg">
<path d="M17.998 7.00098C17.998 6.47054 17.7873 5.96184 17.4123 5.58676C17.0372 5.21169 16.5285 5.00098 15.998 5.00098H3.99805C3.46761 5.00098 2.95891 5.21169 2.58383 5.58676C2.20876 5.96184 1.99805 6.47054 1.99805 7.00098V17.001C1.99805 17.5314 2.20876 18.0401 2.58383 18.4152C2.95891 18.7903 3.46761 19.001 3.99805 19.001H15.998C16.5285 19.001 17.0372 18.7903 17.4123 18.4152C17.7873 18.0401 17.998 17.5314 17.998 17.001V13.668L21.998 17.001V7.00098L17.998 10.334V7.00098ZM13.998 13.001H10.998V16.001H8.99805V13.001H5.99805V11.001H8.99805V8.00098H10.998V11.001H13.998V13.001Z" fill="currentColor"/>
</svg>
