<svg width="24" height="24" viewBox="0 0 24 24" fill="none" xmlns="http://www.w3.org/2000/svg">
<path d="M11.8889 3C10.1308 3 8.41226 3.52132 6.95049 4.49805C5.48872 5.47477 4.34941 6.86303 3.67663 8.48726C3.00385 10.1115 2.82782 11.8987 3.1708 13.623C3.51378 15.3473 4.36037 16.9312 5.6035 18.1743C6.84663 19.4174 8.43048 20.264 10.1548 20.607C11.879 20.95 13.6663 20.7739 15.2905 20.1012C16.9148 19.4284 18.303 18.2891 19.2797 16.8273C20.2565 15.3655 20.7778 13.6469 20.7778 11.8889C20.7778 9.53141 19.8413 7.27049 18.1743 5.6035C16.5073 3.93651 14.2464 3 11.8889 3V3ZM17.6944 8.90556L10.3944 16.2L6.08334 11.8889C5.936 11.7415 5.85322 11.5417 5.85322 11.3333C5.85322 11.125 5.936 10.9251 6.08334 10.7778C6.23068 10.6304 6.43052 10.5477 6.63889 10.5477C6.84727 10.5477 7.04711 10.6304 7.19445 10.7778L10.4056 13.9889L16.5944 7.80556C16.7418 7.65821 16.9416 7.57544 17.15 7.57544C17.3584 7.57544 17.5582 7.65821 17.7056 7.80556C17.8529 7.9529 17.9357 8.15274 17.9357 8.36111C17.9357 8.56948 17.8529 8.76932 17.7056 8.91667L17.6944 8.90556Z" fill="currentColor"/>
</svg>
