<svg width="25" height="24" viewBox="0 0 25 24" fill="none" xmlns="http://www.w3.org/2000/svg">
<path d="M17.17 13.1299C18.54 14.0599 19.5 15.3199 19.5 16.9999V19.9999H23.5V16.9999C23.5 14.8199 19.93 13.5299 17.17 13.1299Z" fill="#808191"/>
<path d="M15.5 12C17.71 12 19.5 10.21 19.5 8C19.5 5.79 17.71 4 15.5 4C15.03 4 14.59 4.1 14.17 4.24C15 5.27 15.5 6.58 15.5 8C15.5 9.42 15 10.73 14.17 11.76C14.59 11.9 15.03 12 15.5 12Z" fill="#808191"/>
<path d="M9.5 12C11.71 12 13.5 10.21 13.5 8C13.5 5.79 11.71 4 9.5 4C7.29 4 5.5 5.79 5.5 8C5.5 10.21 7.29 12 9.5 12ZM9.5 6C10.6 6 11.5 6.9 11.5 8C11.5 9.1 10.6 10 9.5 10C8.4 10 7.5 9.1 7.5 8C7.5 6.9 8.4 6 9.5 6Z" fill="#808191"/>
<path d="M9.5 13C6.83 13 1.5 14.34 1.5 17V20H17.5V17C17.5 14.34 12.17 13 9.5 13ZM15.5 18H3.5V17.01C3.7 16.29 6.8 15 9.5 15C12.2 15 15.3 16.29 15.5 17V18Z" fill="#808191"/>
</svg>
