<svg width="24" height="24" viewBox="0 0 24 24" fill="none" xmlns="http://www.w3.org/2000/svg">
<path d="M17.4545 9.14286V6.85714H15.2727V2.10286C13.9309 1.48571 12.4582 1.14286 10.8982 1.14286C4.87636 1.14286 0 6.26286 0 12.5714C0 18.88 4.87636 24 10.8982 24C16.9309 24 21.8182 18.88 21.8182 12.5714C21.8182 11.3714 21.6327 10.2286 21.3055 9.14286H17.4545ZM14.7273 8C15.6327 8 16.3636 8.76571 16.3636 9.71429C16.3636 10.6629 15.6327 11.4286 14.7273 11.4286C13.8218 11.4286 13.0909 10.6629 13.0909 9.71429C13.0909 8.76571 13.8218 8 14.7273 8ZM7.09091 8C7.99636 8 8.72727 8.76571 8.72727 9.71429C8.72727 10.6629 7.99636 11.4286 7.09091 11.4286C6.18545 11.4286 5.45455 10.6629 5.45455 9.71429C5.45455 8.76571 6.18545 8 7.09091 8ZM10.9091 18.8571C8.36727 18.8571 6.20727 17.1886 5.33455 14.8571H16.4836C15.6109 17.1886 13.4509 18.8571 10.9091 18.8571ZM21.8182 2.28571H24V4.57143H21.8182V6.85714H19.6364V4.57143H17.4545V2.28571H19.6364V0H21.8182V2.28571Z" fill="currentColor"/>
</svg>
