<svg xmlns="http://www.w3.org/2000/svg" viewBox="0 0 76.13 39.82"><defs><style>.cls-1{fill:#27aa4f;}</style></defs><g id="Layer_2" data-name="Layer 2"><g id="Layer_1-2" data-name="Layer 1"><path class="cls-1" d="M75.74,19.11,75.65,19v.1s0,.06,0,0c-.5-.56-1-1.19-1.54-1.75A65.72,65.72,0,0,0,55.58,4.22,40.56,40.56,0,0,0,36.56,0a39.68,39.68,0,0,0-11.89,2.4,58.3,58.3,0,0,0-14.32,7.68,68.59,68.59,0,0,0-9.1,7.83,6.42,6.42,0,0,0-.55.62,8.19,8.19,0,0,0-.45.75,1.27,1.27,0,0,1-.25.78v.26a1.1,1.1,0,0,1,.26.35c.49.57,1,1.18,1.53,1.73A65.56,65.56,0,0,0,20.31,35.61a40.68,40.68,0,0,0,19,4.19,39.82,39.82,0,0,0,11.9-2.41,58.32,58.32,0,0,0,14.32-7.68,66.45,66.45,0,0,0,9.09-7.83,6.31,6.31,0,0,0,.55-.61,8.83,8.83,0,0,0,.47-.78v.1a1,1,0,0,1,.47-.6v-.22A1.1,1.1,0,0,1,75.74,19.11ZM38,35.37A15.46,15.46,0,1,1,53.4,19.9,15.51,15.51,0,0,1,38,35.37Z"/><path class="cls-1" d="M42.86,10.11C40.2,12.5,39.3,15.34,41,18.54s4.36,4,7.72,3.3c.28,2.83-3.4,7.25-7.07,8.51A11.05,11.05,0,0,1,30.07,12.17,10.78,10.78,0,0,1,42.86,10.11Z"/></g></g></svg>