<svg width="17" height="17" viewBox="0 0 17 17" fill="none" xmlns="http://www.w3.org/2000/svg">
<path d="M9.02875 2.02722C9.15377 1.90224 9.32331 1.83203 9.50008 1.83203C9.67686 1.83203 9.8464 1.90224 9.97141 2.02722L11.9714 4.02722C12.0964 4.15224 12.1666 4.32178 12.1666 4.49856C12.1666 4.67533 12.0964 4.84487 11.9714 4.96989L9.97141 6.96989C9.84568 7.09133 9.67728 7.15852 9.50248 7.157C9.32768 7.15549 9.16047 7.08537 9.03687 6.96177C8.91326 6.83816 8.84315 6.67095 8.84163 6.49616C8.84011 6.32136 8.90731 6.15296 9.02875 6.02722L9.89075 5.16522H8.83341C6.46808 5.16522 4.50008 7.13322 4.50008 9.49856C4.50008 11.8639 6.46808 13.8319 8.83341 13.8319C11.1987 13.8319 13.1667 11.8639 13.1667 9.49856C13.1667 9.32174 13.237 9.15218 13.362 9.02715C13.487 8.90213 13.6566 8.83189 13.8334 8.83189C14.0102 8.83189 14.1798 8.90213 14.3048 9.02715C14.4298 9.15218 14.5001 9.32174 14.5001 9.49856C14.5001 12.5999 11.9347 15.1652 8.83341 15.1652C5.73208 15.1652 3.16675 12.5999 3.16675 9.49856C3.16675 6.39722 5.73208 3.83189 8.83341 3.83189H9.89075L9.02875 2.96989C8.90377 2.84487 8.83356 2.67533 8.83356 2.49856C8.83356 2.32178 8.90377 2.15224 9.02875 2.02722Z" fill="#D5BBFF"/>
</svg>
