<svg width="18" height="18" viewBox="0 0 18 18" fill="none" xmlns="http://www.w3.org/2000/svg">
<g clip-path="url(#clip0_6594_19043)">
<path d="M6.91975 10.5961C7.18651 10.5961 7.40372 10.8131 7.40372 11.0801V16.3389C7.40372 16.6056 7.1867 16.8229 6.91975 16.8229H1.66092C1.39416 16.8229 1.17695 16.6058 1.17695 16.3389V11.0801C1.17695 10.8133 1.39397 10.5961 1.66092 10.5961H6.91975ZM6.91975 9.41895H1.66092C0.743651 9.41895 0 10.1626 0 11.0799V16.3387C0 17.256 0.743651 17.9996 1.66092 17.9996H6.91975C7.83702 17.9996 8.58067 17.256 8.58067 16.3387V11.0799C8.58067 10.1626 7.83702 9.41895 6.91975 9.41895Z" fill="#666666"/>
<path d="M6.91975 1.17732C7.18651 1.17732 7.40372 1.39435 7.40372 1.66129V6.91994C7.40372 7.1867 7.1867 7.40391 6.91975 7.40391H1.66092C1.39416 7.40391 1.17695 7.18689 1.17695 6.91994V1.66111C1.17695 1.39435 1.39397 1.17714 1.66092 1.17714H6.91975M6.91975 0H1.66092C0.743651 0.000186285 0 0.743837 0 1.66111V6.91994C0 7.83721 0.743651 8.58086 1.66092 8.58086H6.91975C7.83702 8.58086 8.58067 7.83721 8.58067 6.91994V1.66111C8.58067 0.743837 7.83702 0.000186285 6.91975 0.000186285V0Z" fill="#666666"/>
<path d="M16.3377 1.17732C16.6045 1.17732 16.8217 1.39435 16.8217 1.66129V6.91994C16.8217 7.1867 16.6047 7.40391 16.3377 7.40391H11.0789C10.8121 7.40391 10.5949 7.18689 10.5949 6.91994V1.66111C10.5949 1.39435 10.8119 1.17714 11.0789 1.17714H16.3377M16.3377 0H11.0789C10.1616 0 9.41797 0.743651 9.41797 1.66092V6.91994C9.41797 7.83721 10.1616 8.58086 11.0789 8.58086H16.3377C17.255 8.58086 17.9986 7.83721 17.9986 6.91994V1.66111C17.9986 0.743837 17.255 0.000186285 16.3377 0.000186285V0Z" fill="#666666"/>
<path d="M17.041 13.1208H14.2977V10.3775C14.2977 10.0525 14.0343 9.78906 13.7092 9.78906C13.3842 9.78906 13.1208 10.0525 13.1208 10.3775V13.1208H10.3775C10.0525 13.1208 9.78906 13.3842 9.78906 13.7092C9.78906 14.0343 10.0525 14.2977 10.3775 14.2977H13.1208V17.041C13.1208 17.366 13.3842 17.6294 13.7092 17.6294C14.0343 17.6294 14.2977 17.366 14.2977 17.041V14.2977H17.041C17.366 14.2977 17.6294 14.0343 17.6294 13.7092C17.6294 13.3842 17.366 13.1208 17.041 13.1208Z" fill="#666666"/>
</g>
<defs>
<clipPath id="clip0_6594_19043">
<rect width="18" height="18" fill="white"/>
</clipPath>
</defs>
</svg>
