<svg width="18" height="18" viewBox="0 0 18 18" fill="none" xmlns="http://www.w3.org/2000/svg">
<path d="M9.0013 0.664062C11.2655 0.664062 11.548 0.672396 12.4363 0.714062C13.3238 0.755729 13.928 0.894896 14.4596 1.10156C15.0096 1.31323 15.473 1.5999 15.9363 2.0624C16.36 2.47898 16.6879 2.98289 16.8971 3.53906C17.103 4.0699 17.243 4.6749 17.2846 5.5624C17.3238 6.45073 17.3346 6.73323 17.3346 8.9974C17.3346 11.2616 17.3263 11.5441 17.2846 12.4324C17.243 13.3199 17.103 13.9241 16.8971 14.4557C16.6885 15.0122 16.3606 15.5162 15.9363 15.9324C15.5196 16.356 15.0157 16.6839 14.4596 16.8932C13.9288 17.0991 13.3238 17.2391 12.4363 17.2807C11.548 17.3199 11.2655 17.3307 9.0013 17.3307C6.73714 17.3307 6.45464 17.3224 5.5663 17.2807C4.6788 17.2391 4.07464 17.0991 3.54297 16.8932C2.98657 16.6845 2.48257 16.3565 2.0663 15.9324C1.64247 15.5159 1.31458 15.012 1.10547 14.4557C0.898802 13.9249 0.759635 13.3199 0.717969 12.4324C0.678802 11.5441 0.667969 11.2616 0.667969 8.9974C0.667969 6.73323 0.676302 6.45073 0.717969 5.5624C0.759635 4.67406 0.898802 4.07073 1.10547 3.53906C1.314 2.98255 1.64197 2.4785 2.0663 2.0624C2.48269 1.63842 2.98666 1.3105 3.54297 1.10156C4.07464 0.894896 4.67797 0.755729 5.5663 0.714062C6.45464 0.674896 6.73714 0.664062 9.0013 0.664062ZM9.0013 4.83073C7.89623 4.83073 6.83643 5.26972 6.05502 6.05112C5.27362 6.83252 4.83464 7.89233 4.83464 8.9974C4.83464 10.1025 5.27362 11.1623 6.05502 11.9437C6.83643 12.7251 7.89623 13.1641 9.0013 13.1641C10.1064 13.1641 11.1662 12.7251 11.9476 11.9437C12.729 11.1623 13.168 10.1025 13.168 8.9974C13.168 7.89233 12.729 6.83252 11.9476 6.05112C11.1662 5.26972 10.1064 4.83073 9.0013 4.83073ZM14.418 4.6224C14.418 4.34613 14.3082 4.08118 14.1129 3.88583C13.9175 3.69048 13.6526 3.58073 13.3763 3.58073C13.1 3.58073 12.8351 3.69048 12.6397 3.88583C12.4444 4.08118 12.3346 4.34613 12.3346 4.6224C12.3346 4.89866 12.4444 5.16362 12.6397 5.35897C12.8351 5.55432 13.1 5.66406 13.3763 5.66406C13.6526 5.66406 13.9175 5.55432 14.1129 5.35897C14.3082 5.16362 14.418 4.89866 14.418 4.6224ZM9.0013 6.4974C9.66434 6.4974 10.3002 6.76079 10.7691 7.22963C11.2379 7.69847 11.5013 8.33435 11.5013 8.9974C11.5013 9.66044 11.2379 10.2963 10.7691 10.7652C10.3002 11.234 9.66434 11.4974 9.0013 11.4974C8.33826 11.4974 7.70238 11.234 7.23354 10.7652C6.76469 10.2963 6.5013 9.66044 6.5013 8.9974C6.5013 8.33435 6.76469 7.69847 7.23354 7.22963C7.70238 6.76079 8.33826 6.4974 9.0013 6.4974Z" fill="#EDEDED"/>
</svg>
