<svg width="14" height="15" viewBox="0 0 14 15" fill="none" xmlns="http://www.w3.org/2000/svg">
<path d="M2.99996 14.1662C1.87605 14.1659 0.872961 13.461 0.491895 12.4036C0.110828 11.3463 0.433601 10.1636 1.29893 9.44638C2.16427 8.72918 3.38638 8.63151 4.35463 9.20218L8.70265 4.85417C8.02245 3.69852 8.30752 2.21737 9.36805 1.39677C10.4286 0.576165 11.9339 0.672058 12.8818 1.62061C13.8297 2.56915 13.9245 4.07451 13.1032 5.1345C12.2818 6.19451 10.8004 6.47851 9.64532 5.79751L5.29796 10.1448C5.78425 10.9694 5.79125 11.9914 5.3163 12.8226C4.84133 13.6538 3.95727 14.1666 2.99996 14.1662ZM2.99996 10.1662C2.26358 10.1662 1.66663 10.7631 1.66663 11.4995C1.66663 12.2359 2.26358 12.8328 2.99996 12.8328C3.73634 12.8328 4.33329 12.2359 4.33329 11.4995C4.33329 10.7631 3.73634 10.1662 2.99996 10.1662ZM11 2.16617C10.2716 2.16691 9.67858 2.75207 9.66811 3.4804C9.65765 4.20873 10.2336 4.81064 10.9618 4.83225C11.6898 4.85387 12.3005 4.28717 12.3333 3.55951V3.82617V3.49951C12.3333 2.76313 11.7363 2.16617 11 2.16617Z" fill="#D5BBFF"/>
</svg>
