<svg width="20" height="20" viewBox="0 0 20 20" fill="none" xmlns="http://www.w3.org/2000/svg">
<g clip-path="url(#clip0_6594_19026)">
<path d="M12.832 1.66699C13.1654 1.66699 13.4154 1.91699 13.4154 2.25033V9.50033V9.66699C13.4154 11.0003 11.832 12.167 9.9987 12.167C8.16536 12.167 6.58203 11.0003 6.58203 9.66699V9.50033V2.33366C6.58203 2.00033 6.83203 1.66699 7.16536 1.66699H12.832ZM12.832 0.416992H7.16536C6.16536 0.416992 5.33203 1.25033 5.33203 2.25033V9.50033V9.66699C5.33203 11.7503 7.41536 13.417 9.9987 13.417C12.582 13.417 14.6654 11.7503 14.6654 9.66699V9.50033V2.33366C14.6654 1.25033 13.832 0.416992 12.832 0.416992Z" fill="#666666"/>
<path d="M10 12.833V19.083" stroke="#666666" stroke-width="1.5" stroke-miterlimit="10"/>
<path d="M7.16797 19.583C7.16797 18.083 8.41797 16.833 9.91797 16.833C11.418 16.833 12.668 18.083 12.668 19.583" fill="#666666"/>
<path d="M5.33333 9.16634C3.16667 9.16634 1.5 7.49967 1.5 5.33301V4.16634C1.5 3.41634 2.08333 2.83301 2.83333 2.83301H5.33333" stroke="#666666" stroke-width="1.5" stroke-miterlimit="10"/>
<path d="M14.668 9.16634H15.168C17.0013 9.16634 18.5013 7.66634 18.5013 5.83301V4.16634C18.5013 3.41634 17.918 2.83301 17.168 2.83301H14.668" stroke="#666666" stroke-width="1.5" stroke-miterlimit="10"/>
</g>
<defs>
<clipPath id="clip0_6594_19026">
<rect width="20" height="20" fill="white"/>
</clipPath>
</defs>
</svg>
