<svg width="20" height="18" viewBox="0 0 20 18" fill="none" xmlns="http://www.w3.org/2000/svg">
<path d="M6.62775 11.554C6.56109 11.6898 6.56109 11.824 6.56109 11.959C6.62775 12.3898 7.00109 12.7065 7.43775 12.7007H8.51608V16.6807C8.51608 17.0857 8.17942 17.4223 7.77442 17.4223H5.48109C5.28492 17.4204 5.09738 17.3415 4.95882 17.2026C4.82026 17.0637 4.74177 16.876 4.74025 16.6798V12.7015H0.826919C0.220252 12.7015 -0.184748 12.094 0.085252 11.554L5.88525 1.0315C5.96205 0.892929 6.07454 0.777446 6.21104 0.697036C6.34754 0.616625 6.50308 0.574219 6.6615 0.574219C6.81993 0.574219 6.97546 0.616625 7.11196 0.697036C7.24847 0.777446 7.36095 0.892929 7.43775 1.0315L9.86525 5.68566L6.62775 11.554ZM19.9153 11.554L14.1153 1.0315C14.0384 0.893131 13.9259 0.77784 13.7895 0.697569C13.6531 0.617298 13.4977 0.57497 13.3394 0.57497C13.1811 0.57497 13.0257 0.617298 12.8893 0.697569C12.7529 0.77784 12.6404 0.893131 12.5636 1.0315L10.0678 5.6865L13.3053 11.5532C13.3728 11.6898 13.3728 11.8248 13.3728 11.959C13.3061 12.3898 12.9319 12.7065 12.4961 12.7007H11.4161V16.6807C11.4203 17.089 11.7494 17.4198 12.1578 17.4223H14.5861C14.7824 17.4206 14.9702 17.342 15.1092 17.2033C15.2482 17.0646 15.3272 16.877 15.3294 16.6807V12.7015H19.1728C19.7811 12.7015 20.1844 12.094 19.9144 11.554H19.9153Z" fill="white"/>
</svg>
