<svg width="24" height="24" viewBox="0 0 24 24" fill="none" xmlns="http://www.w3.org/2000/svg">
<path d="M23.8904 15.158L17.0066 2.54626C16.609 1.81791 15.5705 1.81791 15.173 2.54626L12.1348 8.11254L15.9803 15.158C16.061 15.3028 16.0984 15.468 16.088 15.6337C16.0567 16.1036 15.6352 16.5166 15.064 16.5169H15.0645C15.0641 16.5169 15.0639 16.517 15.0635 16.517H13.8186V21.3263C13.8186 21.4443 13.8417 21.5611 13.8865 21.6701C13.9313 21.7791 13.9969 21.8782 14.0797 21.9616C14.1625 22.045 14.2607 22.1112 14.3689 22.1563C14.4771 22.2015 14.593 22.2247 14.71 22.2247H17.4696C17.706 22.2247 17.9328 22.1301 18.1 21.9616C18.2671 21.7931 18.361 21.5646 18.361 21.3263V16.5169H22.9735C23.7355 16.5169 24.2312 15.7823 23.8904 15.158V15.158Z" fill="#28BF7B"/>
<path d="M9.02757 2.54627C8.62099 1.81791 7.55893 1.81791 7.15226 2.54627L0.112004 15.158C-0.236474 15.7823 0.270414 16.5169 1.04969 16.5169H5.76708V21.3263C5.76708 21.5646 5.86313 21.7931 6.0341 21.9616C6.20506 22.1301 6.43694 22.2247 6.67872 22.2247H9.50102C9.74281 22.2247 9.9747 22.1301 10.1457 21.9616C10.3166 21.7931 10.4127 21.5646 10.4127 21.3263V16.517H9.13955C9.13919 16.517 9.13891 16.5169 9.13852 16.5169H9.13901C8.55481 16.5167 8.12379 16.1036 8.09176 15.6337C8.08112 15.468 8.11935 15.3028 8.20186 15.158L12.1348 8.11255L9.02757 2.54627Z" fill="#39E09B"/>
</svg>
