<svg xmlns="http://www.w3.org/2000/svg" xmlns:xlink="http://www.w3.org/1999/xlink" viewBox="0 0 732.02 270.17"><defs><style>.cls-1{fill:url(#linear-gradient);}.cls-2{fill:url(#linear-gradient-2);}.cls-3{fill:url(#linear-gradient-3);}.cls-4{fill:none;}.cls-5{fill:#f4f4f4;}.cls-6{fill:url(#radial-gradient);}</style><linearGradient id="linear-gradient" x1="413.52" y1="235.78" x2="435.43" y2="215.61" gradientUnits="userSpaceOnUse"><stop offset="0" stop-color="#5e00bf" stop-opacity="0.8"/><stop offset="1" stop-color="#5a007b"/></linearGradient><linearGradient id="linear-gradient-2" x1="312.46" y1="85.35" x2="395.49" y2="4.33" gradientUnits="userSpaceOnUse"><stop offset="0" stop-color="#7800bf" stop-opacity="0"/><stop offset="0.12" stop-color="#7800bd" stop-opacity="0.05"/><stop offset="0.29" stop-color="#7800b8" stop-opacity="0.17"/><stop offset="0.51" stop-color="#7900af" stop-opacity="0.38"/><stop offset="0.62" stop-color="#7900aa" stop-opacity="0.5"/><stop offset="1" stop-color="#5e00bf"/></linearGradient><linearGradient id="linear-gradient-3" x1="244.5" y1="266.76" x2="478.33" y2="33.25" gradientUnits="userSpaceOnUse"><stop offset="0" stop-opacity="0"/><stop offset="0.07" stop-color="#130027" stop-opacity="0.12"/><stop offset="0.28" stop-color="#490094" stop-opacity="0.47"/><stop offset="0.38" stop-color="#5e00bf" stop-opacity="0.6"/><stop offset="1" stop-color="#5a007b" stop-opacity="0.8"/></linearGradient><radialGradient id="radial-gradient" cx="376.42" cy="135.15" r="78.39" gradientUnits="userSpaceOnUse"><stop offset="0" stop-opacity="0.7"/><stop offset="1" stop-opacity="0"/></radialGradient></defs><g id="Layer_2" data-name="Layer 2"><g id="Layer_1-2" data-name="Layer 1"><circle class="cls-1" cx="422.69" cy="227.34" r="14.89"/><path class="cls-2" d="M323.65,89a14,14,0,0,1-9.9-23.9l47.3-47.31a14,14,0,1,1,19.8,19.8l-47.3,47.31A14,14,0,0,1,323.65,89Z"/><path class="cls-3" d="M507.34,23.9a14,14,0,0,0-19.8-19.8L386.72,104.92h39.6Z"/><path class="cls-3" d="M320.81,170.83,245.5,246.14a14,14,0,0,0,19.8,19.8l81.26-81.25-5.44-13.86Z"/><path class="cls-4" d="M507.34,23.9a14,14,0,0,0-19.8-19.8L386.72,104.92h39.6Z"/><path class="cls-4" d="M320.81,170.83,245.5,246.14a14,14,0,0,0,19.8,19.8l81.26-81.25-5.44-13.86Z"/><path class="cls-5" d="M59.44,173.12c-27.06,0-32.64-6.6-32.64-25.15s5.58-25.27,32.64-25.27c23.62,0,31.11,5.21,32.89,14.73l24.13-7.62c-8.38-20.7-25-27.56-57-27.56C20.32,102.25,0,113.43,0,148s20.32,45.72,59.44,45.72c32.13,0,50.29-9.27,57.4-27.94l-24-7.74C90.8,166.77,84,173.12,59.44,173.12Z"/><path class="cls-5" d="M224.41,159.28c12.06-3.43,19.05-13.72,19.05-26.17,0-17.14-12.07-28.19-37.21-28.19H131.44v86h25.4V162.83h42.29c3.05,10.16,8.39,20.45,15.5,28.07h30.73C234.82,180.49,228,169.44,224.41,159.28ZM206.12,144H156.84v-18.8H206c5.72,0,10.54,2,10.54,8.64C216.53,143.53,211.71,144,206.12,144Z"/><path class="cls-5" d="M339.6,104.92H292.35l-37.46,86h28.32l7.87-20.07h50l5.44,13.86L349,190.9h28.07Zm-41.15,46.86,10.92-27.55h13.46l10.8,27.55Z"/><polygon class="cls-5" points="425.95 104.92 386.36 104.92 367.42 104.92 367.42 126.51 383.87 126.51 404.37 126.51 409.71 126.51 409.71 190.9 435.11 190.9 435.11 126.51 477.53 126.51 477.53 104.92 425.95 104.92"/><polygon class="cls-5" points="520.57 155.85 595.88 155.85 595.88 137.81 520.57 137.81 520.57 124.73 598.42 124.73 598.42 104.92 495.04 104.92 495.04 190.9 600.2 190.9 600.2 169.06 520.57 169.06 520.57 155.85"/><path class="cls-5" d="M711.07,159.28c12.06-3.43,19-13.72,19-26.17,0-17.14-12.07-28.19-37.21-28.19h-74.8v86H643.5V162.83h42.3c3,10.16,8.38,20.45,15.49,28.07H732C721.48,180.49,714.62,169.44,711.07,159.28ZM692.78,144H643.5v-18.8h49.15c5.72,0,10.54,2,10.54,8.64C703.19,143.53,698.37,144,692.78,144Z"/><path class="cls-6" d="M323.65,89.14a14,14,0,0,1-9.9-23.9l47.3-47.31a14,14,0,1,1,19.8,19.8L333.55,85A14,14,0,0,1,323.65,89.14Z"/><path class="cls-6" d="M507.34,24a14,14,0,0,0-19.8-19.8L386.72,105.05h39.6Z"/><path class="cls-6" d="M320.81,171,245.5,246.27a14,14,0,0,0,19.8,19.8l81.26-81.25L341.12,171Z"/><path class="cls-6" d="M507.34,24a14,14,0,0,0-19.8-19.8L386.72,105.05h39.6Z"/><path class="cls-6" d="M320.81,171,245.5,246.27a14,14,0,0,0,19.8,19.8l81.26-81.25L341.12,171Z"/><path class="cls-6" d="M507.34,24a14,14,0,0,0-19.8-19.8L386.72,105.05h39.6Z"/><path class="cls-6" d="M320.81,171,245.5,246.27a14,14,0,0,0,19.8,19.8l81.26-81.25L341.12,171Z"/><circle class="cls-6" cx="422.69" cy="227.47" r="14.89"/></g></g></svg>