<svg width="41" height="40" viewBox="0 0 41 40" fill="none" xmlns="http://www.w3.org/2000/svg">
<path fill-rule="evenodd" clip-rule="evenodd" d="M16.3188 2.3094C18.7941 0.880339 21.8436 0.880339 24.3188 2.3094L33.6394 7.6906C36.1146 9.11966 37.6394 11.7607 37.6394 14.6188V25.3812C37.6394 28.2393 36.1146 30.8803 33.6394 32.3094L24.3188 37.6906C21.8436 39.1197 18.7941 39.1197 16.3188 37.6906L6.99834 32.3094C4.52313 30.8803 2.99834 28.2393 2.99834 25.3812V14.6188C2.99834 11.7607 4.52313 9.11966 6.99834 7.6906L16.3188 2.3094Z" fill="url(#paint0_linear)"/>
<path fill-rule="evenodd" clip-rule="evenodd" d="M18.5843 18.5122C19.6154 17.9123 20.887 17.9025 21.9272 18.4865L28.9404 22.4238C29.5136 22.7455 29.5136 23.5706 28.9404 23.8924L21.9272 27.8296C20.887 28.4136 19.6154 28.4038 18.5843 27.8039L11.8503 23.8859C11.2921 23.5612 11.2921 22.7549 11.8503 22.4302L18.5843 18.5122Z" fill="white"/>
<g opacity="0.900359" filter="url(#filter0_b)">
<path fill-rule="evenodd" clip-rule="evenodd" d="M18.5843 18.417C19.6154 17.8171 20.887 17.8073 21.9272 18.3913L28.9404 22.3285C29.5136 22.6503 29.5136 23.4754 28.9404 23.7971L21.9272 27.7344C20.887 28.3184 19.6154 28.3086 18.5843 27.7087L11.8503 23.7907C11.2921 23.466 11.2921 22.6597 11.8503 22.335L18.5843 18.417Z" fill="url(#paint1_linear)"/>
</g>
<path fill-rule="evenodd" clip-rule="evenodd" d="M18.5843 15.023C19.6154 14.423 20.887 14.4133 21.9272 14.9973L28.9404 18.9345C29.5136 19.2563 29.5136 20.0813 28.9404 20.4031L21.9272 24.3403C20.887 24.9243 19.6154 24.9146 18.5843 24.3146L11.8503 20.3967C11.2921 20.0719 11.2921 19.2657 11.8503 18.9409L18.5843 15.023Z" fill="white"/>
<g filter="url(#filter1_b)">
<path fill-rule="evenodd" clip-rule="evenodd" d="M18.5843 14.9082C19.6154 14.3083 20.887 14.2985 21.9272 14.8825L28.9404 18.8198C29.5136 19.1415 29.5136 19.9666 28.9404 20.2884L21.9272 24.2256C20.887 24.8096 19.6154 24.7998 18.5843 24.1999L11.8503 20.2819C11.2921 19.9572 11.2921 19.1509 11.8503 18.8262L18.5843 14.9082Z" fill="url(#paint2_linear)"/>
</g>
<path fill-rule="evenodd" clip-rule="evenodd" d="M18.5843 11.3994C19.6154 10.7995 20.887 10.7897 21.9272 11.3737L28.9404 15.311C29.5136 15.6327 29.5136 16.4578 28.9404 16.7796L21.9272 20.7168C20.887 21.3008 19.6154 21.291 18.5843 20.6911L11.8503 16.7731C11.2921 16.4484 11.2921 15.6421 11.8503 15.3174L18.5843 11.3994Z" fill="white"/>
<defs>
<filter id="filter0_b" x="-16.1012" y="-13.4392" width="73.0045" height="73.0045" filterUnits="userSpaceOnUse" color-interpolation-filters="sRGB">
<feFlood flood-opacity="0" result="BackgroundImageFix"/>
<feGaussianBlur in="BackgroundImage" stdDeviation="13.5914"/>
<feComposite in2="SourceAlpha" operator="in" result="effect1_backgroundBlur"/>
<feBlend mode="normal" in="SourceGraphic" in2="effect1_backgroundBlur" result="shape"/>
</filter>
<filter id="filter1_b" x="-16.1012" y="-16.948" width="73.0045" height="73.0045" filterUnits="userSpaceOnUse" color-interpolation-filters="sRGB">
<feFlood flood-opacity="0" result="BackgroundImageFix"/>
<feGaussianBlur in="BackgroundImage" stdDeviation="13.5914"/>
<feComposite in2="SourceAlpha" operator="in" result="effect1_backgroundBlur"/>
<feBlend mode="normal" in="SourceGraphic" in2="effect1_backgroundBlur" result="shape"/>
</filter>
<linearGradient id="paint0_linear" x1="22.5217" y1="-16.5631" x2="-10.6044" y2="19.0311" gradientUnits="userSpaceOnUse">
<stop stop-color="#32C5FF"/>
<stop offset="0.533966" stop-color="#B620E0"/>
<stop offset="1" stop-color="#FFAA12"/>
</linearGradient>
<linearGradient id="paint1_linear" x1="22.1303" y1="12.1725" x2="10.1741" y2="18.5841" gradientUnits="userSpaceOnUse">
<stop stop-color="white" stop-opacity="0.475466"/>
<stop offset="1" stop-color="white" stop-opacity="0.272734"/>
</linearGradient>
<linearGradient id="paint2_linear" x1="24.1488" y1="12.933" x2="14.4511" y2="18.6041" gradientUnits="userSpaceOnUse">
<stop stop-color="white" stop-opacity="0.200771"/>
<stop offset="1" stop-color="white" stop-opacity="0.697855"/>
</linearGradient>
</defs>
</svg>
