<svg width="24" height="24" viewBox="0 0 24 24" fill="none" xmlns="http://www.w3.org/2000/svg">
<g clip-path="url(#clip0_628_1418)">
<path d="M9 0.417936C9.14642 0.595855 9.23612 0.813594 9.25751 1.04302C9.2789 1.27245 9.231 1.50302 9.12 1.70494C8.25279 3.29715 7.7999 5.08188 7.803 6.89494C7.803 12.9264 12.72 17.8104 18.78 17.8104C19.5705 17.8104 20.34 17.7279 21.0795 17.5704C21.3062 17.5213 21.5423 17.5401 21.7584 17.6244C21.9745 17.7087 22.1609 17.8548 22.2945 18.0444C22.4355 18.2416 22.5074 18.4798 22.499 18.7221C22.4905 18.9643 22.4023 19.197 22.248 19.3839C21.0715 20.8291 19.5874 21.9935 17.9038 22.7922C16.2201 23.591 14.3795 24.0039 12.516 24.0009C5.601 24.0009 0 18.4299 0 11.5659C0 6.39994 3.171 1.96894 7.686 0.090936C7.91091 -0.00411619 8.16058 -0.0236252 8.39752 0.0353395C8.63447 0.0943043 8.84588 0.228559 9 0.417936Z" fill="#010101"/>
<path d="M16.1922 4.72366C16.2137 4.6587 16.2551 4.60217 16.3106 4.56211C16.3661 4.52204 16.4328 4.50048 16.5012 4.50048C16.5696 4.50048 16.6363 4.52204 16.6918 4.56211C16.7472 4.60217 16.7887 4.6587 16.8102 4.72366L17.3907 6.46666C17.6502 7.24366 18.2592 7.85266 19.0362 8.11216L20.7792 8.69266C20.8441 8.71417 20.9007 8.7556 20.9407 8.81108C20.9808 8.86655 21.0024 8.93323 21.0024 9.00166C21.0024 9.07009 20.9808 9.13677 20.9407 9.19225C20.9007 9.24772 20.8441 9.28915 20.7792 9.31066L19.0362 9.89116C18.653 10.0188 18.3048 10.234 18.0191 10.5196C17.7335 10.8052 17.5184 11.1534 17.3907 11.5367L16.8102 13.2797C16.7887 13.3446 16.7472 13.4011 16.6918 13.4412C16.6363 13.4813 16.5696 13.5028 16.5012 13.5028C16.4328 13.5028 16.3661 13.4813 16.3106 13.4412C16.2551 13.4011 16.2137 13.3446 16.1922 13.2797L15.6117 11.5367C15.484 11.1534 15.2688 10.8052 14.9832 10.5196C14.6976 10.234 14.3494 10.0188 13.9662 9.89116L12.2232 9.31066C12.1582 9.28915 12.1017 9.24772 12.0616 9.19225C12.0216 9.13677 12 9.07009 12 9.00166C12 8.93323 12.0216 8.86655 12.0616 8.81108C12.1017 8.7556 12.1582 8.71417 12.2232 8.69266L13.9662 8.11216C14.3494 7.98449 14.6976 7.76931 14.9832 7.4837C15.2688 7.19808 15.484 6.84987 15.6117 6.46666L16.1922 4.72366ZM20.7957 0.15016C20.8105 0.10745 20.8382 0.0704141 20.8751 0.0442026C20.9119 0.0179911 20.956 0.00390625 21.0012 0.00390625C21.0464 0.00390625 21.0905 0.0179911 21.1273 0.0442026C21.1641 0.0704141 21.1919 0.10745 21.2067 0.15016L21.5937 1.31116C21.7662 1.83016 22.1727 2.23666 22.6917 2.40916L23.8527 2.79616C23.8954 2.81097 23.9324 2.83872 23.9586 2.87554C23.9849 2.91237 23.9989 2.95646 23.9989 3.00166C23.9989 3.04686 23.9849 3.09095 23.9586 3.12778C23.9324 3.16461 23.8954 3.19235 23.8527 3.20716L22.6917 3.59416C22.4359 3.67924 22.2035 3.82278 22.0129 4.01338C21.8223 4.20398 21.6788 4.43639 21.5937 4.69216L21.2067 5.85316C21.1919 5.89587 21.1641 5.93291 21.1273 5.95912C21.0905 5.98533 21.0464 5.99941 21.0012 5.99941C20.956 5.99941 20.9119 5.98533 20.8751 5.95912C20.8382 5.93291 20.8105 5.89587 20.7957 5.85316L20.4087 4.69216C20.3236 4.43639 20.1801 4.20398 19.9895 4.01338C19.7989 3.82278 19.5664 3.67924 19.3107 3.59416L18.1497 3.20716C18.107 3.19235 18.0699 3.16461 18.0437 3.12778C18.0175 3.09095 18.0034 3.04686 18.0034 3.00166C18.0034 2.95646 18.0175 2.91237 18.0437 2.87554C18.0699 2.83872 18.107 2.81097 18.1497 2.79616L19.3107 2.40916C19.8297 2.23666 20.2362 1.83016 20.4087 1.31116L20.7957 0.15166V0.15016Z" fill="#010101"/>
</g>
<defs>
<clipPath id="clip0_628_1418">
<rect width="24" height="24" fill="white"/>
</clipPath>
</defs>
</svg>
