<svg width="24" height="24" viewBox="0 0 24 24" fill="none" xmlns="http://www.w3.org/2000/svg">
<path d="M22 12.5105C22 11.5453 19.7894 10.9369 19.5159 10.0766C19.2211 9.17452 20.6526 7.39104 20.1053 6.65666C19.558 5.90134 17.4106 6.69866 16.6527 6.15307C15.8948 5.60775 16 3.32068 15.0948 3.02695C14.2316 2.75415 12.9685 4.64254 12 4.64254C11.0316 4.64254 9.78945 2.7543 8.90528 3.02695C8.00009 3.32068 8.10524 5.60775 7.36847 6.15318C6.61057 6.69866 4.46316 5.90146 3.91583 6.65677C3.3685 7.41209 4.77903 9.17448 4.50531 10.0767C4.21058 10.9369 2 11.5452 2 12.5105C2 13.4757 4.21057 14.084 4.48414 14.9443C4.77887 15.8464 3.34737 17.6299 3.89467 18.3643C4.442 19.1196 6.58941 18.3223 7.3473 18.8679C8.1052 19.4133 7.9999 21.7004 8.90524 21.9731C9.76843 22.2459 11.0315 20.3575 12 20.3575C12.9684 20.3575 14.2105 22.2457 15.0947 21.9731C15.9999 21.6793 15.8948 19.4133 16.6527 18.8679C17.4106 18.3224 19.558 19.1196 20.1053 18.3643C20.6526 17.609 19.2421 15.8466 19.5158 14.9443C19.7894 14.084 22 13.4757 22 12.5105L22 12.5105Z" fill="currentColor"/>
</svg>
