<svg width="24" height="24" viewBox="0 0 24 24" fill="none" xmlns="http://www.w3.org/2000/svg">
<path d="M2.25 2.78755V21.2094C2.25012 21.2494 2.26204 21.2884 2.28427 21.3217C2.30649 21.3549 2.33803 21.3808 2.37492 21.3962C2.41182 21.4115 2.45243 21.4157 2.49166 21.408C2.5309 21.4004 2.56701 21.3814 2.59547 21.3533L12.1875 11.999L2.59547 2.64364C2.56701 2.61558 2.5309 2.59655 2.49166 2.58893C2.45243 2.58131 2.41182 2.58544 2.37492 2.60081C2.33803 2.61618 2.30649 2.6421 2.28427 2.67532C2.26204 2.70854 2.25012 2.74758 2.25 2.78755Z" fill="currentColor"/>
<path d="M16.2098 8.15639L4.18265 1.53014L4.17515 1.52592C3.96796 1.41342 3.77108 1.69373 3.94077 1.85686L13.3687 10.8719L16.2098 8.15639Z" fill="currentColor"/>
<path d="M3.94132 22.1434C3.7707 22.3065 3.96757 22.5868 4.1757 22.4743L4.1832 22.4701L16.2094 15.8438L13.3684 13.1274L3.94132 22.1434Z" fill="currentColor"/>
<path d="M21.0644 10.8287L17.7058 8.979L14.5479 12.0006L17.7058 15.0207L21.0644 13.1724C21.978 12.6676 21.978 11.3335 21.0644 10.8287Z" fill="currentColor"/>
</svg>
