<svg xmlns="http://www.w3.org/2000/svg" xmlns:xlink="http://www.w3.org/1999/xlink" viewBox="0 0 420 420"><defs><style>.cls-1{mask:url(#mask);filter:url(#luminosity-noclip-5);}.cls-2,.cls-4,.cls-6,.cls-8{mix-blend-mode:multiply;}.cls-2{fill:url(#linear-gradient);}.cls-3{mask:url(#mask-2);filter:url(#luminosity-noclip-6);}.cls-4{fill:url(#linear-gradient-2);}.cls-5{mask:url(#mask-3);filter:url(#luminosity-noclip-7);}.cls-6{fill:url(#linear-gradient-3);}.cls-7{mask:url(#mask-4);filter:url(#luminosity-noclip-8);}.cls-8{fill:url(#linear-gradient-4);}.cls-9{isolation:isolate;}.cls-10{mask:url(#mask-5);}.cls-11{opacity:0.46;fill:url(#linear-gradient-5);}.cls-12{mask:url(#mask-6);}.cls-13{fill:url(#linear-gradient-6);}.cls-14{fill:url(#linear-gradient-7);}.cls-15{mask:url(#mask-7);}.cls-16,.cls-18,.cls-20{mix-blend-mode:overlay;}.cls-16{opacity:0.5;fill:url(#linear-gradient-8);}.cls-17{mask:url(#mask-8);}.cls-18{opacity:0.47;fill:url(#linear-gradient-9);}.cls-19{fill:url(#linear-gradient-10);}.cls-20{fill:url(#linear-gradient-11);}.cls-21{fill:#4c3559;mix-blend-mode:hard-light;}.cls-22{fill:#fff;}.cls-23{filter:url(#luminosity-noclip-4);}.cls-24{filter:url(#luminosity-noclip-3);}.cls-25{filter:url(#luminosity-noclip-2);}.cls-26{filter:url(#luminosity-noclip);}</style><filter id="luminosity-noclip" x="29.98" y="-8402" width="360.04" height="32766" filterUnits="userSpaceOnUse" color-interpolation-filters="sRGB"><feFlood flood-color="#fff" result="bg"/><feBlend in="SourceGraphic" in2="bg"/></filter><mask id="mask" x="29.98" y="-8402" width="360.04" height="32766" maskUnits="userSpaceOnUse"><g class="cls-26"/></mask><linearGradient id="linear-gradient" x1="227.97" y1="390.06" x2="190.54" y2="21.69" gradientUnits="userSpaceOnUse"><stop offset="0" stop-color="#fff"/><stop offset="1"/></linearGradient><filter id="luminosity-noclip-2" x="58.68" y="-8402" width="302.64" height="32766" filterUnits="userSpaceOnUse" color-interpolation-filters="sRGB"><feFlood flood-color="#fff" result="bg"/><feBlend in="SourceGraphic" in2="bg"/></filter><mask id="mask-2" x="58.68" y="-8402" width="302.64" height="32766" maskUnits="userSpaceOnUse"><g class="cls-25"/></mask><linearGradient id="linear-gradient-2" x1="225.1" y1="361.84" x2="193.64" y2="52.21" gradientUnits="userSpaceOnUse"><stop offset="0.03" stop-color="#fff"/><stop offset="1"/></linearGradient><filter id="luminosity-noclip-3" x="87.15" y="-8402" width="106.38" height="32766" filterUnits="userSpaceOnUse" color-interpolation-filters="sRGB"><feFlood flood-color="#fff" result="bg"/><feBlend in="SourceGraphic" in2="bg"/></filter><mask id="mask-3" x="87.15" y="-8402" width="106.38" height="32766" maskUnits="userSpaceOnUse"><g class="cls-24"/></mask><linearGradient id="linear-gradient-3" x1="219.09" y1="147.46" x2="304.62" y2="147.46" gradientTransform="matrix(0, 0.87, -1.31, 0, 332.91, -80.86)" gradientUnits="userSpaceOnUse"><stop offset="0" stop-color="#fff"/><stop offset="1" stop-color="#333"/></linearGradient><filter id="luminosity-noclip-4" x="106.89" y="-8402" width="40.69" height="32766" filterUnits="userSpaceOnUse" color-interpolation-filters="sRGB"><feFlood flood-color="#fff" result="bg"/><feBlend in="SourceGraphic" in2="bg"/></filter><mask id="mask-4" x="106.89" y="-8402" width="40.69" height="32766" maskUnits="userSpaceOnUse"><g class="cls-23"/></mask><linearGradient id="linear-gradient-4" x1="72.43" y1="186.22" x2="186.82" y2="64.98" gradientTransform="matrix(1, 0, 0, 1, 0, 0)" xlink:href="#linear-gradient-3"/><filter id="luminosity-noclip-5" x="29.98" y="33.09" width="360.04" height="360" filterUnits="userSpaceOnUse" color-interpolation-filters="sRGB"><feFlood flood-color="#fff" result="bg"/><feBlend in="SourceGraphic" in2="bg"/></filter><mask id="mask-5" x="29.98" y="33.09" width="360.04" height="360" maskUnits="userSpaceOnUse"><g class="cls-1"><path class="cls-2" d="M390,213.07A180.05,180.05,0,0,1,277.83,379.86a175.63,175.63,0,0,1-31.64,9.56A180,180,0,0,1,30,213.07c0-3.25.08-6.47.29-9.68a180,180,0,0,1,179-170.3H210a179.19,179.19,0,0,1,86.23,22,181.23,181.23,0,0,1,54.56,45.87,179.06,179.06,0,0,1,38.94,102.47C389.94,206.6,390,209.82,390,213.07Z"/></g></mask><linearGradient id="linear-gradient-5" x1="227.97" y1="390.06" x2="190.54" y2="21.69" gradientUnits="userSpaceOnUse"><stop offset="0" stop-color="#1a2355"/><stop offset="1" stop-color="#0b1e22"/></linearGradient><filter id="luminosity-noclip-6" x="58.68" y="61.79" width="302.64" height="302.6" filterUnits="userSpaceOnUse" color-interpolation-filters="sRGB"><feFlood flood-color="#fff" result="bg"/><feBlend in="SourceGraphic" in2="bg"/></filter><mask id="mask-6" x="58.68" y="61.79" width="302.64" height="302.6" maskUnits="userSpaceOnUse"><g class="cls-3"><path class="cls-4" d="M361.32,213.08A151.34,151.34,0,0,1,267,353.27a147.84,147.84,0,0,1-26.59,8A151.3,151.3,0,0,1,58.68,213.08c0-2.74.07-5.44.25-8.14A151.29,151.29,0,0,1,209.4,61.79h.6a150.59,150.59,0,0,1,72.48,18.46,152.26,152.26,0,0,1,45.86,38.55,150.5,150.5,0,0,1,32.73,86.14C361.25,207.64,361.32,210.34,361.32,213.08Z"/></g></mask><linearGradient id="linear-gradient-6" x1="225.1" y1="361.84" x2="193.64" y2="52.21" gradientUnits="userSpaceOnUse"><stop offset="0.03" stop-color="#2b2f6a"/><stop offset="1" stop-color="#0b1e22"/></linearGradient><linearGradient id="linear-gradient-7" x1="210" y1="125.21" x2="210" y2="390.79" gradientUnits="userSpaceOnUse"><stop offset="0" stop-color="#6d60b2"/><stop offset="0.83" stop-color="#a865c7"/></linearGradient><filter id="luminosity-noclip-7" x="87.15" y="90.98" width="106.38" height="112.51" filterUnits="userSpaceOnUse" color-interpolation-filters="sRGB"><feFlood flood-color="#fff" result="bg"/><feBlend in="SourceGraphic" in2="bg"/></filter><mask id="mask-7" x="87.15" y="90.98" width="106.38" height="112.51" maskUnits="userSpaceOnUse"><g class="cls-5"><ellipse class="cls-6" cx="140.34" cy="147.23" rx="67.85" ry="37.25" transform="translate(-62.98 152.96) rotate(-47.99)"/></g></mask><linearGradient id="linear-gradient-8" x1="219.09" y1="147.46" x2="304.62" y2="147.46" gradientTransform="matrix(0, 0.87, -1.31, 0, 332.91, -80.86)" gradientUnits="userSpaceOnUse"><stop offset="0" stop-color="#fff"/><stop offset="1" stop-color="#fff"/></linearGradient><filter id="luminosity-noclip-8" x="106.89" y="105.43" width="40.69" height="45.41" filterUnits="userSpaceOnUse" color-interpolation-filters="sRGB"><feFlood flood-color="#fff" result="bg"/><feBlend in="SourceGraphic" in2="bg"/></filter><mask id="mask-8" x="106.89" y="105.43" width="40.69" height="45.41" maskUnits="userSpaceOnUse"><g class="cls-7"><path class="cls-8" d="M145.51,120.17l-22.68,27.41A9,9,0,0,1,109,136.1l22.69-27.41a9,9,0,0,1,13.86,11.48Z"/></g></mask><linearGradient id="linear-gradient-9" x1="72.43" y1="186.22" x2="186.82" y2="64.98" gradientTransform="matrix(1, 0, 0, 1, 0, 0)" xlink:href="#linear-gradient-8"/><linearGradient id="linear-gradient-10" x1="264.31" y1="124.7" x2="264.31" y2="387.57" gradientUnits="userSpaceOnUse"><stop offset="0" stop-color="#5c4ea5"/><stop offset="0.83" stop-color="#9c4fc2"/></linearGradient><linearGradient id="linear-gradient-11" x1="275.19" y1="125.21" x2="275.19" y2="390.79" gradientUnits="userSpaceOnUse"><stop offset="0" stop-color="#58517c"/><stop offset="0.83" stop-color="#a865c7"/></linearGradient></defs><g class="cls-9"><g id="Layer_1" data-name="Layer 1"><g class="cls-10"><path class="cls-11" d="M390,213.07A180.05,180.05,0,0,1,277.83,379.86a175.63,175.63,0,0,1-31.64,9.56A180,180,0,0,1,30,213.07c0-3.25.08-6.47.29-9.68a180,180,0,0,1,179-170.3H210a179.19,179.19,0,0,1,86.23,22,181.23,181.23,0,0,1,54.56,45.87,179.06,179.06,0,0,1,38.94,102.47C389.94,206.6,390,209.82,390,213.07Z"/></g><g class="cls-12"><path class="cls-13" d="M361.32,213.08A151.34,151.34,0,0,1,267,353.27a147.84,147.84,0,0,1-26.59,8A151.3,151.3,0,0,1,58.68,213.08c0-2.74.07-5.44.25-8.14A151.29,151.29,0,0,1,209.4,61.79h.6a150.59,150.59,0,0,1,72.48,18.46,152.26,152.26,0,0,1,45.86,38.55,150.5,150.5,0,0,1,32.73,86.14C361.25,207.64,361.32,210.34,361.32,213.08Z"/></g><path class="cls-14" d="M348.65,213.08a138.68,138.68,0,0,1-86.41,128.46,136,136,0,0,1-24.37,7.36A138.64,138.64,0,0,1,71.35,213.08c0-2.51.06-5,.22-7.46A138.63,138.63,0,0,1,209.45,74.46H210a138.1,138.1,0,0,1,66.42,16.91,139.52,139.52,0,0,1,42,35.33,137.87,137.87,0,0,1,30,78.92C348.59,208.09,348.65,210.57,348.65,213.08Z"/><g class="cls-15"><ellipse class="cls-16" cx="140.34" cy="147.23" rx="67.85" ry="37.25" transform="translate(-62.98 152.96) rotate(-47.99)"/></g><g class="cls-17"><path class="cls-18" d="M145.51,120.17l-22.68,27.41A9,9,0,0,1,109,136.1l22.69-27.41a9,9,0,0,1,13.86,11.48Z"/></g><path class="cls-19" d="M348.65,213.08a138.68,138.68,0,0,1-86.41,128.46,136,136,0,0,1-24.37,7.36,16.8,16.8,0,0,1-2-8.1V335a17.5,17.5,0,0,1,17.45-17.49A17.45,17.45,0,0,0,270.76,300v-4.95a17.45,17.45,0,0,0-17.46-17.45H197.43A17.46,17.46,0,0,1,180,260.17v-5.85a17.49,17.49,0,0,1,17.46-17.49h55.68a17.46,17.46,0,0,0,17.46-17.45v-5.53a17.46,17.46,0,0,0-17.46-17.46H231.73a17.45,17.45,0,0,1-17.45-17.45v-5.82a17.45,17.45,0,0,1,17.45-17.46h21.38a17.46,17.46,0,0,0,17.46-17.45v-5.53a17.46,17.46,0,0,0-17.46-17.46H209.55a17.48,17.48,0,0,1-17.46-17.46V91.91a17.45,17.45,0,0,1,17.36-17.45H210a138.1,138.1,0,0,1,66.42,16.91,139.52,139.52,0,0,1,42,35.33,137.87,137.87,0,0,1,30,78.92C348.59,208.09,348.65,210.57,348.65,213.08Z"/><path class="cls-20" d="M348.65,213.08a138.68,138.68,0,0,1-86.41,128.46,136,136,0,0,1-24.37,7.36A137.58,137.58,0,0,1,210,351.73c-2.76,0-5.53-.1-8.26-.26a132.36,132.36,0,0,0,19.74-2.57,135.86,135.86,0,0,0,24.36-7.36,138.67,138.67,0,0,0,86.42-128.46c0-2.51-.07-5-.23-7.46a137.86,137.86,0,0,0-30-78.92,139.56,139.56,0,0,0-42-35.33,137.61,137.61,0,0,0-58.28-16.65q3.81-.25,7.71-.26H210a138.1,138.1,0,0,1,66.42,16.91,139.52,139.52,0,0,1,42,35.33,137.87,137.87,0,0,1,30,78.92C348.59,208.09,348.65,210.57,348.65,213.08Z"/><path class="cls-21" d="M213,76C136.36,76,74,138.36,74,215a138.45,138.45,0,0,0,6.43,41.78l-.23.16.18.55a2.67,2.67,0,0,0,.26-.09c18,56,70.5,96.6,132.36,96.6,76.65,0,139-62.35,139-139S289.65,76,213,76Zm-97.2,51.4a37.06,37.06,0,0,0-4,1.23q3.06-3.57,6.34-6.93c.6-.14,1.19-.27,1.8-.39C115,124.13,115.86,125.28,115.8,127.4Zm-4.18,60.25c-3.34.86-6.5,1.71-9.43,2.54C100.83,189.76,108.65,186.76,111.62,187.65Zm-4.25-3.17c-1.23,1-2.18,2.32-4.73,3.07C102.34,186.32,102.86,185.44,107.37,184.48Zm1.63-2.29c-2.86,1.64-7,3.12-9.41,4.7.12,1.79-5.48,3.07-8.4,4.4l-2.27,1.11L90,193.52c-.75.81-3.08.83-4.08.95-5,.59,0-.86,1.22-1.66,2-1.64-4-1-2.27-2.26l2.14.23c1.15-1.56,5-2.17,8.53-3.62,3.11-1.33,7.14-3,9.9-4.52.93-.52,1.16-1.1,2.84-1.57C112.48,179.9,110.28,181.45,109,182.19Zm-17.15,1.92a4.59,4.59,0,0,1,1.87-.06c.43-.19.89-.39,1.38-.58,1.86-.42,2.37-.85,4.73-.82-2,.83-3.82,1.66-5.55,2.48l-.7-1q-2.6,1.58-4.81,3.08C88.84,186,88.05,185.17,91.85,184.11Zm13-6.07c-3.84,1.39-4.92,1.91-9.16,2.27-1.17,1.86-7.41,4.06-9.67,5.73a21.74,21.74,0,0,0-3.64,3.23c.18-.87.37-1.75.56-2.63a32.27,32.27,0,0,1,7.56-5.24,28.67,28.67,0,0,1,4.11-2c1.06-.28,4.13-.12,5.24-.47s.27-1.43,1.38-1.91,7.39-1.3,9.35-1.58C110.61,176.44,107.53,177.1,104.84,178ZM81.49,195c0,.07-.11.15-.16.23,0-.3.09-.6.14-.91C81.78,194.19,81.9,194.29,81.49,195Zm2.34,52.22,2.59-.21c-1.1-.52-2.08-1-3-1.55-.06-.24-.11-.48-.16-.71,1.65.3,4.85,1.93,5.06.77.07-1-1.06-.26-2.38-.9a23.25,23.25,0,0,1-3.15-1.86c-.15-.74-.3-1.47-.44-2.21a2.63,2.63,0,0,1,.91-1.59L82,238.47c-.09-.52-.19-1-.28-1.55a21,21,0,0,1,4.55,1.17c-.45,1.17-.88,2.32-1.29,3.46,2.59.19,3.5-.65,4.21-1.67.6-.84,2.3-1.55,2.86-2.37l-.85-.61c-1.19-.58-1.11-.82.28-.72.19-.48,1.07-1.28,1.32-1.87s0-1.65.87-2.14,5.48-.25,4.52-1.14c-5.23,0-8,0-10.63.71-2.86.83-2.32,1.85-2.25,3.73-2.47-1.05-2-.41-2.75.24a5.49,5.49,0,0,1-1.32-1.9c-.06-.4-.1-.8-.15-1.2.12-1.18.93-2.14.41-3.62l-.89-.11a132.5,132.5,0,0,1,.16-29,20.45,20.45,0,0,0,4.66-1.09c.61-.43,5.55-2.36,3.51-2.54,3.72-1.63,10-5,18.17-6a116.88,116.88,0,0,1,11.84-2.83c-.55-.28-1.07-.56-.6-1.08,1.88-2.19,9.89-3.72,6.55-5.93-1,.46-5.86,3.31-6.62,3.18s-.12-.94-1.08-1.11-3.72.61-3.74,0c0-.14,3.15-.84,3.6-1,3.42-1.25,1.42-.37,1.6-1.38.1-.55-.63-.79-.07-1.34A21.76,21.76,0,0,1,122,177l-5.55.71c0-.7,4.22-1.82,6.77-2.13l-.08,0-.52-.29c-.87-.44-2.21-1.1-2-1.4s3.48-1.4,4.43-1.76c-2-.63-10.52,1.54-13.31,2.1a123.94,123.94,0,0,0-13.85,3c-8.05,2.62-11.43,5.39-14.68,8.18.16-.71.32-1.42.49-2.12a8.49,8.49,0,0,1,2-2.23,10.74,10.74,0,0,0-1.63.54c.8-3.08,1.74-6.09,2.75-9.08a111,111,0,0,1,11.2-4.07,49.69,49.69,0,0,0-10.4,1.69q1.56-4.31,3.39-8.46c1.17-.52,2.47-1.07,2.85-1.25,1.16-.73,2.28-2.69,2.87-3.3a2.89,2.89,0,0,1,.25-.24h0c13.69-6.13,9.21-7.08,21.58-10.45a72.35,72.35,0,0,0-11.23,2c-3.31.32-6.83.76-9.78,1.3,4-2.45,2.12-2.79,5.25-5.07-1.16.27-2.31.6-3.38.93a133.52,133.52,0,0,1,8-11.54A45.66,45.66,0,0,1,118,130c-1.35,2.2-2.62,4.45-3.77,6.71,6.58-3.12,8.89-4.94,10.92-7.11,1.68-1.78,6.08-4,7.69-5.46l-1.93-.26c-2.85.07-2.59-.33.9-1.15.62-.78,3.06-2.35,3.86-3.25s.65-2.14,2.89-3.13c2.42-1.25,13.54-2,11.51-2.77-12.61,1.06-20,3-27.35,6.29-.52.26-1,.5-1.45.74-.67,0-1.38,0-2.12.08,2.34-2.33,4.79-4.56,7.31-6.71-.47.71-.92,1.43-1.36,2.16a49.2,49.2,0,0,1,4.79-1.74c3.54-1.12,2.32-.11,6.64-1.67,9.31-3,11.87-6,22.06-6.27,1.46-1,3-1.86,4.47-2.73,8.75.32,13,0,25.2,0,8.75.15,15.69.2,22.69,1-10.21-3.2-17.28-2.59-27.19-3.29-5.43-1.55-7.57-1.76-19-.93,4-.88,11.49-1.68,14.92-2.08,5.84-.73,4.93-.57,4.64-1.82s4.85-2.84,18.26,0c-2.16.41-6.51,2.33,3,4.67,2.61.64,7.67-1.49,8.89-1.42,3.39.06,5.34,1.31,7.68.86,1.13-.2.45-1.25.22-1.88-.54-1.5-4.25-3.54-8.91-5.79a144.81,144.81,0,0,0-25.48-.92c-8,.57-11.47,3.2-15.39,5,1.9-.07,3.81-.1,5.74-.09-3.85,1.69-6.76.65-16.25,2.37-3.15.46-13.22,4.35-7.94,3.73-3.39,1-6.71,2.37-10,3.73-2,.25-5.89.59-10.27,1.27a139.64,139.64,0,0,1,11.89-7.86c7.58-2.65,12.83-4.85,10.53-5.32l-1.13.26a132.62,132.62,0,0,1,15-6.15c7.05-.28,6,1.43,19.46.44,13-.83,14-2.52,12-3.47-3.88.14-7.77.32-11.64.53-2.12-1.09-1.14-2.12,2.31-3A132.75,132.75,0,0,1,213,81.86a136.08,136.08,0,0,1,14.5.8l-.2,0h.39q3.74.41,7.41,1c-7.45.46-13.59,1.17-12.39,2.47,7.76-.19,15.43-.25,22.95-.21a2,2,0,0,0,.4,0q6,1.55,11.71,3.61c-1.89,0-2.83.07-3.14.44s6.19,2.81,10.06,3.32l.51-.85A132,132,0,0,1,289.32,106L286,106c-1.25-.76-2.52-1.51-3.81-2.21.71.75,1.38,1.5,2.06,2.25-11.28.22-23.53.85-36.48,2,13.07-.17,27.3-.07,39,.88q2,2.32,4,4.63a70.61,70.61,0,0,0-15.74,2.11q9.56.38,18.39,1.11c1.16,1.44,2.34,2.87,3.5,4.33-1.09-.62-2.1-1.19-2.85-1.63-5.23,0-4.93.33-10.27-2-2.05.89-4.16,1.82-6.31,2.78,2.39.42,4.76.84,7.1,1.29-.91.52-2.82,1-3.08,1.74-.34,1,1,1.79-.75,2.62-1.47.7-8.6,1.28-.22,3,.57-1.35.21-2.09,5,.05.59.35,1.18.69,1.75,1,2.44,1,2.64,1.29.62.86.48,1.11-1.22,1.89-.68,3,.76,1.64,2.18,1.81,7.19,3.65-6.1.05-9-2-10.41-3.93-.5-.66.9-1.85-2.33-2.41-5.26-.89-1.32,2.33-.54,2.9,1.93,1.42,3.25,3.06,3.22,4.43a110.81,110.81,0,0,0-19.41.16c3.68.79,7.32,1.61,10.89,2.45q-.36.25.45.84c-10.25.83-14.91.84-13.14,5.27,9.35.5,14.16-1.13,19.47-2.3a41.2,41.2,0,0,1,4.11.33c.2,1.1-.27,1.56,1.9,2.68.88.47,1.54.76,2.07,1a104,104,0,0,1-14.81,3.41c-9.94,1.67-36,3.25-9.68,5.55,5.1.48,9.42.79,13.22.95-1.69.52-3.32,1.06-4.76,1.66-3.36,1.36-2,5.36,7.9,7,0-.61.05-1.22.08-1.83,9.29,2.49,17.32,4.8,25.21,5.94-7.71.29-16.45-.65-25.73-.93a214.59,214.59,0,0,0-30.59,1.67,55.75,55.75,0,0,0,11.58,1.35c8.3.2,11,1.09,17.36,3-13.92,1.39-2.21,1.92,2.73,3.29-6,3.31-6.68,4.2-17.82,5l-.58,0h-.08c9.49.45,15.37,2.73,18.81,5.57,9.61-2.24,17.89-1.71,26.88-2.44l.52,0a18.14,18.14,0,0,1-5.45,3.4c-2.05.83-4.39,2.24-7.17,2.81-2.07.42-3.08.7-4,.77h-.59c-1.34,0-3-.54-8-1.69-1.7.17-1.18.93.09,1.84-17.87.38-37.84,1.16-57.4,2.46,8.15,1.2,12.74.62,20.48.69,9.93.09,9.51,0,18.83,1.25,11.77,1.65,17.12,2.29,22.52.13l-2.17-2.14,1.61,0a19.42,19.42,0,0,1,1.65,1c2.42,1.93,4.28,3.8,4.64,5.65s-1.12,3.32-.08,5.24c1.55,2.93,3.9,3,11.44,3.62-2.29,1.82-7.44,2.08-13.35,2.82,6.77,3,4.9,2.37-1,4.47-4.41,1.54-6.5,3.33-9.33,5.28,11.85.65,19.74.23,24.85-2.48,3.13-1.67,4.08-3.74,8.34-4.81.13,1,.94,4.4,1.45,6.45l-.82.19c-5.2,1.08-12,1.44-19.06,1.89-5.21.36-17.42.51-21.19,2-3.08,1.25-1.84,3.24.22,5.1-5.1.78-5.33,1.63-3.23,4a29.83,29.83,0,0,0,6.27-1.55l1,.8h0c4.45-1.23,8.78-2.45,12.94-3.67l6.69,3.3c4.4-.54,8.6-1.25,12.42-2.08q-1.49,2.58-2.87,5.27a23.15,23.15,0,0,1-4.12.19c-1.8-.07-5.09-1.15-6.89-1.06a21.09,21.09,0,0,0-4.11,2,17.63,17.63,0,0,0-3.54,1.18c-3.49-.14-7.07-.28-10.67-.35h0c-11.67-.24-10.11,1.27-16,3.89-6.36,2.91-32.71,6.8-28.49,10.94l10-1.49c-.67.55-5.69,3.51-5,4.12s8.59,2,10.14,2.38c9.87-4,13.06-9.1,22.11-13.28a38.22,38.22,0,0,1,15.55-4.09c6.42-.31,12.72.75,18.1,1.73-.05.12-.1.24-.14.35-1.66,1-3.25,1.89-4.64,2.68-7.58-.46-6.76-.81-12.31.64-3.43.88-6,2.69-8.53,3.79,1.33.14,3,.35,4.76.56a10.84,10.84,0,0,0-2,1.71c4.77.14,7.05,0,2.67,1-4,.92-6.68.81-10.25,2.14-10.37,3.77-.93-1-4.73-2.9a41.45,41.45,0,0,0-12.45,6.05,10.4,10.4,0,0,0-2,2.11c-.93.2-1.87.41-2.84.6-6.62,1.29-9.19,3-11,5-2.22.21-4.44.4-6.21.68a62.85,62.85,0,0,0-14.78,3.74c-2.09-1.13-3.55-1.55-2.71-2.52s4.71-.61,2.6-2.07c-3.1.9-7.41,1.23-11.49,1.67-4.25.46-6.73,1.26-10.4,1.81a26.74,26.74,0,0,1-5.46.41c-4.3-.16-2.27.23-5-.95-3.93-1.72,1.22-2.09-.5-3.46s-6.52.18-9.34.67c-3.88.7-7.93,1.9-12.45,2.14-4.78.26-7.08-.3-10.87.64s-7.31,1.78-10.83,2.6c-.56-1.2-1.9-3.22-1.39-3.91.08-.11,2.34-.93,2.86-1.22,2-1.12,1.64-1,5.78-1,8.33,0,18.55.56,17-3.08,3.19.33,6.42.65,9.67,1-2.68-2.54-2.09-2.45,4-3.38q6.91-1.06,14-2.24c-5.06-.27-10.11-.52-15.09-.76l.5,0s-3.33,0-8.81.11-13.09.26-20.34.9c-.86.07-1.61.22-2.41.32a85,85,0,0,1-10.36,2.26c-1.93.59-3.87,1.18-5.94,1.79A109,109,0,0,1,115,269.84c-2,.11-4,.19-5.86.25.61.17,1.23.34,2,.61a78,78,0,0,1,7.56,4c1.27,1.49-2.92,1.31-3.51,2-1.51,0-1.27.48.72,1.48q2.67,1.47.3,1.65c-.63,1-3.14,1.56-4.45,2.2-1.81-1.27-3-2-3-2.72,0-.56,3.13-.26,1.86-1.12-.62-.39-4.38.21-4.52.48-.45.65,2.38,3.37,3.09,4.31,1.3,1.72.6,2.32,4.8,3.55a23.26,23.26,0,0,0,6.12.77c4,0,5.56-1.45,7.25-2.59,8.46,3.29,4.13-.27,10.13-.1.76,0,2.83,1,3.73,1,3.13.29,6.32.55,9.58.8,1.65,2.76,1.21,2.94-5.75,3.27a34.73,34.73,0,0,1-6.64,0c-5.22-.71-4.22-.65-6.19-2.56-2.19,1.93-2.14,2.87-7,3.41,7.24,1.73,10.78.26,18,1.14-1.9.39-7.81.82-8,1.57-.19.55,3.7,2.34,6.19,3.52l-.68-.3a65.55,65.55,0,0,0-7.54,1.58c-.59,0-.89.09-.74.25a4.72,4.72,0,0,0-1.52.88c4.34,1,6.54,1.27,2.61,1.19-3.54-.09-5.85-.65-8.59-.37-.21,0-.37,0-.57,0l-2.85-2a1.91,1.91,0,0,0-1-1l-.39,0a158.3,158.3,0,0,1-20.72-17.34,102.88,102.88,0,0,0,12.46,19.52,4.65,4.65,0,0,0-.84,1,132.31,132.31,0,0,1-13.63-19.62,10.08,10.08,0,0,0,1.11-.05l-1.37-.4q-3.19-5.62-5.84-11.59c1.08.16,2.19.32,3.37.46a35.8,35.8,0,0,1,4,.67,4.32,4.32,0,0,1,2,2.18c.47,1.32-1.12,1.62-2.21,2.19,5.68,2.06,11.22-.09,6.52-3.13-1.22,0-3.89,0-2.73-.81.77-.55,4-.19,5.93-.21-3.59-2-4-2.37-4.13-3.95-2.52-.39-2.87-.14-2.84.78a9,9,0,0,0,.39,1.14c.84.82.37,1-1.33.66a36.13,36.13,0,0,1-6.18-.52c-1.12-.12-2.18-.25-3.21-.39-.92-2.13-1.79-4.28-2.61-6.47a27.44,27.44,0,0,1,2.94-1.13c1.78-.63,4.64-.87,8.32-1.09l5.59-.35c2.21-.17,4.76-.3,7.39-.46s5.69-.4,8.82-.63c2.26-.16,4.55-.34,6.92-.55a154.28,154.28,0,0,0,24.51-4.44c2.33-.65,4.49-1.29,6.63-1.91a78.72,78.72,0,0,1,11.36-2.46c.86-.12,1.67-.27,2.59-.37,7.81-.8,15.78-1.18,21.54-1.32s9.14-.29,9.14-.29l-.51,0c-1.1,0-4.33-.2-9.4-.41-6.15-.16-15.39-.54-24.94,0a127,127,0,0,0-25.05,4,152.62,152.62,0,0,1-23.36,3.61c-7.87.89-15.44,1.43-21.17,2-1.55.14-3,.31-4.3.5-.29-.06-.79-.12-1.56-.2a49.53,49.53,0,0,0-7.39,0C85.35,252.94,84.55,250.12,83.83,247.25ZM311.58,125.6l-2.1,0a114.16,114.16,0,0,0-8.11-8.06l2.5.29C306.54,120.31,309.13,122.89,311.58,125.6ZM167.23,288.22c3.39-1.73-1-4.87,6.52-5.56,8.19-.73,21.88-.23,31.88-.6q-6.09,2.54-12,4.91c-1.58.62-4,1.21-5,1.95-1.79,1.35-.84.95.19,2.55,2.07,3.15-5.55,4.13-14,4.44-4.82.17-9.1.31-13.06.53-.15-.61,6-1.77,7.1-2.07-9.18-.92-19.92,3.12-24.3,3.89l-2.55-1.06c1.8-1.88,4.15-2.69,8.73-3.88C156.22,291.91,163,290.39,167.23,288.22Zm-21-5.29c-.69,0-2.36,0-4.3,0-.27-2-.87-2.93,3.76-3.62,4.3-.64,8.79-1.33,13.26-2.14,4.95-.9,9.84-1.94,14.8-3.07,3.06-.68,8.88-3.18,11.3-.81,2.72,2.74-7.18,5.67-11.53,6.83-3.71,1-7.85,1.79-11.77,2.58C156.79,282.1,149.62,282.9,146.22,282.93Zm64.45,1.16c3.63-1.11,9.68-2.39,11.2-3.92.84-.83-.21-1.75,1.12-2.59a22.55,22.55,0,0,1,7.62-2.49c5-.31,10.66,1.22,11.55,2.47,1.48,2.07-5,3.9-8.77,5.14a225.67,225.67,0,0,1-36.46,9.24C196.27,288.12,202.42,286.62,210.67,284.09ZM161,304.71a63.9,63.9,0,0,0,10.69-2.12c.6-.16,1.92-1.64,1.62-1.61,1.33-.15,7.53.48,9.36.56-2.1-1.91-2.79-2.06,3.35-2.59,3.89-.33,11.27-.47,13.56-1.35-1.41-.14-3.42-.39-5.51-.63,1.35-.19,2.69-.38,4-.59,3.34-.42,21-4.85,23.26-4.35,1.54-.9,3-2.26,5.16-3.07,3.06-1.13,4-1,10.22-1.12-4.25-2.16-3.95-2.32,1-4.16,4-1.53,9.59-3.15,12.66-4.95,2-1.17,1.41-.76.77-2s-2.46-.89-1.33-2c.44-.44,3.22-1.38,6.08-2.21,2-.11,4-.2,5.86-.23s5.48.13,7.24.3,2.64.25,3.35.32a13.47,13.47,0,0,1-4.43,3c-5.32,1.83-3.54-1.61-3.49-2.56-3.26.49-6.57,1-9.91,1.4,6.46,1.33,7.06,3.41,6.33,5.44a18.78,18.78,0,0,0-4.11.8,32.9,32.9,0,0,0-8.36,3.93l-.27,0c0,.1-.12.19-.17.29-.52.29-1,.57-1.55.81l1-.1c-1.38,1.53-4.16,2.81-5.59,4.36-2.16,2.34-4.13,3.62-9.61,5.42l-1.5.48c-2.07.21-4.29.38-7,.53a6.11,6.11,0,0,1,1.51-2.46c-9.29.66-9.71,2.5-8.49,4.69l-1.58-.23c-2.16-.5-3.15-.34-2.95.45l-1.57,1.11q-2,1.41-4,2.78c4.81,0,9.64,0,14.44,0-.69-.33,1-.68,3.34-1,.84.88,1.55,1.78,1,2.3a11.75,11.75,0,0,1-3.65,1.26l-1.36-.23c-1.49-.24-7.72-1.58-9.43-1.69a32.32,32.32,0,0,0-6.44.56c.05-.42-.65-.53-3.19,0a19.47,19.47,0,0,0-2.78.81c-1.84-.39-3.63-.77-5.12-1.12-2.22.24-5.8.38-7.39.75-4.07.93-3.73.22,0,2.21a34.76,34.76,0,0,0,3.34,1.53l-1.48.57c-.46.18-1,.36-1.46.53a39.31,39.31,0,0,0-5.48-.4c-5.28-.08-3.69,1.11-9.86-.47-1.53.62-6.61,1.61-6.28,2.48.23.72,4,1.29,2.59,1.83a22.91,22.91,0,0,1-4.63.06c-5.07-.19-10.39-1-14.47-1.29a.64.64,0,0,0,.13-.1c.46-.56-1-1.85.31-2.2,2.37-.65,7,1.19,9.52,1,.87,0,.12-1.29.41-1.56.83-.81-.25-.89,3-1.21,4.28-.42,10.32-.49,15.46-.85-3.06-1-15.75.24-19,.36l-2.87.14-.64,0c-.59,0-1.21,0-1.83,0H152c-1.06,0-2.16,0-3.4-.13l-1.29-.15c-1.44-.19-3.66-.51-5.16-.74l-.37-.06c-.62-.1-1-.15-1.08-.18l-.09,0h0C143.18,304.45,154.34,305.5,161,304.71Zm115.13-34.35-.5,0-1.25-1.1C279.24,267.92,278,269.12,276.17,270.36Zm1.52-8.25a8.7,8.7,0,0,0,.91-1.69,15.29,15.29,0,0,1,4.86-.49l-5.15,2.26ZM279.88,277c.22-.1.47-.2.71-.29,1.19.8,2.81,1.61,4.23,2.5a7.49,7.49,0,0,1,1.57,1.34,103,103,0,0,0-12.06,2.58,5,5,0,0,1,.12-1.42l-6.4.58C271.8,280.52,276,278.78,279.88,277Zm13,2.47c0-.16.09-.33.14-.5a.55.55,0,0,0,0-.31v0a1.79,1.79,0,0,1,.68-.47.59.59,0,0,0-.23-.46l.08,0c.56-.27,2.67-1,2.8-1.07h0c.47-.59-1.7-.59-1.51-1.37a5.27,5.27,0,0,1,1.5-1.44,12.37,12.37,0,0,1,1.47-.41,20.79,20.79,0,0,0,2.14-.57c0,.75-2.16,3.2-2.4,3.54,0,.49.07,1,.11,1.52-1.38.87-2.77,1.77-4.14,2.68A3.82,3.82,0,0,1,292.9,279.47Zm11.5-23.8a.42.42,0,0,1,0-.12,1.81,1.81,0,0,1,.15-.33,6.47,6.47,0,0,1,.62-.84c1.19-1.37,4.46-3.13,5.62-2.29-1.42,1.14-3.15,2.95-5,3.64C304.84,256.1,304.32,256.1,304.4,255.67Zm15.08-34.49c-1-.87-.49-2.21-2.08-2.82,2.32-.5,4.49-.62,6.14-1.16l.33-.12q-1.38,2.63-2.92,5.28A15.16,15.16,0,0,1,319.48,221.18Zm-16.2-89.57c-2.64-1.81-9.17-2.52-6.88-4.11q2.63,1.33,5.18,2.69a11.19,11.19,0,0,1,1.81-1.11c1.46,1.77,3,3.58,4.57,5.41A35,35,0,0,1,295,133.36C298.44,133.33,306.88,134,303.28,131.61ZM220.93,317.92c2.32-.09,4.56-.21,6.69-.37l.16.13c-1.75,1-3.48,2-5.2,3.11C219.86,319.86,221.12,319,220.93,317.92Zm0-.74a3.19,3.19,0,0,1,2.19-.65,8,8,0,0,1,3.36.25C224.63,316.9,222.63,317,221,317.18ZM237.77,301c.31-1,2.7-.9,5-1.13,0,.17-.19.42-.74.8a6.62,6.62,0,0,1-.61.35C240.33,301,239.12,301,237.77,301Zm19.66-4.38c2.33.14,3,.78,3.39,1.45-.43.29-1,.7-1.67,1.19q-5-.06-10.08-.19C251.87,298.29,254.66,297.48,257.43,296.64Zm-5.06-11.27,3.15-.3A6.55,6.55,0,0,1,252.37,285.37Zm-.73,18.37a21,21,0,0,1-2,.76,13,13,0,0,1,1.64-1.05ZM257,311c.72-.36,1.48-.76,2.21-1.16l1.92,1.51-.78,1.2q-3.42.18-7.12.07A40.28,40.28,0,0,0,257,311Zm11-12.47c-.68-1.05-.46-2.13,1.52-3.66a26.29,26.29,0,0,1,3.64-2.17c0,.19-.05.37-.07.55a6.55,6.55,0,0,0,.51,2,39.18,39.18,0,0,0-3.12,3.19A16.79,16.79,0,0,1,267.92,298.49Zm-33.83,35.88-2.57.37a48.48,48.48,0,0,1-6.09.67c-1.56,0-2.4,0-2.32-.18s.07-.07.16-.11a5.24,5.24,0,0,1,1-.36,34.11,34.11,0,0,1,8.51-.56A10.1,10.1,0,0,1,234.09,334.37Zm-13,6c-.56,0-1.14,0-1.76-.07l-.67,0c-.87,0-1.84-.07-3-.06s-3.13.06-5.08.11l-4.16.1.33.07a31.57,31.57,0,0,1-3.69-.08h-.47c6.68-.29,11.52-.44,15.74-.44h1.9c1.24,0,2.4,0,3.25.05.64,0,.8.07,1.75.07l1.22,0c.82,0,1.72,0,1.9,0s.1,0,.1,0a14.67,14.67,0,0,1-4.35.42C223.08,340.48,222.15,340.37,221.14,340.34Zm-39.1-.61h-1.43a30.37,30.37,0,0,1-4.59-.08c0-.09.11-.15.39-.2a21.11,21.11,0,0,1,2.89-.15c1,0,2,0,3.08,0s2.07.07,2.94.12l1.46.09a7,7,0,0,1,.8.09,9.32,9.32,0,0,1-2.09.15C184.34,339.79,183,339.73,182,339.73Zm159.57-96.1c-.41.14-.8.26-1,.37-.42.22-1,.76-1.58,1.08s-1.11.43-1.42-.18c.61-1.12,4.13-4.1,5.36-3.62a.53.53,0,0,1,.15.11.28.28,0,0,1,.09.07,1.14,1.14,0,0,1,.17.77C343.41,242.9,342.45,243.32,341.61,243.63ZM320,160.93c-2.53-1.82-5.19-3.64-7.76-5.45,2.3-.48,4.47-.91,6.58-1.32A60.88,60.88,0,0,1,320,160.93ZM306.23,298a42.11,42.11,0,0,1,4.36-2.62c.49-.27,1-.52,1.5-.78-.7,1-1.42,1.93-2.14,2.87-.71.61-1.36,1.22-2,1.67-.89.66-1.85,2-2.79,2.34-2.57,1-3.86-.6-3.3-1.14a4.27,4.27,0,0,1,1-.45c.64-.24,1.42-.49,1.75-.67a4.39,4.39,0,0,0,.52-.32C305.58,298.64,305.79,298.37,306.23,298Zm16.34-155.38c-.09-.15-.19-.31-.3-.47.3.16.63.32,1,.49Zm-2.12-3.16a.1.1,0,0,1,0-.05h0Zm-2.94,10c-2.27.6-4.29,1.37-6.64,2-1.65-.87-3.18-1.74-4.51-2.62a63,63,0,0,1,10.92,0C317.35,149.11,317.44,149.31,317.51,149.52Zm2.76,13.56c.14,1.5.25,3,.33,4.54-1.14-.46-2.22-.92-3-1.3-2.43-1.29-3.55-2.64-6.38-4a95.34,95.34,0,0,0-11.35-4.3c1.22-.19,2.43-.42,3.64-.66C308.76,159.25,315.16,161.44,320.27,163.08Zm1.37,32-3,0,.37-.27c1.33-1,1.52-2.19,2.39-3.21C321.45,192.74,321.54,193.9,321.64,195.08Zm.12,1.2c.09.86.18,1.72.29,2.59-9.18-.25-8.65-.75-5.4-2.57C318.5,196.23,320.17,196.23,321.76,196.28Zm-103.6,127.3c-1.87-.4-4.29-1.27-5.22-1.54,2.48.06,5,.1,7.43.14ZM345.61,205.32c-.13-1.28-.25-2.57-.42-3.84-.17-1.54-.36-3.08-.57-4.6l.24-.21c.37,2.69.65,5.42.86,8.15C345.68,205,345.65,205.15,345.61,205.32Zm-1.18-9.72a137.45,137.45,0,0,0-2.86-14.24l.21-.19a132.09,132.09,0,0,1,2.94,14.4ZM339,172.54c-.33-1-.66-2-1-2.94l.15-.21c.38,1,.71,2.1,1.06,3.15Zm-3.1-8.83h-.27c-.83-1.94-1.74-3.85-2.69-5.73l.45.36.17.14Q334.75,161.07,335.86,163.71Zm-7.5-13.81c-.53-.85-1.06-1.72-1.62-2.55.35.09.7.2,1,.27.46.78.91,1.57,1.35,2.35Zm-10.62-14.19-.18-.24c1,.32,1.91.64,2.85,1,.33.45.63.89.95,1.34C320.18,137.09,319,136.4,317.74,135.71Zm-1.42-1.91c-.81-1.06-1.66-2.11-2.5-3.14l2.38.32c.69.85,1.36,1.72,2,2.59Zm-2.6-3.27c-1.17-1.43-2.35-2.82-3.57-4.18l2.3.25c1.05,1.18,2.1,2.37,3.11,3.59C315,130.28,314.35,130.39,313.72,130.53Zm-3.88,6.14.61.7a35.63,35.63,0,0,1,3.4,4.55c-5.94-.68-12.79-1.67-20.06-2.45l-.54-.39C296.66,139.82,304.52,138,309.84,136.67Zm-12.79,7.72H297c-2.63-.09-3.3.78-6.35-.4A42.08,42.08,0,0,1,297.05,144.39Zm10.52,22.78c3.65,2.47-2,2.47-6,2.65-.81-1.24-1.61-2.47-2.43-3.71-2.26-.37-3.53,1.37-4.31,1.86-1.24-1.27-2.51-2.52-3.79-3.77C296.9,164.75,304.28,164.89,307.57,167.17Zm2.72,4.87c.75.09,1.5.18,2.26.25l1.56-.37c1.43.45,2.83.92,4.18,1.38.87.15,1.71.25,2.54.36,0,.71,0,1.42.05,2.14-4.08.19-4.83.06-5.1,2-.08.54-.12,1.06-.15,1.57a44.21,44.21,0,0,1-7.85,1c-3.42.1-3.15.18-5.19-.44l-.87-1.85q-2.62-.74-5.36-1.47c2.55-.75,5-1.48,7.43-2.17-2.6-.32-5.28-.64-8-.94l1.8-.24C301.93,173.06,308.65,172.75,310.29,172Zm-5.35,9.65c1.31,0,7.6-.26,10.59-.15,0,.32-.09.65-.15,1-2.56.29-6.72.49-7.35.51-9.11.22-20.53.94-24.52-3.07C286.73,182.52,299.72,181.69,304.94,181.69Zm9.22,3.33a8.87,8.87,0,0,1-.6.68c-5.34.86-11.8,1-18.26,1.8a34.52,34.52,0,0,1-5.4-.3C295.48,184.08,306.83,184.14,314.16,185Zm8.49,18.67c-3.56,2.27-6.57,4.12-10.4,6.41C308.57,205.19,310.93,204.14,322.65,203.69Zm-39,84.34a3.24,3.24,0,0,1,1.07-1.49,13.21,13.21,0,0,1,2.53-1.48Q285.41,286.49,283.64,288Zm1.25-3.75-.37.16a10.56,10.56,0,0,1,1.14-.72c.27-.15.55-.3.81-.46A11.1,11.1,0,0,1,284.89,284.28Zm-144.24,21.8a1.63,1.63,0,0,0,.27.19c.37.23,1.05.6,1.63.91l.73.4c0,.24-5.29.73-6.38.62l-1.28-.76a41.08,41.08,0,0,1,5-1.36Zm-13.31-3.85-1.53-1a21.59,21.59,0,0,1,4.44.57Zm-1.78,13c.26-.23.08-.57-.81-1.11-.14-.09-.31-.17-.47-.26l1.07-.14c.82.74,1.64,1.49,2.48,2.22h-.4l-1,0ZM134,321q4.72,3.65,9.77,7c-.3.06-.57.12-.8.19Q137.82,325,133,321.31C133.34,321.23,133.69,321.14,134,321Zm10.14,7.9,1.11,0c.74.47,1.51.94,2.26,1.4l-.76.06C145.92,329.94,145,329.46,144.18,328.94ZM294.34,109.7c1.86,1.44,3.69,2.93,5.46,4.47-.93-.13-1.85-.25-2.75-.34-1.94-1.57-3.92-3.09-6-4.5h.12Zm-161.63-.82c3.69-.49,7.37-1.11,10.92-1.92-3.44,1.41-6.87,2.89-10.36,4.19-1.58.59-4,1.25-5.85,2Q130,110.94,132.71,108.88Zm169.48,134-.85,0,.33-.07ZM87.25,256.56c1.6,0,3.33,0,5.09-.1a15.06,15.06,0,0,0-4.73,1.65,4.91,4.91,0,0,0-.44.31c-.21-.62-.43-1.23-.63-1.85Z"/><path class="cls-22" d="M194.1,190.19H170V163.72c16.66-.93,26.29-6.48,29.25-18.51H238V274.79H194.1Z"/></g></g></svg>