<svg xmlns="http://www.w3.org/2000/svg" xmlns:xlink="http://www.w3.org/1999/xlink" viewBox="0 0 420 420"><defs><style>.cls-1{mask:url(#mask);filter:url(#luminosity-noclip-3);}.cls-10,.cls-2,.cls-4{mix-blend-mode:multiply;}.cls-2{fill:url(#linear-gradient);}.cls-3{mask:url(#mask-2);filter:url(#luminosity-noclip-4);}.cls-4{fill:url(#linear-gradient-2);}.cls-5{isolation:isolate;}.cls-6{mask:url(#mask-3);}.cls-7{fill:url(#linear-gradient-3);}.cls-8{mask:url(#mask-4);}.cls-9{fill:url(#linear-gradient-4);}.cls-10{opacity:0.43;fill:url(#linear-gradient-5);}.cls-11{fill:url(#linear-gradient-6);}.cls-12{mix-blend-mode:hard-light;}.cls-13{fill:#28494c;}.cls-14{fill:#fff;}.cls-15{filter:url(#luminosity-noclip-2);}.cls-16{filter:url(#luminosity-noclip);}</style><filter id="luminosity-noclip" x="30" y="-8402" width="360" height="32766" filterUnits="userSpaceOnUse" color-interpolation-filters="sRGB"><feFlood flood-color="#fff" result="bg"/><feBlend in="SourceGraphic" in2="bg"/></filter><mask id="mask" x="30" y="-8402" width="360" height="32766" maskUnits="userSpaceOnUse"><g class="cls-16"/></mask><linearGradient id="linear-gradient" x1="210" y1="-65.68" x2="210" y2="444.11" gradientUnits="userSpaceOnUse"><stop offset="0"/><stop offset="1" stop-color="#fff"/></linearGradient><filter id="luminosity-noclip-2" x="55.98" y="-8402" width="308.04" height="32766" filterUnits="userSpaceOnUse" color-interpolation-filters="sRGB"><feFlood flood-color="#fff" result="bg"/><feBlend in="SourceGraphic" in2="bg"/></filter><mask id="mask-2" x="55.98" y="-8402" width="308.04" height="32766" maskUnits="userSpaceOnUse"><g class="cls-15"/></mask><linearGradient id="linear-gradient-2" x1="210" y1="124.38" x2="210" y2="419.4" gradientUnits="userSpaceOnUse"><stop offset="0"/><stop offset="0.83" stop-color="#fff"/></linearGradient><filter id="luminosity-noclip-3" x="30" y="38.02" width="360" height="359.96" filterUnits="userSpaceOnUse" color-interpolation-filters="sRGB"><feFlood flood-color="#fff" result="bg"/><feBlend in="SourceGraphic" in2="bg"/></filter><mask id="mask-3" x="30" y="38.02" width="360" height="359.96" maskUnits="userSpaceOnUse"><g class="cls-1"><path class="cls-2" d="M390,218a180,180,0,1,1-360,0c0-3.26.08-6.47.29-9.68a180,180,0,0,1,359.42,0C389.92,211.51,390,214.72,390,218Z"/></g></mask><linearGradient id="linear-gradient-3" x1="210" y1="-65.68" x2="210" y2="444.11" gradientUnits="userSpaceOnUse"><stop offset="0" stop-color="#2e64b0"/><stop offset="1" stop-color="#003d3f" stop-opacity="0.4"/></linearGradient><filter id="luminosity-noclip-4" x="55.98" y="68" width="308.04" height="308" filterUnits="userSpaceOnUse" color-interpolation-filters="sRGB"><feFlood flood-color="#fff" result="bg"/><feBlend in="SourceGraphic" in2="bg"/></filter><mask id="mask-4" x="55.98" y="68" width="308.04" height="308" maskUnits="userSpaceOnUse"><g class="cls-3"><path class="cls-4" d="M364,222a154,154,0,1,1-308,0c0-2.78.07-5.53.25-8.28a154,154,0,0,1,307.54,0C364,216.45,364,219.2,364,222Z"/></g></mask><linearGradient id="linear-gradient-4" x1="210" y1="124.38" x2="210" y2="419.4" gradientUnits="userSpaceOnUse"><stop offset="0" stop-color="#2e64b0"/><stop offset="0.83" stop-color="#7ce6a1"/></linearGradient><linearGradient id="linear-gradient-5" x1="259.88" y1="143.17" x2="259.88" y2="381.12" xlink:href="#linear-gradient-4"/><linearGradient id="linear-gradient-6" x1="210" y1="132.69" x2="210" y2="405.63" xlink:href="#linear-gradient-4"/></defs><g class="cls-5"><g id="Layer_1" data-name="Layer 1"><g class="cls-6"><path class="cls-7" d="M390,218a180,180,0,1,1-360,0c0-3.26.08-6.47.29-9.68a180,180,0,0,1,359.42,0C389.92,211.51,390,214.72,390,218Z"/></g><g class="cls-8"><path class="cls-9" d="M364,222a154,154,0,1,1-308,0c0-2.78.07-5.53.25-8.28a154,154,0,0,1,307.54,0C364,216.45,364,219.2,364,222Z"/></g><path class="cls-10" d="M347,218a137,137,0,0,1-85.4,127l-7.94,1c-9.25,1.18-17.57-4.26-18.59-12.14l-.22-1.84c-1.37-10.55-12.49-17.82-24.85-16.23a26.22,26.22,0,0,1-3.4.22c-11,0-20.24-6.9-21.48-16.46l-1.87-14.71c-1.37-10.55,7.56-20.37,19.95-21.95l13.57-1.75c12.39-1.59,21.32-11.44,19.95-22l-.13-1c-1.33-10.58-12.48-17.83-24.84-16.24l-13.57,1.72c-12.39,1.59-23.51-5.66-24.87-16.21l-.48-3.9c-1.37-10.55,7.56-20.4,19.95-22l57.35-7.34c9.24-1.21,15.92-8.55,14.9-16.46-.89-7.15-7.85-12.29-16.08-12.29a21.7,21.7,0,0,0-2.51.16l-25.35,3.27c-12.39,1.59-23.51-5.69-24.88-16.24l-.66-5.21c-1.34-10.54,7.59-20.39,20-22l60.08-7.72a138,138,0,0,1,41.53,34.91,136.31,136.31,0,0,1,29.64,78C347,213.06,347,215.51,347,218Z"/><path class="cls-11" d="M352.49,223a142.49,142.49,0,1,1-285,0c0-2.57.06-5.12.23-7.66a142.47,142.47,0,0,1,284.52,0C352.43,217.86,352.49,220.41,352.49,223Z"/><g class="cls-12"><path class="cls-13" d="M210,81.06C131.73,81.06,68.06,144.73,68.06,223S131.73,364.94,210,364.94,351.94,301.26,351.94,223,288.27,81.06,210,81.06Zm0,4.28A137.64,137.64,0,0,1,262.61,96,134.68,134.68,0,0,1,307,126a136.91,136.91,0,0,1,29.2,44.72A133.76,133.76,0,0,1,345.52,223c-.73-35.51-15.69-70.18-40.86-94.66a137.15,137.15,0,0,0-43.54-28.76c-1.29-.53-2.61-1-3.92-1.5a3.64,3.64,0,0,1,.14.47,2.69,2.69,0,0,1-1.06,2.61,6.53,6.53,0,0,1-4.62.72,18.41,18.41,0,0,1-7.8-3.37,14.45,14.45,0,0,1-3.05-3,6.83,6.83,0,0,1-1.26-2.7,136.82,136.82,0,0,0-57-.46c.31,0,.61-.12.93-.15a5.71,5.71,0,0,1,2.95.38,2,2,0,0,1,1.15,1.58,3.37,3.37,0,0,1-.3,1.7,8.45,8.45,0,0,1-1.7,2.4,20.28,20.28,0,0,1-4.46,3.25A30.61,30.61,0,0,1,170.83,105a16.9,16.9,0,0,1-5.45,0,6,6,0,0,1-2.55-1.13,2.14,2.14,0,0,1-.58-2.55,2,2,0,0,0,.88,2.15,5.36,5.36,0,0,0,2.38.62,18.9,18.9,0,0,0,5.07-.5,36.87,36.87,0,0,0,9.6-3.62A19.44,19.44,0,0,0,184.3,97a6.68,6.68,0,0,0,1.44-1.8,2,2,0,0,0,.24-.85.47.47,0,0,0-.3-.48,4.78,4.78,0,0,0-2.21-.43,22.43,22.43,0,0,0-2.58.1c-1.74.11-3.48.41-5.24.63.9-.35,1.83-.64,2.76-.91a131.06,131.06,0,0,0-19.53,6.28,137.16,137.16,0,0,0-43.55,28.75C90.17,152.82,75.21,187.49,74.48,223a133.59,133.59,0,0,1,9.34-52.27A137,137,0,0,1,113,126a134.76,134.76,0,0,1,44.38-30A137.65,137.65,0,0,1,210,85.34ZM324.93,283.7a7.9,7.9,0,0,0,1.18-.91,18.6,18.6,0,0,0,2.05-2.2,32.79,32.79,0,0,0,3.35-5,11.16,11.16,0,0,0,1.12-2.67,1.61,1.61,0,0,0,0-.94,1.53,1.53,0,0,0-.73.3,40.5,40.5,0,0,0-4.45,4.11,20.49,20.49,0,0,1,3.89-4.88,3.53,3.53,0,0,1,.76-.48,1.19,1.19,0,0,1,1.27.15,1.52,1.52,0,0,1,.45,1.08,4.27,4.27,0,0,1-.07.9,11.92,11.92,0,0,1-1.17,3,22.25,22.25,0,0,1-3.74,5,17.88,17.88,0,0,1-2.39,2,7.93,7.93,0,0,1-1.42.73c-.45.17-1.18.3-1.47-.22C324,284.18,324.52,283.91,324.93,283.7Zm-15.56-18.38a4.5,4.5,0,0,1,.35,2.55,13.92,13.92,0,0,1-2.58,5.9,17.31,17.31,0,0,1-4.54,4.49,10.41,10.41,0,0,1-2.93,1.35,4.65,4.65,0,0,1-3.15-.17c2.09.23,3.81-1,5.33-2.21a23,23,0,0,0,3.95-4.4,16.88,16.88,0,0,0,2.67-5.17,3.63,3.63,0,0,0-.22-2.62,5.11,5.11,0,0,0-2.19-1.92c-3-1-6.26-.37-9.35,4.91-2.23,3.82-2.87,7.52-1.94,9.67a110.48,110.48,0,0,1-15.39,8.95A16.11,16.11,0,0,1,278,291a28.21,28.21,0,0,1-4.47,6.53,27.67,27.67,0,0,1-13.4,8.05,19.69,19.69,0,0,1-7.87.24,14.54,14.54,0,0,1-6.95-3.41c4.27,3,9.74,3.33,14.5,1.95a27.43,27.43,0,0,0,12.52-7.94c3.38-3.63,6.22-8.19,5.9-13.15a13.94,13.94,0,0,0-2.54-6.89,30.49,30.49,0,0,0-5.07-5.72c-7.9-6.3-16.59-8.53-24.78,1.75-6.64,8.32-8.05,18.72-4.14,25.72-5,.81-10.16,1.42-15.6,1.83a27,27,0,0,1-1.94,2.44,20.89,20.89,0,0,1-10.41,6.2,15.34,15.34,0,0,1-6.11.13,11,11,0,0,1-5.33-2.71,13.18,13.18,0,0,0,11.12,1.36,21.77,21.77,0,0,0,9.53-6.1c2.55-2.79,4.72-6.22,4.53-10a10.65,10.65,0,0,0-1.88-5.27,23.38,23.38,0,0,0-3.83-4.45c-6.07-4.85-12.76-6.56-19.06,1.34-4.37,5.48-5.79,12.13-4.23,17.31a176.64,176.64,0,0,1-40.35-6.42,8.8,8.8,0,0,1-5,4.5c-2.59.9-5.31.34-7.69-.27-4.65-1.42-9.47-2.19-14.29-3.22a38,38,0,0,1-7.14-2.15,8.67,8.67,0,0,1-5-5.28,8.61,8.61,0,0,0,5.33,4.54,37.88,37.88,0,0,0,7.07,1.65,131.38,131.38,0,0,1,14.5,2.89c2.3.64,4.62,1.14,6.77.43a8.14,8.14,0,0,0,4.73-4.55,18.39,18.39,0,0,0,1.54-6.93,23.36,23.36,0,0,0-.69-7.24c-2.63-7.31-8.41-11.94-21.48-7.25-6,2.15-10.76,4.25-13.93,6.61-2-1.35-3.84-2.74-5.66-4.17a1.1,1.1,0,0,1-.14.09,7.14,7.14,0,0,1-6.45,0,9.73,9.73,0,0,1-4.41-4.28,13.4,13.4,0,0,0,4.89,3.09,6.49,6.49,0,0,0,5.18-.2,3.5,3.5,0,0,0,1.65-1.71,4.45,4.45,0,0,0,.08-2.52,24.5,24.5,0,0,0-2.26-5.41c-3-4-6.26-6.63-9.34-4.45a5.57,5.57,0,0,0-2.14,3.24,100.86,100.86,0,0,1-23.47-49.08,6.32,6.32,0,0,0,4.56,1.07,7.9,7.9,0,0,0,6.51-6.41c-2.24,1.86-4.77,2.9-6.66,2.61a2.75,2.75,0,0,1-1.89-1.13,4.3,4.3,0,0,1-.48-2.34,20.27,20.27,0,0,1,.44-3.51l.2-.94c.07-.26.09-.46.17-.69a6,6,0,0,1,.62-1.28,6.77,6.77,0,0,1,6.34-2.67,5.58,5.58,0,0,0-4.25-1.72,7.75,7.75,0,0,0-3.7,1,135.5,135.5,0,0,1,30.81-48.79c5.29-.53,11.67-4.34,15.62-9.67,1.59-2.63,2.94-5.58,2.76-8.54a5.37,5.37,0,0,0-1.69-3.77,6.29,6.29,0,0,0-3.92-1.44c-2.92-.22-5.71,1.36-8.07,3.23a51.72,51.72,0,0,0-6.54,6.53,33.73,33.73,0,0,1,5.94-7.24c2.32-2.08,5.34-3.86,8.73-3.73a7.34,7.34,0,0,1,4.6,1.84,6,6,0,0,1,1.88,4.54,10,10,0,0,1-.25,2.14,134.62,134.62,0,0,1,56.36-22.66c.62,3.08,4.47,5.1,8.91,4.55a13,13,0,0,0,4.81-2.33,5.82,5.82,0,0,0,2.39-4.2,3,3,0,0,0-.71-2.11,4.75,4.75,0,0,0-2.13-1.13,24.46,24.46,0,0,0-5.4-.46,14.12,14.12,0,0,1,5.58-.45,5.09,5.09,0,0,1,2.76,1.24,4,4,0,0,1,1.11,2.93,2.58,2.58,0,0,1,0,.39c1.28,0,2.54-.09,3.82-.09A139.14,139.14,0,0,1,262,117.1c0,.14,0,.27,0,.42.56,5.77,7.28,12.5,15,15,3,.67,6.23,1,9-.08a5.35,5.35,0,0,0,3-2.8,6.15,6.15,0,0,0,.13-4.17c-.72-2.84-3.09-5-5.6-6.64a51.1,51.1,0,0,0-8.27-4.14,33.38,33.38,0,0,1,8.75,3.35c2.71,1.54,5.34,3.84,6.29,7.11a7.32,7.32,0,0,1-.29,4.94,5.45,5.45,0,0,1-.93,1.39,139.67,139.67,0,0,1,14.58,11.37c-1.26-.19-1.95.44-1.79,2.24.39,4.21,5.1,11,10.51,15.1a27.75,27.75,0,0,0,3.18,1.69,8.25,8.25,0,0,0,3.31.88,1.73,1.73,0,0,0,2-1.58,6.54,6.54,0,0,0-.55-3.21,21.28,21.28,0,0,0-4-5.73c-1.62-1.76-3.39-3.39-5.15-5.06a37.93,37.93,0,0,1,5.81,4.4,17.92,17.92,0,0,1,4.45,5.94,7.36,7.36,0,0,1,.56,3.86,3.4,3.4,0,0,1-.43,1.1,105.93,105.93,0,0,1,15.28,29c-2.59-2-5.26-2.87-7.84-1.42-4,2.24-4.16,7.9-.35,12.64a14.37,14.37,0,0,0,9.25,5.34C334.31,227.94,325.66,248.58,309.37,265.32ZM184.53,332.79a19.92,19.92,0,0,1,5.95,1.1,21,21,0,0,1,5.52,2.66,7.14,7.14,0,0,1,1.21,1.07,2.47,2.47,0,0,1,.7,1.68,6.29,6.29,0,0,1-1.18,3.05,10.89,10.89,0,0,1-5.08,3.68c-4,1.48-8.25,1.15-12.21.42a27.82,27.82,0,0,1-11.18-4.63,36.32,36.32,0,0,0,11.36,3.61,23.36,23.36,0,0,0,11.64-.47,9.72,9.72,0,0,0,4.62-3.22,5.43,5.43,0,0,0,1-2.49c.05-.64-.72-1.45-1.43-2a25.91,25.91,0,0,0-11-4.44ZM203,350.22a5.48,5.48,0,0,1,3.11-2.6,5.71,5.71,0,0,0-2.35,2.85c-.29,1.1.63,1.92,1.73,2.36a16.15,16.15,0,0,0,7.38.68,19.8,19.8,0,0,0,7.22-2,3.86,3.86,0,0,0,1.32-1c.26-.35.2-.74-.22-1.19a11.39,11.39,0,0,0-3.24-2,9.66,9.66,0,0,1,3.78,1.45,2.26,2.26,0,0,1,.73,1,1.8,1.8,0,0,1-.12,1.35,4.48,4.48,0,0,1-1.57,1.58,17.45,17.45,0,0,1-7.73,2.59,14.89,14.89,0,0,1-8.11-1.16,4.6,4.6,0,0,1-1.7-1.45A2.51,2.51,0,0,1,203,350.22Zm67.72-16.79a13,13,0,0,1,7-1.53,2.38,2.38,0,0,1,1.94,1,3.93,3.93,0,0,1,.3,2,6.39,6.39,0,0,1-1.6,3.5,13.45,13.45,0,0,1-6.32,3.78,15.5,15.5,0,0,1-7.18.61,23.38,23.38,0,0,0,6.85-1.61,14.17,14.17,0,0,0,5.77-3.54,5.7,5.7,0,0,0,1.42-2.86,3,3,0,0,0-.14-1.47c0-.21-.64-.47-1.16-.55a12.9,12.9,0,0,0-3.46,0A13.33,13.33,0,0,0,270.67,333.43Zm34.93-18.85a30.89,30.89,0,0,1-4.67,4.82c-3.41,2.81-7.25,5.32-11.56,6.37A39.94,39.94,0,0,0,300,318.38c3.16-2.9,6-6.24,7.39-10.22a10.74,10.74,0,0,0,.35-6.06,5.68,5.68,0,0,0-1.38-2.53c-.43-.43-1.64-.35-2.6-.12a23.51,23.51,0,0,0-5.92,2.49,24.44,24.44,0,0,0-5.29,3.81,21.81,21.81,0,0,1,4.93-4.4,23.17,23.17,0,0,1,6-3,7.63,7.63,0,0,1,1.75-.31,2.79,2.79,0,0,1,2,.54,6.85,6.85,0,0,1,1.85,3.11,11.67,11.67,0,0,1-.26,6.9A19.19,19.19,0,0,1,305.6,314.58ZM100.47,300.49a35.26,35.26,0,0,0,7,8.61,21.72,21.72,0,0,0,9.14,5.67,8.94,8.94,0,0,0,5.15,0,5,5,0,0,0,2-1.32c.32-.35.2-1.38,0-2.18a20.4,20.4,0,0,0-2.46-4.89,21.17,21.17,0,0,0-3.55-4.3A18.27,18.27,0,0,1,121.8,306a19.69,19.69,0,0,1,2.92,4.94,6.83,6.83,0,0,1,.38,1.48,2.48,2.48,0,0,1-.35,1.76,6.07,6.07,0,0,1-2.57,1.79,10.34,10.34,0,0,1-5.93.2c-3.88-.93-7-3.47-9.69-6.12A25,25,0,0,1,100.47,300.49Zm241.15-48.75a34.75,34.75,0,0,1-7.34,10.16,49.85,49.85,0,0,0,6.3-10.66A34,34,0,0,0,344,239.55a10.9,10.9,0,0,0-1-5.74,3.81,3.81,0,0,0-1.82-1.82,1.73,1.73,0,0,0-1,.36,8.91,8.91,0,0,0-1.16.91,30,30,0,0,0-3.93,4.73,30.55,30.55,0,0,0-3.1,5.38,29.71,29.71,0,0,1,6.36-10.8,9.42,9.42,0,0,1,1.25-1.08,2.5,2.5,0,0,1,1.84-.6,4.66,4.66,0,0,1,2.63,2.35,12,12,0,0,1,1.22,6.39C345.08,244,343.43,248,341.62,251.74Z"/></g><path class="cls-14" d="M155.9,228.25h44c.57,14.31,4.33,19.2,10.17,19.2,4.89,0,7.9-3.76,7.9-12,0-8.84-3.2-12.42-11.86-12.42h-9V195.7h9c8.28,0,11.67-3.2,11.67-11.67,0-6.59-2.64-11.1-7.9-11.1-6.21,0-9.41,5.08-9.79,17.31H156.46c1.51-30.49,21.45-48.74,54.76-48.74,32.56,0,51.19,14.87,51.19,37.83,0,14.11-7.53,24.46-21.08,29,14.87,4.51,22.77,15.05,22.77,30.29,0,24.28-19.19,39.9-52.69,39.9C176.22,278.5,156.84,261.94,155.9,228.25Z"/></g></g></svg>