<svg xmlns="http://www.w3.org/2000/svg" xmlns:xlink="http://www.w3.org/1999/xlink" viewBox="0 0 420 420"><defs><style>.cls-1{mask:url(#mask);filter:url(#luminosity-noclip-3);}.cls-11,.cls-2,.cls-4{mix-blend-mode:multiply;}.cls-2{fill:url(#linear-gradient);}.cls-3{mask:url(#mask-2);filter:url(#luminosity-noclip-4);}.cls-4{fill:url(#linear-gradient-2);}.cls-5{isolation:isolate;}.cls-6{mask:url(#mask-3);}.cls-7{opacity:0.46;fill:url(#linear-gradient-3);}.cls-8{mask:url(#mask-4);}.cls-9{fill:url(#linear-gradient-4);}.cls-10{fill:url(#linear-gradient-5);}.cls-11{opacity:0.43;fill:url(#linear-gradient-6);}.cls-12{mix-blend-mode:overlay;fill:url(#linear-gradient-7);}.cls-13{mix-blend-mode:darken;opacity:0.7;}.cls-14{fill:#0f1b49;fill-rule:evenodd;}.cls-15{fill:#fff;}.cls-16{filter:url(#luminosity-noclip-2);}.cls-17{filter:url(#luminosity-noclip);}</style><filter id="luminosity-noclip" x="28.95" y="-8402" width="362.1" height="32766" filterUnits="userSpaceOnUse" color-interpolation-filters="sRGB"><feFlood flood-color="#fff" result="bg"/><feBlend in="SourceGraphic" in2="bg"/></filter><mask id="mask" x="28.95" y="-8402" width="362.1" height="32766" maskUnits="userSpaceOnUse"><g class="cls-17"/></mask><linearGradient id="linear-gradient" x1="228.08" y1="387.95" x2="190.45" y2="17.53" gradientUnits="userSpaceOnUse"><stop offset="0" stop-color="#fff"/><stop offset="1"/></linearGradient><filter id="luminosity-noclip-2" x="61.96" y="-8402" width="296.08" height="32766" filterUnits="userSpaceOnUse" color-interpolation-filters="sRGB"><feFlood flood-color="#fff" result="bg"/><feBlend in="SourceGraphic" in2="bg"/></filter><mask id="mask-2" x="61.96" y="-8402" width="296.08" height="32766" maskUnits="userSpaceOnUse"><g class="cls-16"/></mask><linearGradient id="linear-gradient-2" x1="224.79" y1="355.51" x2="194.01" y2="52.62" gradientUnits="userSpaceOnUse"><stop offset="0.03" stop-color="#fff"/><stop offset="1"/></linearGradient><filter id="luminosity-noclip-3" x="28.95" y="29" width="362.1" height="362" filterUnits="userSpaceOnUse" color-interpolation-filters="sRGB"><feFlood flood-color="#fff" result="bg"/><feBlend in="SourceGraphic" in2="bg"/></filter><mask id="mask-3" x="28.95" y="29" width="362.1" height="362" maskUnits="userSpaceOnUse"><g class="cls-1"><path class="cls-2" d="M391.05,210c0,2,0,4-.1,5.9C387.86,313.15,308,391,210,391A180.81,180.81,0,0,1,29,210C29,110.05,110,29,210,29A181.26,181.26,0,0,1,373.25,131.52c.58,1.35,1.16,2.51,1.55,3.48.29.58.48,1.06.68,1.55.48,1.06.87,2,1.35,3a.57.57,0,0,0,.1.39H377A181.59,181.59,0,0,1,391.05,210Z"/></g></mask><linearGradient id="linear-gradient-3" x1="228.08" y1="387.95" x2="190.45" y2="17.53" gradientUnits="userSpaceOnUse"><stop offset="0" stop-color="#0b4245"/><stop offset="1" stop-color="#060712"/></linearGradient><filter id="luminosity-noclip-4" x="61.96" y="62" width="296.08" height="296" filterUnits="userSpaceOnUse" color-interpolation-filters="sRGB"><feFlood flood-color="#fff" result="bg"/><feBlend in="SourceGraphic" in2="bg"/></filter><mask id="mask-4" x="61.96" y="62" width="296.08" height="296" maskUnits="userSpaceOnUse"><g class="cls-3"><path class="cls-4" d="M358,210c0,1.66,0,3.24-.08,4.82a147.78,147.78,0,1,1-14.47-68.95c.47,1.1.95,2,1.26,2.84.24.48.4.87.56,1.27.39.87.71,1.66,1.1,2.45a.47.47,0,0,0,.08.32h.08A148.44,148.44,0,0,1,358,210Z"/></g></mask><linearGradient id="linear-gradient-4" x1="224.79" y1="355.51" x2="194.01" y2="52.62" gradientUnits="userSpaceOnUse"><stop offset="0.03" stop-color="#3c707f"/><stop offset="1" stop-color="#060712"/></linearGradient><linearGradient id="linear-gradient-5" x1="210" y1="126.99" x2="210" y2="377.86" gradientUnits="userSpaceOnUse"><stop offset="0" stop-color="#4b5791"/><stop offset="0.83" stop-color="#9c97dc"/></linearGradient><linearGradient id="linear-gradient-6" x1="210" y1="79.04" x2="210" y2="251.53" gradientUnits="userSpaceOnUse"><stop offset="0" stop-color="#222e6c"/><stop offset="0.83" stop-color="#6058b7"/></linearGradient><linearGradient id="linear-gradient-7" x1="210" y1="104.64" x2="210" y2="238.55" xlink:href="#linear-gradient-5"/></defs><g class="cls-5"><g id="Layer_1" data-name="Layer 1"><g class="cls-6"><path class="cls-7" d="M391.05,210c0,2,0,4-.1,5.9C387.86,313.15,308,391,210,391A180.81,180.81,0,0,1,29,210C29,110.05,110,29,210,29A181.26,181.26,0,0,1,373.25,131.52c.58,1.35,1.16,2.51,1.55,3.48.29.58.48,1.06.68,1.55.48,1.06.87,2,1.35,3a.57.57,0,0,0,.1.39H377A181.59,181.59,0,0,1,391.05,210Z"/></g><g class="cls-8"><path class="cls-9" d="M358,210c0,1.66,0,3.24-.08,4.82a147.78,147.78,0,1,1-14.47-68.95c.47,1.1.95,2,1.26,2.84.24.48.4.87.56,1.27.39.87.71,1.66,1.1,2.45a.47.47,0,0,0,.08.32h.08A148.44,148.44,0,0,1,358,210Z"/></g><path class="cls-10" d="M341,210c0,1.46,0,2.86-.07,4.26a130.76,130.76,0,1,1-12.8-61c.42,1,.84,1.82,1.11,2.52.21.42.35.77.49,1.12.35.76.63,1.46,1,2.16a.41.41,0,0,0,.07.28h.07A131.45,131.45,0,0,1,341,210Z"/><path class="cls-11" d="M341,210c0,1.46,0,2.86-.07,4.26A28.78,28.78,0,0,1,315.17,193s-.14-.42-.35-1.26c-1.68-5.53-8.33-27.71-8.33-28.13h-.07A21.74,21.74,0,0,0,263,164.83a20.76,20.76,0,0,0,.21,2.94l.07.42a12.92,12.92,0,0,0,.28,1.61l6.93,39v.14a28.41,28.41,0,0,1,.77,6.5,28.84,28.84,0,0,1-57.24,5l-.28-2-7.49-51.57h-.07a29.36,29.36,0,0,0-58.71,1,12.8,12.8,0,0,0,.14,2.31h-.07L143,215.35v.07a10.2,10.2,0,0,1,.83,4.06,10.55,10.55,0,0,1-10.56,10.57,10.4,10.4,0,0,1-10.22-7.84l-.28-1.19-6.22-27.85a8,8,0,0,0-15.89,1.12,7.05,7.05,0,0,0,.21,1.75v.07l2.38,25,.21,1.89a15.22,15.22,0,0,1,.07,1.82,28.9,28.9,0,0,1-17.84,26.66,131,131,0,0,1,242.39-98.31c.42,1,.84,1.82,1.11,2.52.21.42.35.77.49,1.12a19,19,0,0,0,1,2.16.41.41,0,0,0,.07.28h.07A131.45,131.45,0,0,1,341,210Z"/><path class="cls-12" d="M341,210c0,1.46,0,2.86-.07,4.26s-.14,3.08-.28,4.62a128.76,128.76,0,0,0-9.8-41.91h-.07a.41.41,0,0,1-.07-.28c-.35-.7-.63-1.4-1-2.17-.14-.35-.28-.7-.49-1.12-.27-.7-.69-1.54-1.11-2.52A131,131,0,0,0,79.36,218.78c-.28-2.94-.35-5.88-.35-8.81a131,131,0,0,1,249.11-56.75c.42,1,.84,1.82,1.11,2.52.21.42.35.77.49,1.12.35.76.63,1.46,1,2.16a.41.41,0,0,0,.07.28h.07A131.45,131.45,0,0,1,341,210Z"/><g class="cls-13"><path class="cls-14" d="M224.37,101.38a28.84,28.84,0,0,0,4.33,2.29,44.42,44.42,0,0,0,5.37,1.74,47.65,47.65,0,0,0,5.62.74,30.72,30.72,0,0,0,4.92-.17,25,25,0,0,0,3.42-.61l1.27-.36-1.31-.13c-.82,0-2-.22-3.38-.33s-3-.4-4.68-.59a46.47,46.47,0,0,1-5.27-1,44,44,0,0,1-5.18-1.34c-1.62-.55-3.19-1-4.46-1.5s-2.41-.88-3.16-1.22l-1.22-.47,1,.89A21.44,21.44,0,0,0,224.37,101.38Z"/><path class="cls-14" d="M96.71,213.75a22.53,22.53,0,0,0-1.64-3l-.73-1.08.28,1.27c.22.78.4,2,.73,3.29s.52,2.94.86,4.61a44.05,44.05,0,0,1,.64,5.28,42.17,42.17,0,0,1,.31,5.31c0,1.7,0,3.31-.07,4.69s-.1,2.54-.2,3.36-.08,1.3-.08,1.3l.56-1.19a21.41,21.41,0,0,0,1.13-3.27,27.78,27.78,0,0,0,.87-4.82,47.9,47.9,0,0,0,0-5.63,48.68,48.68,0,0,0-1-5.52A30.42,30.42,0,0,0,96.71,213.75Z"/><path class="cls-14" d="M158.4,107.78a40.52,40.52,0,0,1-3.71,2.34,36.66,36.66,0,0,1-3.85,2.11c-1.27.58-2.44,1.22-3.51,1.61s-1.94.84-2.57,1.06l-1,.4h1.08a18.61,18.61,0,0,0,2.82-.34,23.84,23.84,0,0,0,3.89-1.08,39.5,39.5,0,0,0,4.19-2,40.19,40.19,0,0,0,3.76-2.71,25.15,25.15,0,0,0,2.83-2.84,19.34,19.34,0,0,0,1.7-2.27l.55-.92s-.32.23-.86.65-1.3,1-2.19,1.7S159.51,106.93,158.4,107.78Z"/><path class="cls-14" d="M110,158.08a44.23,44.23,0,0,0,2.45-3.92,26.08,26.08,0,0,0,1.53-3.7,19.34,19.34,0,0,0,.69-2.73l.16-1.06-.55.93c-.29.6-.83,1.41-1.38,2.4s-1.31,2.08-2,3.27a37.7,37.7,0,0,1-2.54,3.57,33.74,33.74,0,0,1-2.76,3.4c-1,1-1.8,2-2.63,2.82s-1.47,1.5-2,1.94l-.77.75,1-.42a17.85,17.85,0,0,0,2.5-1.38,24.74,24.74,0,0,0,3.18-2.46A38.25,38.25,0,0,0,110,158.08Z"/><path class="cls-14" d="M344.37,225.82c-.61,4.25-1.72,8.57-4.14,12.18a38.76,38.76,0,0,0,2.83-12.31c.37-4.16.24-8.44-1.42-12.16A10.36,10.36,0,0,0,337.9,209a5.71,5.71,0,0,0-2.68-.88c-.6,0-1.42.84-2,1.64a27.7,27.7,0,0,0-3.92,11.9,20.33,20.33,0,0,1,.65-6.39,22.06,22.06,0,0,1,2.37-6.09,8.19,8.19,0,0,1,1-1.38,2.85,2.85,0,0,1,1.8-.93,6.79,6.79,0,0,1,3.39,1,11.29,11.29,0,0,1,4.38,5.06,18.59,18.59,0,0,1,1.59,6.4,29.5,29.5,0,0,1-.19,6.51Zm-15.1,43.78a22.72,22.72,0,0,1-6.63,7.52,30.65,30.65,0,0,0,5.74-8,19.25,19.25,0,0,0,2.67-9.16,7.77,7.77,0,0,0-1.3-4.38,4.38,4.38,0,0,0-1.65-1.42c-.41-.19-1.27.18-1.89.6a17.78,17.78,0,0,0-3.59,3.3,18.34,18.34,0,0,0-2.81,4.07,16.21,16.21,0,0,1,2.4-4.39,17.76,17.76,0,0,1,3.53-3.67,6.27,6.27,0,0,1,1.16-.67,2.09,2.09,0,0,1,1.56-.14,5.38,5.38,0,0,1,2.12,1.72,8.91,8.91,0,0,1,1.58,4.93,14,14,0,0,1-.79,5.07,27.14,27.14,0,0,1-2.1,4.62Zm-48.34,55.31a26.52,26.52,0,0,1-4.08,3,22.76,22.76,0,0,1-9.45,3.42,31.4,31.4,0,0,0,8.91-4.26,19.59,19.59,0,0,0,6.81-6.76,7.89,7.89,0,0,0,1-4.47,4.32,4.32,0,0,0-.74-2c-.27-.37-1.19-.46-1.93-.4a18.48,18.48,0,0,0-4.74,1.17,19.05,19.05,0,0,0-4.44,2.23,16.44,16.44,0,0,1,4.24-2.7,17.53,17.53,0,0,1,4.86-1.52,6.69,6.69,0,0,1,1.35,0,2.16,2.16,0,0,1,1.42.64,5.12,5.12,0,0,1,1,2.53,9,9,0,0,1-1,5.1,13.93,13.93,0,0,1-3.17,4.06Zm-72.05,20.6a17.8,17.8,0,0,1-6,2,28.8,28.8,0,0,1-6.21.32,27.74,27.74,0,0,1-11.84-3,37.26,37.26,0,0,0,11.89,1.72c4,0,8.05-.41,11.5-2.24a10.09,10.09,0,0,0,4.09-3.86,5.07,5.07,0,0,0,.68-2.56c0-.56-.87-1.27-1.66-1.72a21.86,21.86,0,0,0-5.58-2,22.61,22.61,0,0,0-6-.75,19.94,19.94,0,0,1,6.12.13,21.44,21.44,0,0,1,5.94,1.76,7.63,7.63,0,0,1,1.38.88,2.54,2.54,0,0,1,1,1.61,6.31,6.31,0,0,1-.73,3.26,10.94,10.94,0,0,1-4.57,4.47ZM108.09,284c0,.66-.11,1.33-.21,2,.1-.69.16-1.36.21-2Zm0-1.91c0,.39,0,.79,0,1.2,0-.41,0-.81,0-1.2Zm-.33-3.45.12.68-.12-.68Zm-.22-1.14v0Zm.52,3.71c0-.31,0-.62-.07-.93,0,.31,0,.62.07.93Zm44.79,41.9c-3.8-1.18-7.67-2.22-11.52-3.49l-.14-.05-.15-.09-3-1.89-2.76-1.87a54.65,54.65,0,0,1-8.85-3.7,35.66,35.66,0,0,1-8.06-5.75,28.24,28.24,0,0,1-5.78-8,29.78,29.78,0,0,1-2.68-9.29c-.37-.48-.74-1-1.08-1.46s-.67-1-1-1.52h0c.29.52.62,1,1,1.53s.71,1,1.08,1.46h0a44.09,44.09,0,0,0,4.15,8.47,30.68,30.68,0,0,0,6.1,6.84,39.24,39.24,0,0,0,7.71,5,71.8,71.8,0,0,0,8.64,3.54l.24.09.18.12c1.84,1.34,3.74,2.62,5.62,3.92,3.66,1.39,7.39,2.72,11,4.32a53.22,53.22,0,0,1,5.45,2.72c.89.48,1.74,1,2.58,1.59s1.63,1.2,2.44,1.79c-.92-.42-1.85-.81-2.75-1.24s-1.85-.75-2.78-1.11c-1.86-.7-3.74-1.33-5.65-1.93ZM251.76,328c-.49-.06-1-.13-1.45-.17.48,0,1,.1,1.45.17Zm2.44.43h0c-.59-.13-1.18-.25-1.75-.35.58.1,1.16.22,1.75.35Zm7.61-2.87c-1.23.57-2.45,1.17-3.72,1.71-.56.24-1.13.48-1.72.7l-.35.11h0l.35-.11c.59-.22,1.16-.46,1.72-.7,1.27-.54,2.49-1.14,3.72-1.71Zm-30-24.88a3.41,3.41,0,0,0,2.23,2,7.76,7.76,0,0,0,6.18-1.47,10,10,0,0,0,2.46-2.27,7.7,7.7,0,0,0,1.53-2.89,1.94,1.94,0,0,0-1-2.45,9.73,9.73,0,0,0-3.38-.89,8.46,8.46,0,0,1,3.7.19,2.84,2.84,0,0,1,1.63,1.28,3.32,3.32,0,0,1,.3,2.08,9.87,9.87,0,0,1-4.31,6.26c-2.11,1.4-4.9,2.31-7.51,1.32a4.21,4.21,0,0,1-2.55-3,5.37,5.37,0,0,1,.62-3.63,5.59,5.59,0,0,0,.13,3.4Zm4.8,31.16c-3.9,1.66-7.77,3.61-12,5l-.17.06c-.69-.06-1.38-.13-2.06-.24-1,.12-2,.2-3,.29v0c1-.09,2-.16,3-.27.63-.27,1.28-.51,1.92-.74l-.17.07a41.75,41.75,0,0,1,5.34-4,35.84,35.84,0,0,1,6-3.09,25.41,25.41,0,0,1,6.61-1.7,17,17,0,0,1,6.77.51h-.05l.78,0-.79,0c-2.19.56-4.23,1.11-6.22,1.78s-4,1.46-5.91,2.3ZM150.14,96.46A28.42,28.42,0,0,0,145.4,99a14.86,14.86,0,0,0-3.94,3.73,9.32,9.32,0,0,0-1.9,5.14,5.48,5.48,0,0,0,.63,2.79,2.17,2.17,0,0,0,1.36.89,7.08,7.08,0,0,0,1.42.18,16.83,16.83,0,0,0,3.63-.41c.85,0,1.69-.06,2.55-.09a16.53,16.53,0,0,1-7.31,2.87,50.64,50.64,0,0,1-4.37,5.1c-.14.25-.25.53-.41.78,0-.14,0-.28,0-.41a44.78,44.78,0,0,1-18.56,10.88c-.86.94-1.72,1.89-2.57,2.86-.71.81-1.38,1.65-2.08,2.48a6.55,6.55,0,0,1,.58.32l0-.06a20.76,20.76,0,0,0,9.77,4.51,22.81,22.81,0,0,1-7.77-.07v.07a11,11,0,0,1-1.25,4,16.1,16.1,0,0,1-2.24,3.2,35.39,35.39,0,0,0,.5-3.69,9.43,9.43,0,0,0-.2-3.29,1.78,1.78,0,0,0-.53-1c-.18-.18-.33-.1-.48-.1a6.08,6.08,0,0,0-2,.72c-.29.16-.59.36-.89.55.8-.13,1,.19.16,1.1-6.69,7.26-3.24,11.14-5.41,13.85-2,2.53-7,6-9.24,5.18a4.79,4.79,0,0,1-.51-1,8.29,8.29,0,0,1-.09-4.81,20.44,20.44,0,0,1,5.26-8.58,32.9,32.9,0,0,1,8.06-6.55A23.84,23.84,0,0,0,98.84,146a27.61,27.61,0,0,0-3.42,4.12A14.75,14.75,0,0,0,93.2,155a9.34,9.34,0,0,0,.21,5.46,5.46,5.46,0,0,0,1.66,2.33,2.22,2.22,0,0,0,1.62.29,6.15,6.15,0,0,0,1.37-.37,16.65,16.65,0,0,0,3.22-1.75c.78-.34,1.54-.69,2.33-1.05a16.48,16.48,0,0,1-5.76,5.47,7.71,7.71,0,0,1-2.2.78h-.06a18.32,18.32,0,0,1,.17,6.38,16.6,16.6,0,0,0-3.15-6.18c-.09.69-.18,1.39-.24,2.1-.32,1.07-.62,2.15-.88,3.24-.79,3.26-1.36,6.6-1.85,9.9-.35,1.2-.66,2.4-1,3.6-.61,2.4-1.13,4.82-1.59,7.26-.24,1.23-.44,2.45-.64,3.68a30.21,30.21,0,0,0-.62,4.11,26,26,0,0,0,12.07-3.87,28.13,28.13,0,0,1-7.15,6.27.18.18,0,0,1,0,.07A12.11,12.11,0,0,1,93,207.4a18.92,18.92,0,0,1,.63,4.7c-.86-1.31-1.7-2.58-2.61-3.73a12.68,12.68,0,0,0-2.93-2.79,2.31,2.31,0,0,0-1.27-.44c-.31,0-.38.18-.52.31a7.36,7.36,0,0,0-1.22,2.27c-.13.38-.24.8-.35,1.22.62-.76,1.07-.65,1.06.85-.08,12,6.29,12.68,6.55,16.88.25,3.93-1.43,11.11-4.13,12.21a6.68,6.68,0,0,1-1.31-.5,10.49,10.49,0,0,1-4.08-4.24c-1.92-3.59-2.37-7.85-2.31-12a38.57,38.57,0,0,1,1.91-12.48c-2.15,3.77-2.94,8.16-3.23,12.45a30.82,30.82,0,0,0,.29,6.5,18.42,18.42,0,0,0,2.07,6.25,11.21,11.21,0,0,0,4.73,4.74,7,7,0,0,0,3.46.73,2.74,2.74,0,0,0,1.72-1.06,6.82,6.82,0,0,0,.95-1.45,20.76,20.76,0,0,0,1.5-4.21c.42-.93.83-1.88,1.25-2.84a19.59,19.59,0,0,1-.73,9.62,9.76,9.76,0,0,1-1.35,2.5l0,0a22.41,22.41,0,0,1,5.43,5.62,20.69,20.69,0,0,0-9.6-3.17l0,.16q1.45,5.63,3.39,11c.42,1.19.86,2.37,1.35,3.53,5.3,3.82,9.85,7.94,12.38,13.08q1.19.5,2.4.93c1,.35,1.95.67,2.92,1,5.92,2.84,11.15,6.82,17,8.77-.14.12-.29.23-.43.36-2.48,2.53-1,5.08,3.33,5.7h0a24.74,24.74,0,0,0,5.28-.8,19.15,19.15,0,0,0,4.79-1.93,7.82,7.82,0,0,0,1.93-1.49,1.94,1.94,0,0,0,.5-.81.71.71,0,0,0-.2-.66,5.8,5.8,0,0,0-2.1-1.2c-.82-.34-1.68-.6-2.55-.9a14.2,14.2,0,0,1,2.76.15,5.71,5.71,0,0,1,2.75,1.06,1.93,1.93,0,0,1,.72,1.73,1.79,1.79,0,0,1-.11.35c.76.11,1.51.24,2.27.33q5.82.7,11.57.88c1.28,0,2.56.06,3.83,0,6.57-4.11,13.15-7.13,20-6.68,5.88-8.93,12.38-9.11,18.47-6a22.52,22.52,0,0,1,5.28,4.68,17.48,17.48,0,0,1,3.47,5.95,7.72,7.72,0,0,1-.43,6.34c-1.09,1.92-3.07,3.12-5.15,4.2A115.38,115.38,0,0,0,192,302.71a37.6,37.6,0,0,1-6.19,3.5,8.53,8.53,0,0,1-6.86.3,8.5,8.5,0,0,0,7.12.43,38,38,0,0,0,6.57-3.2c4.18-2.44,8.18-5.07,12.45-7.17,2.13-1.13,4.48-2.52,5.76-4.88a8.82,8.82,0,0,0,.27-7.47,17,17,0,0,0-1.47-2.8c7.3-2,13.65-6.77,19.93-14.07.93-.59,1.87-1.19,2.79-1.81l.13-.09a21.46,21.46,0,0,1-2.39-8.58c-.68-9.78,5.29-13,12.88-13.57h0a23,23,0,0,1,5.71.63,10.34,10.34,0,0,1,4.84,2.49c2.61,2.53,3.31,6.4,3.32,10.08A21.29,21.29,0,0,1,254,267.14a13,13,0,0,1-8.93,6.39,10.91,10.91,0,0,0,5.65-1.6,15,15,0,0,0,4.31-4.14,20.13,20.13,0,0,0,3.41-11.29,20.52,20.52,0,0,0-.82-5.91,11,11,0,0,0-2.87-4.69c10.87-2.54,12.69-15,17.06-22.42-5.75-3.51-10-10.77-10.56-19.42-.88-12.72,6.87-16.89,16.73-17.65a29.65,29.65,0,0,1,7.44.71,13.44,13.44,0,0,1,6.39,3.22c3.5,3.32,4.43,8.43,4.43,13.24a27.17,27.17,0,0,1-3.79,13.92,16.83,16.83,0,0,1-11.76,8.22,14.38,14.38,0,0,0,7.27-2.18,19.64,19.64,0,0,0,5.52-5.38,27.1,27.1,0,0,0,3.3-22.2,13.82,13.82,0,0,0-4.14-6.53,14.42,14.42,0,0,0-7.06-3.07,26.1,26.1,0,0,0-2.64-.22,56,56,0,0,1-.22-7,12.5,12.5,0,0,1-4.27-8.89c.16-2.26.78-4.52,2.35-5.87a10,10,0,0,1,5.91-2,9.85,9.85,0,0,1,6.12,1.06c1.74,1.1,2.67,3.24,3.13,5.45a9.62,9.62,0,0,0-.36-3.44,6.3,6.3,0,0,0-2-3,8.69,8.69,0,0,0-5.4-1.69c0-.38,0-.76,0-1.14a121.11,121.11,0,0,0-11.33-49c1.91,1.43,3.86,2.8,5.81,4.14,1.76,1.22,3.55,2.4,5.34,3.58s3.6,2.33,5.45,3.45c.93.81,1.82,1.64,2.73,2.49-.91-.85-1.8-1.68-2.73-2.49a57.84,57.84,0,0,0-4.76-4.37q-2.49-2.06-5.12-3.92c-3.5-2.51-7.1-4.83-10.76-7.07l0,0c-1.16-.48-2.27-1-3.43-1.45q-4.2-2.25-8.58-4.16a25.38,25.38,0,0,0,.07,11.53,27.47,27.47,0,0,1-3.69-8.66l-.07,0a12.86,12.86,0,0,1-5.15.63,19.89,19.89,0,0,1-4.7-.85c1.54-.41,3-.81,4.42-1.32a13,13,0,0,0,3.62-1.9,2.42,2.42,0,0,0,.84-1.07c.1-.29-.05-.41-.14-.57a7,7,0,0,0-1.77-1.84c-.33-.25-.7-.48-1.06-.72.53.82.28,1.21-1.16.74-11.46-3.75-14.16,2-18.28,1-3.83-1-10.16-4.75-10.34-7.63a6.08,6.08,0,0,1,.9-1.07,10.69,10.69,0,0,1,5.38-2.54c4.06-.72,8.28.17,12.25,1.5a38.79,38.79,0,0,1,11.32,5.62c-2.9-3.18-6.86-5.27-10.87-6.85A29.26,29.26,0,0,0,236,85.2a18.81,18.81,0,0,0-6.65,0,11.65,11.65,0,0,0-6.07,3,6.93,6.93,0,0,0-1.81,3,2.65,2.65,0,0,0,.45,1.94A8,8,0,0,0,223,94.55a20.21,20.21,0,0,0,3.5,2.66c.77.7,1.57,1.38,2.36,2.08a19.88,19.88,0,0,1-9-3.63,9.85,9.85,0,0,1-2-2l0,0a23.09,23.09,0,0,1-7.13,3.4,21.37,21.37,0,0,0,5.37-6.45l-1.53-.08c-1,0-2,0-2.94,0s-2,0-3,0a48,48,0,0,0-14.34-1.19,41.55,41.55,0,0,0-18.73,6.18c-1.06.31-2.1.62-3.15,1-.52.16-1,.36-1.56.54a20.93,20.93,0,0,0,4.7,4.16,22.83,22.83,0,0,1-7.11-3s0,0,0,.07a10.88,10.88,0,0,1-2.7,3.24,16,16,0,0,1-3.29,2.12c.67-1.09,1.34-2.16,1.88-3.24a9.61,9.61,0,0,0,1.09-3.13,2.06,2.06,0,0,0-.11-1.09c-.11-.23-.27-.21-.42-.26a5.88,5.88,0,0,0-2.09-.09c-.34,0-.69.11-1,.17.77.19.84.55-.28,1.08-9,4.21-7.28,9.11-10.32,10.8-2.84,1.58-8.77,2.89-10.51,1.31a6.14,6.14,0,0,1-.08-1.13,8.39,8.39,0,0,1,1.77-4.5,20.56,20.56,0,0,1,8.15-6,32.55,32.55,0,0,1,9.94-3,24,24,0,0,0-10.35,2.06ZM334.58,167.2A33.61,33.61,0,0,1,336,179.27a47.73,47.73,0,0,0-2.51-11.74A32.52,32.52,0,0,0,328.25,157a10.36,10.36,0,0,0-4.49-3.44,3.68,3.68,0,0,0-2.52-.09,1.69,1.69,0,0,0-.51.95,8,8,0,0,0-.23,1.41,29.15,29.15,0,0,0,.28,6,28.82,28.82,0,0,0,1.32,5.87,25.19,25.19,0,0,1-1.9-5.77,27.53,27.53,0,0,1-.64-6.1,9.77,9.77,0,0,1,.17-1.6,2.67,2.67,0,0,1,.94-1.65,4.64,4.64,0,0,1,3.45-.07,11.59,11.59,0,0,1,5.11,3.73c2.71,3.22,4.17,7.16,5.35,11ZM314,208.57a6.46,6.46,0,0,0,6.73-3.46,9.25,9.25,0,0,0,.66-7.53,7,7,0,0,0-2.11-3.1,4.87,4.87,0,0,0-3.37-1.21,4.2,4.2,0,0,0-2.89,2.22,18.82,18.82,0,0,0-1.76,3.8,14.77,14.77,0,0,1,1.08-4.16,6.51,6.51,0,0,1,1.25-1.9,4,4,0,0,1,2.13-1.17,5.87,5.87,0,0,1,4.5,1.25,8.22,8.22,0,0,1,2.67,3.72,9.88,9.88,0,0,1-1.1,8.73,7.56,7.56,0,0,1-3.48,2.84,5.73,5.73,0,0,1-4.31,0ZM301.89,296q-2.24,2.48-4.61,4.83,2.37-2.35,4.61-4.83c.84-.93,1.65-1.86,2.43-2.82a30.29,30.29,0,0,1,1.31-3.28,40.22,40.22,0,0,1,2.61-4.65q1-1.51,2.07-3c-.72,1-1.42,2-2.07,3a40.22,40.22,0,0,0-2.61,4.65,31.13,31.13,0,0,0-1.31,3.28q-1.17,1.44-2.43,2.82ZM287.1,309.92c1.81-1.45,3.6-2.95,5.32-4.49-1.72,1.54-3.51,3-5.32,4.49Zm-8.64-44.34a10.36,10.36,0,0,0,2.12,5.17,2.94,2.94,0,0,0,2.23,1.05,4.29,4.29,0,0,0,2.38-.89,13.57,13.57,0,0,0,3.56-4.2,27.16,27.16,0,0,0,2.35-5.14,28,28,0,0,0,1.6-11.12,6.71,6.71,0,0,0-.63-2.58,1.7,1.7,0,0,0-2-.91c-1.77.38-3.35,1.73-4.87,2.92a12,12,0,0,1,4.7-3.66,2.55,2.55,0,0,1,1.7,0,2.69,2.69,0,0,1,1.31,1.1,7.63,7.63,0,0,1,1,2.94,25.32,25.32,0,0,1-1.3,11.77,26.84,26.84,0,0,1-2.56,5.42,13.71,13.71,0,0,1-4.2,4.45,5.33,5.33,0,0,1-3.09.87,3.82,3.82,0,0,1-2.79-1.55,9.93,9.93,0,0,1-1.51-5.67Zm68.48-51.66c-.89-3.22-1.95-6.45-4.69-9.48a7.25,7.25,0,0,0-1.07-1c.06-.88.13-1.75.21-2.58a8.34,8.34,0,0,0,0-1.58c-.07-.7-.15-1.42-.24-2.13-.47-3.89-1.13-7.78-2-11.63a7.67,7.67,0,0,0,.51-1.45,12.08,12.08,0,0,0,.45-2.55,31.34,31.34,0,0,0-.73-9.26,51,51,0,0,0-6.86-16.55,35.73,35.73,0,0,0-2.8-3.68,18.67,18.67,0,0,0-3.68-3.34,8.19,8.19,0,0,0-2.8-1.29,4.67,4.67,0,0,0-1.42-.16c-5.53-5.18-9.64-11.65-13.64-21.27a7.73,7.73,0,0,0-1.54-2.38c-.81-.85-1.64-1.7-2.47-2.54s-1.67-1.66-2.53-2.46c-1-1-2-1.87-2.94-2.7a3.7,3.7,0,0,0-.29-.24c-5.05-4-9.78-7.31-14.36-10.48-2.35-1.62-4.56-3.16-6.82-4.79-.22-.17-.46-.31-.69-.46-1.13-.64-2.29-1.27-3.44-1.89A131.44,131.44,0,0,0,257,90.82a29.63,29.63,0,0,0-6.68-4.44A43.74,43.74,0,0,0,231.27,82a23.88,23.88,0,0,0-9.2,1.68,8,8,0,0,0-2.45-.75,46.88,46.88,0,0,0-4.68-.34c-1.05,0-2.09-.05-3.14-.06h-2.19a55.5,55.5,0,0,0-15.78-1.15h0a49.45,49.45,0,0,0-21.39,6.78l-2.31.71c-1.93.61-3.86,1.29-5.76,2a9.43,9.43,0,0,0-1.36-.23,22.24,22.24,0,0,0-8.38,1.07,35.35,35.35,0,0,0-7.38,3.25,34.49,34.49,0,0,0-6.51,4.82,18.17,18.17,0,0,0-4.94,7.18,7.78,7.78,0,0,0-.34,2.46c-5.15,6.87-10.93,10.86-19.32,13.55a8.22,8.22,0,0,0-3.45,2.19c-.92,1-1.84,2-2.73,3-1.44,1.64-2.86,3.34-4.22,5.05l-.95,1.22C93,141.21,86,152.46,84.5,167.07c-.27.93-.52,1.9-.77,2.88-.88,3.62-1.48,7.26-1.91,10.12-.32,1.11-.62,2.23-.89,3.33-.64,2.55-1.21,5.16-1.69,7.74-.22,1.19-.44,2.42-.63,3.63a43.2,43.2,0,0,0-.88,10.8c0,.39,0,.8,0,1.21s0,.93,0,1.4a2.48,2.48,0,0,0,0,.27,32.31,32.31,0,0,0-1.59,6.24,41.64,41.64,0,0,0-.35,8.84c-.33,5.54.3,11.51,3.78,17.38a.66.66,0,0,1,0,.15l.22,1c.38,1.81.82,3.64,1.27,5.44,1,3.94,2.24,7.87,3.61,11.69.53,1.48,1,2.72,1.49,3.89a7.78,7.78,0,0,0,2.66,3.35C98,273,101,278,100,284.92a7.74,7.74,0,0,0,.91,4.93,25.4,25.4,0,0,0,1.69,2.64c3.92,14,13.42,23.27,29.7,28.9l1.9,1.32c1.11.74,2.24,1.48,3.35,2.18a7.82,7.82,0,0,0,1.59.78c1.59.56,3.18,1.09,4.77,1.63a85.92,85.92,0,0,1,13.68,5.46l.58.32c4.68,7.33,11.69,9.71,18.23,10.51.08.21.16.43.25.64a6.07,6.07,0,0,0,.45.74,7.41,7.41,0,0,0,1,1.23,11.85,11.85,0,0,0,2.23,1.71,25.19,25.19,0,0,0,9.29,3,41.08,41.08,0,0,0,9.33.23,39.84,39.84,0,0,0,9.2-1.85,22.8,22.8,0,0,0,7.76-4.16c.84,0,1.68-.08,2.53-.14,1.57-.13,3.16-.27,4.71-.45.76-.09,1.46-.17,2.16-.27a8.07,8.07,0,0,0,2.95-1l.55-.31c6.15-3.51,11.94-6.82,17.87-7.28a19.15,19.15,0,0,1,6,.51,8.18,8.18,0,0,0,2.51.2,8.07,8.07,0,0,0,1.47-.25,32.42,32.42,0,0,0,4.54-1.64h0a6.17,6.17,0,0,0,2.19.85,10.33,10.33,0,0,0,2.32.13,21.16,21.16,0,0,0,7.74-2.2,33.89,33.89,0,0,0,6.47-4.1,32.89,32.89,0,0,0,5.42-5.45,21.91,21.91,0,0,0,2.81-4.71,134.35,134.35,0,0,0,19.62-17.76c1.08-1.2,1.94-2.2,2.72-3.16a7.9,7.9,0,0,0,1.38-2.53c1.41-4.28,4.42-8.29,8-12.79a9.12,9.12,0,0,0,1.22-.29,9.6,9.6,0,0,0,2.11-1,21.05,21.05,0,0,0,5.72-5.64,33.94,33.94,0,0,0,3.69-6.69,32.74,32.74,0,0,0,2.08-7.35,28.22,28.22,0,0,0,.27-2.93,42.07,42.07,0,0,0,5.46-13.23l.68-.54a12.18,12.18,0,0,0,2-2.23,26.75,26.75,0,0,0,4-9.5,42.89,42.89,0,0,0,1-9.74A41.46,41.46,0,0,0,346.94,213.92Z"/><path class="cls-14" d="M162.83,127a10.76,10.76,0,0,0,2.33,9.47,14.66,14.66,0,0,0,7.77,4.65,17.61,17.61,0,0,0,8.57-.06,23.14,23.14,0,0,1-7.77-2.12,13.43,13.43,0,0,1-5.56-4.68,7.45,7.45,0,0,1-1-6.11,9.76,9.76,0,0,1,4.28-4.86,35.63,35.63,0,0,1,6.93-3.37l1.88-.68a11.5,11.5,0,0,1,5.19-.64,13.6,13.6,0,0,1,6.72,2.86,12.15,12.15,0,0,1,4.39,6.41,11.16,11.16,0,0,0-2.74-8,14.63,14.63,0,0,0-7.65-4.82,13.86,13.86,0,0,0-4.77-.35,15,15,0,0,0-2.37.43c-.69.19-1.39.39-2.08.6a32.58,32.58,0,0,0-8.12,3.64,17.74,17.74,0,0,0-3.63,3.13A11.06,11.06,0,0,0,162.83,127Z"/><path class="cls-14" d="M147.12,177.07a7.86,7.86,0,0,0,7.73-4.56c-2.56,1.24-5.22,1.64-6.94.91a2.57,2.57,0,0,1-1.53-1.49,4.1,4.1,0,0,1,.11-2.32,19,19,0,0,1,1.28-3.21l.4-.84c.13-.23.2-.41.33-.61a5.9,5.9,0,0,1,.91-1,6.66,6.66,0,0,1,6.66-1.07,5.46,5.46,0,0,0-3.62-2.6,7.52,7.52,0,0,0-7.12,2.06,10.32,10.32,0,0,0-.87,1c-.21.3-.42.59-.62.9a15.35,15.35,0,0,0-2,4.2,10,10,0,0,0-.33,2.64,6.45,6.45,0,0,0,.78,2.92A6.21,6.21,0,0,0,147.12,177.07Z"/><path class="cls-14" d="M126.74,244.24a7.65,7.65,0,0,1-6.22-.37,9.46,9.46,0,0,1-3.79-5.18,35.28,35.28,0,0,1-1.72-7.42l-.23-2a11,11,0,0,1,.58-5.14,13.64,13.64,0,0,1,4.35-5.9,12.61,12.61,0,0,1,7.32-2.88,11.5,11.5,0,0,0-8.54,1,14.84,14.84,0,0,0-6.5,6.36,13.72,13.72,0,0,0-1.45,4.54,14.75,14.75,0,0,0-.11,2.38c0,.72,0,1.43.1,2.14a31.16,31.16,0,0,0,1.71,8.63,16.92,16.92,0,0,0,2.23,4.18,10.63,10.63,0,0,0,13.75,3.06,15,15,0,0,0,6.38-6.51,17.48,17.48,0,0,0,1.91-8.31,22.9,22.9,0,0,1-3.88,7.06A13.81,13.81,0,0,1,126.74,244.24Z"/><path class="cls-14" d="M134.09,269.74a2.63,2.63,0,0,1-2.1.46,4.12,4.12,0,0,1-1.89-1.35,18.07,18.07,0,0,1-2-2.79l-.47-.79c-.12-.24-.24-.39-.33-.61a4.61,4.61,0,0,1-.39-1.32,6.59,6.59,0,0,1,2.8-6.1,5.51,5.51,0,0,0-4.19,1.6,7.55,7.55,0,0,0-2.33,4.35,7.94,7.94,0,0,0,.09,2.66,10.71,10.71,0,0,0,.39,1.28c.14.34.27.68.42,1a14.66,14.66,0,0,0,2.45,3.9,10,10,0,0,0,2,1.71,6.66,6.66,0,0,0,2.9.93,6.36,6.36,0,0,0,5.27-2.32,7.68,7.68,0,0,0,.45-8.88C136.8,266.28,135.67,268.7,134.09,269.74Z"/><path class="cls-14" d="M269.26,142a10.72,10.72,0,0,0,9.41-.75,15.1,15.1,0,0,1-7.54-2.78,6.11,6.11,0,0,1-2-2.32.91.91,0,0,1-.07-.64,1.93,1.93,0,0,1,.32-.55,11.66,11.66,0,0,1,2.44-2.16c.32-.22.36-.23.55-.37a3.37,3.37,0,0,1,.61-.24,5.93,5.93,0,0,1,1.6-.28,13.86,13.86,0,0,1,3.8.43,13,13,0,0,1,3.92,1.62,8.07,8.07,0,0,0-2.77-3.76,11.05,11.05,0,0,0-4.44-2.21,9,9,0,0,0-2.74-.25,9.19,9.19,0,0,0-1.51.26,10.18,10.18,0,0,0-1.43.56,11.17,11.17,0,0,0-4.33,3.25,6.15,6.15,0,0,0-1.27,3.42,5.7,5.7,0,0,0,1,3.47A9.29,9.29,0,0,0,269.26,142Z"/><path class="cls-14" d="M200.82,195.48a19.88,19.88,0,0,0-7.28-3.12,14.88,14.88,0,0,0-4.25-.24,12.85,12.85,0,0,0-2.24.44,10,10,0,0,0-1.11.41c-.4.16-.71.32-1,.46a18.61,18.61,0,0,0-6.67,5.13,8.81,8.81,0,0,0-1.83,4.79,8.11,8.11,0,0,0,1.45,4.88,14.83,14.83,0,0,0,6.63,5.25,19.13,19.13,0,0,0,15.26,0,24.38,24.38,0,0,1-7.16-.81,20.86,20.86,0,0,1-6.23-2.67,11.92,11.92,0,0,1-4.24-4.27,3.31,3.31,0,0,1,.42-4,19,19,0,0,1,4.78-4,8.05,8.05,0,0,1,1.23-.69,7.78,7.78,0,0,1,1.34-.43,12,12,0,0,1,3.1-.27,21.72,21.72,0,0,1,6.66,1.33,19.63,19.63,0,0,1,6.22,3.49A14.58,14.58,0,0,0,200.82,195.48Z"/><path class="cls-14" d="M234.15,174.18a14,14,0,0,1,2.61-3.92,23,23,0,0,1,8.51-5.51,23.4,23.4,0,0,1,10.56-1.59,19.89,19.89,0,0,0-11.23-.8,23,23,0,0,0-10.63,5,16.76,16.76,0,0,0-3.95,4.85,16,16,0,0,0-1.18,3c-.28,1.12-.43,2-.62,2.92a30.57,30.57,0,0,0,0,11.79,15.83,15.83,0,0,0,2.62,5.89,12.89,12.89,0,0,0,5.23,4.15,18.65,18.65,0,0,0,12.3.64,23.34,23.34,0,0,0,16.06-15.45,25.76,25.76,0,0,1-16.92,11.5,15.34,15.34,0,0,1-9.25-1.18,9.5,9.5,0,0,1-4.81-6.78,31.5,31.5,0,0,1-.31-9.94A13.67,13.67,0,0,1,234.15,174.18Z"/><path class="cls-14" d="M193.24,251.87a7.77,7.77,0,0,1-1.56.24,6.1,6.1,0,0,1-1.41-.18,4.41,4.41,0,0,1-2.11-1.54,13.46,13.46,0,0,1-1.81-3.09c-.15-.29-.27-.61-.41-.91a5.2,5.2,0,0,1-.21-.55,3.18,3.18,0,0,1,0-1.28,6.39,6.39,0,0,1,1.65-3.07,10.16,10.16,0,0,1,3.5-2.51,7.34,7.34,0,0,0-4.92.41,8.09,8.09,0,0,0-4.1,3.71,6.91,6.91,0,0,0-.74,3.1,7,7,0,0,0,.2,1.64c.1.4.19.8.32,1.2a13.3,13.3,0,0,0,2.39,4.73,8.38,8.38,0,0,0,5.32,3.11,8.87,8.87,0,0,0,5.81-1.3c3.33-2.1,4.63-6.26,3.37-9.21A8.34,8.34,0,0,1,193.24,251.87Z"/><path class="cls-14" d="M156.56,182.29c-4.49.34-8,2.24-7.63,8s4.36,10.21,8.86,9.86,7.8-5.31,7.4-11.11S161,182,156.56,182.29Z"/><path class="cls-14" d="M229.05,148.07c5.88.85,11.8-1.9,13.21-6.15s-3-6.11-8.86-6.95-11-.35-12.44,3.89S223.16,147.23,229.05,148.07Z"/><path class="cls-14" d="M113.22,191.22c-1,4,.37,7.66,3,8.27s5.54-2.1,6.51-6.05-.88-5.56-3.51-6.17S114.19,187.27,113.22,191.22Z"/><path class="cls-14" d="M193.4,179c-2.06,1.59-1.87,3.55.45,4.38a9.29,9.29,0,0,0,7.92-1.36c2.06-1.59.76-2.71-1.55-3.54S195.46,177.42,193.4,179Z"/><path class="cls-14" d="M148.64,136.93c2.79-4.09,1.14-6-1.85-6.92s-6.21-.55-9,3.55-2.63,8.16.37,9.09S145.85,141,148.64,136.93Z"/><path class="cls-14" d="M239.92,117.56c-2.21-2.17-4.56-3.59-6.63-2.32s-1.95,4.06.25,6.24,5.67,2.92,7.73,1.65S242.13,119.74,239.92,117.56Z"/><path class="cls-14" d="M155.85,252.13c-4.5.34-8,2.85-7.44,10.8s1.88,12.68,6.37,12.34,10.45-5.64,9.9-13.59S160.34,251.78,155.85,252.13Z"/></g><path class="cls-15" d="M156.91,247c15.69-12.4,27.51-22.28,36-30,23.06-21.51,25-27.71,25-34.49,0-4.85-2.9-8.14-7.16-8.14-6.21,0-10.27,6.58-10.86,20.73H155.74c1.75-34.49,22.48-54.25,58.33-54.25,30.42,0,50.19,15.3,50.19,39.14,0,14.92-5.43,26.93-30.23,49.21-5.82,5.23-12.79,11-20.93,17.64l49.8-.59v32.94h-106Z"/></g></g></svg>