<svg width="24" height="24" viewBox="0 0 24 24" fill="none" xmlns="http://www.w3.org/2000/svg">
<path d="M5.33454 4.54531C6.36127 3.6256 7.56722 2.92831 8.87654 2.49731C9.25092 2.96634 9.7262 3.34494 10.2671 3.60498C10.8079 3.86502 11.4004 3.99981 12.0005 3.99931C12.6007 3.99981 13.1932 3.86502 13.734 3.60498C14.2749 3.34494 14.7502 2.96634 15.1245 2.49731C16.4339 2.92831 17.6398 3.6256 18.6665 4.54531C18.448 5.10376 18.3581 5.70425 18.4035 6.3022C18.4489 6.90016 18.6283 7.48021 18.9285 7.99931C19.2281 8.51941 19.6411 8.96527 20.1368 9.30374C20.6325 9.64221 21.1981 9.86458 21.7915 9.95432C22.0721 11.3032 22.0721 12.6954 21.7915 14.0443C20.6315 14.2223 19.5615 14.9043 18.9285 15.9993C18.6282 16.5185 18.4486 17.0988 18.4033 17.6969C18.3579 18.2951 18.4479 18.8957 18.6665 19.4543C17.6397 20.3737 16.4338 21.0706 15.1245 21.5013C14.7501 21.0325 14.2747 20.6541 13.7339 20.3942C13.193 20.1343 12.6006 19.9997 12.0005 20.0003C11.4004 19.9998 10.8079 20.1346 10.2671 20.3946C9.7262 20.6547 9.25092 21.0333 8.87654 21.5023C7.56731 21.0716 6.36136 20.3747 5.33454 19.4553C5.55319 18.8967 5.64318 18.2961 5.59782 17.6979C5.55246 17.0998 5.37292 16.5195 5.07254 16.0003C4.77283 15.4804 4.35979 15.0347 3.86412 14.6965C3.36845 14.3582 2.80291 14.1359 2.20954 14.0463C1.92885 12.6971 1.92885 11.3045 2.20954 9.95531C2.803 9.86558 3.3686 9.64321 3.86428 9.30474C4.35995 8.96626 4.77294 8.52041 5.07254 8.00031C5.37277 7.48121 5.55222 6.90116 5.59758 6.3032C5.64294 5.70525 5.55303 5.10476 5.33454 4.54631V4.54531ZM13.5005 14.5973C13.8445 14.4018 14.1463 14.1401 14.3887 13.8274C14.6311 13.5148 14.8093 13.1572 14.913 12.7754C15.0166 12.3936 15.0437 11.995 14.9927 11.6027C14.9418 11.2103 14.8137 10.832 14.6158 10.4893C14.418 10.1467 14.1544 9.84658 13.8401 9.60626C13.5258 9.36593 13.1671 9.19014 12.7846 9.08902C12.4021 8.98789 12.0034 8.96342 11.6114 9.01702C11.2194 9.07062 10.8419 9.20122 10.5005 9.40131C9.81712 9.80197 9.31991 10.4567 9.11743 11.2226C8.91494 11.9884 9.0236 12.8033 9.41971 13.4894C9.81582 14.1755 10.4672 14.677 11.2317 14.8846C11.9963 15.0921 12.8119 14.9889 13.5005 14.5973Z" fill="currentColor"/>
</svg>
