<svg width="24" height="24" viewBox="0 0 24 24" fill="none" xmlns="http://www.w3.org/2000/svg">
<path d="M12.3457 14.9383L7.8032 12.5913C7.36717 13.0014 6.81275 13.2799 6.20984 13.3919C5.60694 13.5038 4.98254 13.4442 4.41536 13.2205C3.84818 12.9968 3.36362 12.619 3.02276 12.1348C2.6819 11.6505 2.5 11.0815 2.5 10.4995C2.5 9.91753 2.6819 9.34855 3.02276 8.86433C3.36362 8.38011 3.84818 8.00233 4.41536 7.77861C4.98254 7.55489 5.60694 7.49526 6.20984 7.60722C6.81275 7.71918 7.36717 7.99773 7.8032 8.40775L12.3457 6.0608C12.1899 5.36836 12.3024 4.64594 12.6627 4.02564C13.023 3.40534 13.6069 2.92861 14.3077 2.68263C15.0085 2.43665 15.7794 2.43786 16.4793 2.68604C17.1793 2.93422 17.7615 3.41278 18.1196 4.03421C18.4777 4.65565 18.5877 5.37842 18.4295 6.07036C18.2713 6.7623 17.8554 7.37717 17.258 7.80253C16.6605 8.22789 15.9214 8.43531 15.1758 8.38686C14.4302 8.33842 13.7279 8.03734 13.1973 7.53869L8.65481 9.88565C8.74542 10.2904 8.74542 10.7087 8.65481 11.1134L13.1973 13.4604C13.7279 12.9617 14.4302 12.6607 15.1758 12.6122C15.9214 12.5638 16.6605 12.7712 17.258 13.1966C17.8554 13.6219 18.2713 14.2368 18.4295 14.9287C18.5877 15.6207 18.4777 16.3434 18.1196 16.9649C17.7615 17.5863 17.1793 18.0649 16.4793 18.313C15.7794 18.5612 15.0085 18.5624 14.3077 18.3165C13.6069 18.0705 13.023 17.5937 12.6627 16.9734C12.3024 16.3531 12.1899 15.6307 12.3457 14.9383Z" fill="currentColor"/>
</svg>
