<svg width="20" height="20" viewBox="0 0 20 20" fill="none" xmlns="http://www.w3.org/2000/svg">
<path d="M5 6.66536C5 6.20513 5.3731 5.83203 5.83333 5.83203H14.1667C14.6269 5.83203 15 6.20513 15 6.66536C15 7.1256 14.6269 7.4987 14.1667 7.4987H5.83333C5.3731 7.4987 5 7.1256 5 6.66536Z" fill="#C4C4C4"/>
<path d="M6.6665 10.0013C6.6665 9.54105 7.0396 9.16797 7.49984 9.16797H12.4998C12.9601 9.16797 13.3332 9.54105 13.3332 10.0013C13.3332 10.4616 12.9601 10.8346 12.4998 10.8346H7.49984C7.0396 10.8346 6.6665 10.4616 6.6665 10.0013Z" fill="#C4C4C4"/>
<path d="M9.16683 12.5C8.70658 12.5 8.3335 12.8731 8.3335 13.3333C8.3335 13.7936 8.70658 14.1667 9.16683 14.1667H10.8335C11.2937 14.1667 11.6668 13.7936 11.6668 13.3333C11.6668 12.8731 11.2937 12.5 10.8335 12.5H9.16683Z" fill="#C4C4C4"/>
</svg>
