<svg width="46" height="47" viewBox="0 0 46 47" fill="none" xmlns="http://www.w3.org/2000/svg">
<path d="M22.2115 30.8414C22.1415 29.0565 21.4047 27.3638 20.1489 26.1007C18.8931 24.8376 17.2095 24.0971 15.4356 24.0265L6.60156 23.6542L15.4781 23.3078C17.2449 23.2443 18.9232 22.5141 20.179 21.2625C21.4339 20.0109 22.1752 18.3298 22.254 16.5535L22.6587 7.61719L22.9341 16.4497C22.9899 18.2443 23.7197 19.951 24.9772 21.2255C26.2348 22.4999 27.9264 23.2471 29.71 23.3164L38.4838 23.6542L29.6586 23.9919C27.883 24.0604 26.1994 24.8004 24.9427 26.0638C23.6869 27.3274 22.951 29.0212 22.8828 30.8067L22.5471 39.6825L22.2115 30.8414Z" fill="white"/>
<path d="M27.3661 28.9692C26.0617 27.7568 24.3506 27.0839 22.5746 27.0839C20.7985 27.0838 19.0875 27.7575 17.7835 28.9691L11.2751 34.9883L17.3083 28.4307C18.5129 27.1293 19.1863 25.4194 19.1943 23.6413C19.2017 21.8638 18.5439 20.148 17.3508 18.8359L11.3541 12.2291L17.7587 18.2788C19.06 19.5081 20.7759 20.1959 22.5612 20.2028C24.3464 20.2096 26.0679 19.535 27.3778 18.3155L33.8193 12.3147L27.8164 18.8297C26.6089 20.1409 25.9388 21.8614 25.9384 23.6486C25.9388 25.4351 26.6093 27.1562 27.8164 28.4673L33.8194 34.9821L27.3661 28.9692Z" fill="white"/>
</svg>
