<svg width="40" height="40" viewBox="0 0 40 40" fill="none" xmlns="http://www.w3.org/2000/svg">
<g clip-path="url(#clip0_6594_19284)">
<path d="M32 8.08544C32 8.08292 32 8.08068 32 8.07815C31.9994 8.07002 31.9986 8.06217 31.9969 8.05432C31.9952 8.04647 31.9924 8.03918 31.9893 8.03188C31.9885 8.02964 31.9874 8.0274 31.9863 8.02515C31.9837 8.01983 31.9806 8.01478 31.9776 8.00973C31.9762 8.00777 31.975 8.00553 31.9736 8.00356C31.9689 7.99711 31.9635 7.99095 31.9577 7.98534C31.9568 7.9845 31.9554 7.98365 31.9546 7.98281C31.9506 7.97945 31.947 7.9758 31.9425 7.97272C31.9408 7.9716 31.9391 7.97076 31.9375 7.96963C31.9363 7.96907 31.9358 7.96823 31.9347 7.96739L27.2 5.02116C27.156 4.99396 27.1007 4.99284 27.0559 5.01864L16.3219 11.1968C16.2179 11.0182 16.0833 10.9066 15.9313 10.8892L8.72289 6.7322C8.72064 6.7308 8.71812 6.73024 8.71588 6.72912C8.71139 6.72687 8.70662 6.72463 8.70186 6.72295C8.69765 6.72126 8.69317 6.72014 8.68896 6.71902C8.68475 6.7179 8.68027 6.71678 8.67578 6.71594C8.67073 6.7151 8.66569 6.71481 8.66036 6.71453C8.65783 6.71453 8.65531 6.71369 8.65279 6.71369C8.65026 6.71369 8.64746 6.71397 8.64494 6.71397C8.64381 6.71397 8.64297 6.71397 8.64185 6.71397C8.27508 6.72491 8 7.27843 8 8.01029C8 8.67794 8.30116 9.13921 8.58297 9.28839L9.57084 9.85817C9.56775 9.88649 9.57308 9.91622 9.5885 9.94286L11.8713 13.9047L15.7802 25.4465V29.6882C15.7802 29.7382 15.8065 29.7841 15.8497 29.8094L18.1333 31.1413C17.8322 31.5235 17.6676 31.9943 17.6676 32.4853C17.6676 33.6838 18.6426 34.6587 19.841 34.6587C21.0395 34.6587 22.0144 33.6838 22.0144 32.4853C22.0144 31.9895 21.847 31.5151 21.5406 31.1309L25.1449 28.9951C25.4006 29.9314 26.2525 30.592 27.2412 30.592C28.4397 30.592 29.4146 29.617 29.4146 28.4186C29.4146 27.8244 29.1757 27.2655 28.7532 26.8573L29.1749 26.6074C29.2175 26.5822 29.2436 26.5362 29.2436 26.4868V24.5871C29.2436 24.5871 29.2436 24.5857 29.2436 24.5848C29.2436 24.5832 29.2436 24.5812 29.2433 24.5795C29.243 24.5731 29.2422 24.5666 29.2408 24.5602C29.2405 24.5582 29.24 24.5562 29.2397 24.5543C29.2377 24.5467 29.2355 24.5391 29.2324 24.5318C29.2318 24.5304 29.2313 24.5293 29.2304 24.5282C29.2276 24.522 29.2243 24.5161 29.2206 24.5105C29.2195 24.5086 29.2184 24.5069 29.217 24.5052C29.2125 24.4988 29.2074 24.4926 29.2015 24.4873C29.2004 24.4864 29.1993 24.4856 29.1985 24.4845C29.1931 24.4794 29.1875 24.4752 29.1814 24.471C29.1802 24.4704 29.1797 24.4696 29.1785 24.4688L27.5101 23.4074L28.9402 22.5715C28.9744 22.5516 28.9985 22.518 29.0067 22.479L31.9975 8.1146C31.9975 8.1146 31.9975 8.11208 31.998 8.11068C31.9986 8.10816 31.9989 8.10563 31.9992 8.10283C32 8.09694 32.0003 8.09105 32.0003 8.08516L32 8.08544ZM27.1229 5.30353L31.5878 8.08208L17.0692 16.5086L15.0733 13.0313L15.5561 13.3097C15.652 13.4179 15.7645 13.4793 15.887 13.4799C15.8876 13.4799 15.8884 13.4799 15.889 13.4799C15.8892 13.4799 15.8898 13.4799 15.8901 13.4799C16.2616 13.4788 16.542 12.9219 16.542 12.1833C16.542 11.9091 16.5033 11.6601 16.4358 11.4551L27.1229 5.30353ZM14.6364 12.7792C14.6333 12.8075 14.6386 12.8369 14.6538 12.8636L16.6834 16.3998L12.2798 13.847L14.3857 12.6348L14.6361 12.7792H14.6364ZM15.5166 12.1833C15.5166 11.5633 15.737 11.1674 15.8887 11.1671C16.0407 11.1671 16.2611 11.563 16.2611 12.1833C16.2611 12.7646 16.0673 13.149 15.9181 13.195L15.7356 13.0899C15.6209 12.9317 15.516 12.6106 15.516 12.1833H15.5166ZM8.28041 8.01029C8.28041 7.42901 8.47417 7.04457 8.62334 6.99859L15.5931 11.0179C15.3778 11.2249 15.2359 11.6581 15.2359 12.183C15.2359 12.4312 15.2676 12.6589 15.3239 12.8518L8.72289 9.04527C8.72289 9.04527 8.72093 9.04443 8.7198 9.04387C8.71868 9.04331 8.71784 9.04247 8.717 9.04191C8.54819 8.95498 8.28041 8.59803 8.28041 8.01001V8.01029ZM14.105 12.473L12.051 13.6552L10.0088 10.1108L14.105 12.473V12.473ZM28.9635 26.4066L21.2545 30.9747C21.2545 30.9747 21.2545 30.9747 21.2543 30.9747L19.8407 31.8123L19.3492 31.5255L18.4193 30.9832L16.0611 29.6078V27.9674L19.7726 30.0654C19.7743 30.0662 19.776 30.0671 19.7776 30.0679C19.7796 30.069 19.7816 30.0699 19.7835 30.0707C19.7903 30.0738 19.7973 30.0763 19.8043 30.0783C19.8048 30.0783 19.8054 30.0786 19.806 30.0789C19.8135 30.0808 19.8214 30.0819 19.8292 30.0828C19.8312 30.0828 19.8334 30.0831 19.8354 30.0831C19.8374 30.0831 19.8396 30.0833 19.8416 30.0833C19.8466 30.0833 19.8517 30.0828 19.8564 30.0825C19.8576 30.0825 19.8584 30.0825 19.8595 30.0825C19.8674 30.0814 19.8749 30.0797 19.8828 30.0772C19.885 30.0766 19.887 30.0758 19.8892 30.0749C19.8968 30.0721 19.9041 30.069 19.9111 30.0651C19.9114 30.0651 19.9117 30.0651 19.912 30.0648L28.964 24.8299V26.4069L28.9635 26.4066ZM28.8334 24.5809L19.9812 29.7V27.8073L27.2381 23.5661L28.8334 24.5809V24.5809ZM28.7453 22.3607L19.9291 27.5131L17.0967 16.9194C17.1216 16.9138 17.1452 16.9014 17.164 16.8824C17.1979 16.8484 17.2114 16.8005 17.2024 16.7553L31.6587 8.36501L28.7453 22.3604V22.3607Z" fill="white"/>
</g>
<defs>
<clipPath id="clip0_6594_19284">
<rect width="24" height="29.6586" fill="white" transform="translate(8 5)"/>
</clipPath>
</defs>
</svg>
