<svg width="40" height="40" viewBox="0 0 40 40" fill="none" xmlns="http://www.w3.org/2000/svg">
<g clip-path="url(#clip0_6594_19051)">
<path d="M30.2867 16.3107C30.1719 16.1583 30.0151 16.077 29.833 16.0762H29.8298C29.3004 16.0762 28.6838 16.7921 28.4247 17.7082C28.2485 18.3315 28.2814 18.8868 28.5125 19.194C28.6273 19.3464 28.784 19.4277 28.9661 19.4285H28.9693C29.4988 19.4285 30.1153 18.7126 30.3744 17.7965C30.5507 17.1732 30.5177 16.6179 30.2867 16.3107Z" fill="white"/>
<path d="M30.2867 21.3068C30.1719 21.1544 30.0151 21.0731 29.833 21.0723H29.8298C29.3004 21.0723 28.6838 21.7882 28.4247 22.7043C28.2485 23.3276 28.2814 23.8829 28.5125 24.1901C28.6273 24.3424 28.784 24.4237 28.9661 24.4246H28.9693C29.4988 24.4246 30.1153 23.7087 30.3744 22.7926C30.5507 22.1693 30.5177 21.6139 30.2867 21.3068Z" fill="white"/>
<path d="M22.1148 5.21795C22.3422 5.21795 22.5266 5.16916 22.5266 5.10898C22.5266 5.04879 22.3422 5 22.1148 5C21.8875 5 21.7031 5.04879 21.7031 5.10898C21.7031 5.16916 21.8875 5.21795 22.1148 5.21795Z" fill="white"/>
<path d="M15.0406 8.64764C15.268 8.64764 15.4524 8.59885 15.4524 8.53866C15.4524 8.47848 15.268 8.42969 15.0406 8.42969C14.8132 8.42969 14.6289 8.47848 14.6289 8.53866C14.6289 8.59885 14.8132 8.64764 15.0406 8.64764Z" fill="white"/>
<path d="M31.9989 11.6892C31.9989 11.6869 31.9989 11.6846 31.9983 11.6823C31.9978 11.6747 31.9966 11.6674 31.9948 11.6604C31.9948 11.6595 31.9948 11.6587 31.9943 11.6578C31.9922 11.6499 31.9893 11.642 31.9858 11.6348C31.9849 11.6327 31.9841 11.631 31.9829 11.6289C31.9797 11.6225 31.9759 11.6164 31.9718 11.6106C31.9709 11.6094 31.9704 11.6082 31.9695 11.6071C31.9645 11.6004 31.959 11.5945 31.9529 11.5887C31.9514 11.5873 31.9497 11.5858 31.9479 11.5844C31.9418 11.5791 31.9351 11.5742 31.9281 11.5698C31.9278 11.5698 31.9275 11.5692 31.9269 11.5689L25.3295 7.69148C25.2843 7.66467 25.2281 7.66467 25.1826 7.69119L21.5566 9.79643L22.5698 5.20832C22.587 5.12965 22.5374 5.05214 22.4588 5.03466C22.3804 5.01747 22.3026 5.067 22.2851 5.14567L20.2821 14.2217L19.8436 14.6471L21.9165 5.20832C21.9337 5.12965 21.8842 5.05214 21.8055 5.03466C21.7271 5.01747 21.6493 5.067 21.6318 5.14567L20.4721 10.4267L20.1126 10.6353L18.093 11.8078L15.4909 8.52221C15.4411 8.45927 15.3493 8.44849 15.2864 8.49832C15.2235 8.54815 15.2127 8.63993 15.2628 8.70287L17.9447 12.089L19.6501 14.1695L19.5234 14.7467L14.8397 8.52542C14.7913 8.46102 14.7001 8.4482 14.6357 8.49657C14.5713 8.54494 14.5585 8.63643 14.6069 8.70054L17.2946 12.2714L8.07205 17.6265C8.06419 17.6311 8.05661 17.6367 8.04962 17.6425C8.04729 17.6445 8.04525 17.6469 8.04291 17.6492C8.03884 17.6533 8.03476 17.6573 8.03126 17.662C8.02864 17.6652 8.0266 17.6684 8.02456 17.6716C8.02281 17.6742 8.02048 17.6769 8.01902 17.6798C8.01786 17.6818 8.01727 17.6836 8.01611 17.6856C8.01494 17.6876 8.01407 17.69 8.0129 17.6923C8.0097 17.6993 8.00707 17.7063 8.00504 17.7136C8.00504 17.7145 8.00445 17.715 8.00445 17.7156C8.00241 17.7238 8.00096 17.7322 8.00037 17.7404C8.00037 17.7424 8.00037 17.7442 8.00037 17.7462C8.00037 17.7491 7.99979 17.752 8.00008 17.755V31.3523C8.00008 31.4042 8.02747 31.452 8.07234 31.4782L14.6506 35.3172C14.6535 35.3189 14.6567 35.3204 14.6599 35.3218C14.6625 35.323 14.6652 35.3247 14.6678 35.3256C14.671 35.3271 14.6745 35.3279 14.6777 35.3291C14.6803 35.33 14.6832 35.3311 14.6859 35.332C14.6896 35.3332 14.6937 35.3338 14.6975 35.3343C14.6998 35.3346 14.7022 35.3355 14.7045 35.3358C14.7109 35.3367 14.717 35.337 14.7234 35.337C14.7485 35.337 14.7736 35.3306 14.796 35.3177L31.9264 25.4795C31.9715 25.4536 31.9995 25.4052 31.9995 25.353V11.6951C31.9995 11.693 31.9992 11.6913 31.9992 11.6892H31.9989ZM18.2783 12.0374L20.2588 10.8877L20.3873 10.8131L19.7297 13.8079L18.2783 12.0374V12.0374ZM19.4811 15.1762C19.4832 15.1788 19.4852 15.1812 19.4872 15.1835C19.4884 15.185 19.4896 15.1864 19.491 15.1879C19.496 15.1931 19.5009 15.1978 19.5065 15.2022C19.5071 15.2027 19.5079 15.203 19.5085 15.2036C19.5138 15.2077 19.519 15.2112 19.5245 15.2144C19.5254 15.2147 19.526 15.2153 19.5266 15.2158C19.5275 15.2164 19.5283 15.2167 19.5292 15.217C19.5327 15.2188 19.5362 15.2205 19.5397 15.222C19.5417 15.2228 19.5438 15.2237 19.5458 15.2246C19.5493 15.2258 19.5525 15.2269 19.556 15.2281C19.5583 15.2287 19.5604 15.2295 19.5627 15.2301C19.5662 15.231 19.5697 15.2316 19.5732 15.2322C19.5755 15.2325 19.5776 15.233 19.5799 15.2333C19.5852 15.2339 19.5904 15.2342 19.5956 15.2342C19.5962 15.2342 19.5965 15.2342 19.5971 15.2342C19.6055 15.2342 19.6143 15.2333 19.6227 15.2319C19.6251 15.2313 19.6277 15.2307 19.63 15.2301C19.6359 15.2287 19.642 15.2272 19.6475 15.2249C19.6504 15.2237 19.6533 15.2226 19.656 15.2214C19.6609 15.2191 19.6659 15.2164 19.6708 15.2138C19.6737 15.2121 19.6766 15.2103 19.6793 15.2083C19.681 15.2071 19.6828 15.2062 19.6842 15.2051C19.6866 15.2033 19.6886 15.201 19.6909 15.1989C19.6933 15.1969 19.6959 15.1955 19.6982 15.1931L20.5158 14.4003C20.5362 14.3805 20.5505 14.3551 20.5566 14.3271L21.4713 10.1834L25.2552 7.98636L31.563 11.6936L14.7234 21.3658L8.43657 17.7517L17.4715 12.506L19.4814 15.1762H19.4811ZM14.8691 21.6181L26.5186 14.9274V28.2494L14.8691 34.9398V21.6181V21.6181ZM31.7081 25.2688L26.81 28.0818V14.7598L31.7081 11.9465V25.2685V25.2688Z" fill="white"/>
</g>
<defs>
<clipPath id="clip0_6594_19051">
<rect width="24" height="30.337" fill="white" transform="translate(8 5)"/>
</clipPath>
</defs>
</svg>
