<svg xmlns="http://www.w3.org/2000/svg" viewBox="0 0 56 62.33"><defs><style>.cls-1{fill:#1d9099;}</style></defs><g id="Layer_2" data-name="Layer 2"><g id="Layer_1-2" data-name="Layer 1"><path class="cls-1" d="M0,31.16V9.36c0-.71,0-1.42,0-2.13C.42.67,4.6-1.82,10.36,1.41,22,8,33.53,14.71,45.11,21.39c2.45,1.42,5,2.77,7.3,4.34,4.74,3.16,4.83,7.87,0,10.85C44.78,41.26,37,45.63,29.24,50.11q-8.73,5.05-17.48,10.08a20.13,20.13,0,0,1-3.32,1.65c-4.07,1.4-7-.2-8-4.4a23.29,23.29,0,0,1-.44-5C0,45.34,0,38.25,0,31.16Z"/></g></g></svg>