<svg width="20" height="20" viewBox="0 0 20 20" fill="none" xmlns="http://www.w3.org/2000/svg">
<g clip-path="url(#clip0_6594_19212)">
<path d="M5.16797 0.75L10.0013 7.75L14.8346 0.75" stroke="#666666" stroke-width="1.5" stroke-miterlimit="10" stroke-linecap="round" stroke-linejoin="round"/>
<path d="M18.2487 7.75H1.7487C0.915365 7.75 0.332031 8.33333 0.332031 9.16667V17.9167C0.332031 18.6667 0.915365 19.3333 1.7487 19.3333H18.332C19.082 19.3333 19.7487 18.75 19.7487 17.9167V13.5833V9.16667C19.6654 8.33333 19.082 7.75 18.2487 7.75ZM13.9154 13.5V16.6667C13.9154 17.5 13.4154 18.1667 12.7487 18.1667H2.7487C2.08203 18.1667 1.58203 17.5 1.58203 16.6667V10.3333C1.58203 9.5 2.08203 8.83333 2.7487 8.83333H12.7487C13.4154 8.83333 13.9154 9.5 13.9154 10.3333V13.5ZM17.832 16.75C16.4154 17.5833 14.9987 16.1667 15.832 14.75C15.9154 14.5833 15.9987 14.5 16.1654 14.4167C17.582 13.5833 18.9987 15 18.1654 16.4167C18.082 16.5 17.9987 16.6667 17.832 16.75ZM17.832 12.25C16.4154 13.0833 14.9987 11.6667 15.832 10.25C15.9154 10.0833 15.9987 10 16.1654 9.91667C17.582 9.08333 18.9987 10.5 18.1654 11.9167C18.082 12.0833 17.9987 12.1667 17.832 12.25Z" fill="#666666"/>
</g>
<defs>
<clipPath id="clip0_6594_19212">
<rect width="20" height="20" fill="white"/>
</clipPath>
</defs>
</svg>
