<svg xmlns="http://www.w3.org/2000/svg" viewBox="0 0 63.09 63.08"><defs><style>.cls-1{fill:#eaad32;}</style></defs><g id="Layer_2" data-name="Layer 2"><g id="Layer_1-2" data-name="Layer 1"><path class="cls-1" d="M31.54,0A31.54,31.54,0,1,1,0,31.49,31.58,31.58,0,0,1,31.54,0ZM29,24.25h0c0,2.72,0,5.45,0,8.17A3.37,3.37,0,0,0,30,35.05c1.38,1.31,2.7,2.68,4.05,4l8.63,8.63a2.6,2.6,0,0,0,2.87.74,2.44,2.44,0,0,0,1.7-2,2.82,2.82,0,0,0-1-2.63c-3.79-3.77-7.56-7.57-11.36-11.33a2.33,2.33,0,0,1-.76-1.81q0-7.19,0-14.37a4.41,4.41,0,0,0-.32-1.81,2.53,2.53,0,0,0-2.93-1.27A2.49,2.49,0,0,0,29,15.68C28.93,18.53,29,21.39,29,24.25Z"/></g></g></svg>