<svg width="24" height="24" viewBox="0 0 24 24" fill="none" xmlns="http://www.w3.org/2000/svg">
<path d="M17.76 10.8C17.88 10.44 18 10.08 18 9.59999C18 6.95999 15.84 4.79999 13.2 4.79999C11.4 4.79999 9.72001 5.87999 9.00001 7.43999C8.64001 7.31999 8.16001 7.19999 7.80001 7.19999C6.12001 7.19999 4.80001 8.51999 4.80001 10.2C4.80001 10.44 4.80001 10.68 4.92001 10.8C2.76001 11.16 1.20001 12.84 1.20001 15C1.20001 17.28 3.12001 19.2 5.40001 19.2H9.60001V15.6H6.00001L11.4 10.2L16.8 15.6H13.2V19.2H17.4C19.68 19.2 21.6 17.28 21.6 15C21.6 12.84 19.92 11.04 17.76 10.8Z" fill="currentColor"/>
</svg>
