<svg width="11" height="9" viewBox="0 0 11 9" fill="none" xmlns="http://www.w3.org/2000/svg">
<path d="M5.99903 0.833985C6.21177 0.835057 6.42161 0.883474 6.61331 0.975723C6.80501 1.06797 6.97378 1.20174 7.10736 1.36732L10.6157 5.61732C10.8207 5.87318 10.9497 6.18148 10.988 6.50709C11.0263 6.83271 10.9724 7.16253 10.8324 7.45898C10.7188 7.71663 10.5335 7.93614 10.2985 8.0913C10.0636 8.24646 9.78891 8.33071 9.50736 8.33398L2.49069 8.33398C2.20915 8.33071 1.9345 8.24646 1.69954 8.0913C1.46459 7.93614 1.27926 7.71663 1.1657 7.45898C1.02567 7.16253 0.971734 6.83271 1.01004 6.50709C1.04835 6.18148 1.17736 5.87318 1.38236 5.61732L4.8907 1.36732C5.02428 1.20174 5.19304 1.06797 5.38475 0.975723C5.57645 0.883474 5.78629 0.835057 5.99903 0.833985Z" fill="currentColor"/>
</svg>
