<svg width="24" height="24" viewBox="0 0 24 24" fill="none" xmlns="http://www.w3.org/2000/svg">
<path d="M15.7501 12C14.7863 12 13.8545 11.5697 13.1251 10.7888C12.4159 10.027 11.9827 9.01125 11.9063 7.92938C11.8248 6.77531 12.1768 5.71406 12.8973 4.94063C13.6177 4.16719 14.6251 3.75 15.7501 3.75C16.8671 3.75 17.8773 4.17469 18.5954 4.94625C19.3206 5.72531 19.6735 6.78469 19.592 7.92891C19.5137 9.01219 19.081 10.0275 18.3732 10.7883C17.6457 11.5697 16.7143 12 15.7501 12Z" fill="currentColor"/>
<path d="M21.9295 20.25H9.5709C9.3722 20.2511 9.17591 20.2065 8.99713 20.1198C8.81835 20.0331 8.66184 19.9065 8.53965 19.7498C8.41004 19.58 8.32054 19.383 8.27784 19.1736C8.23514 18.9643 8.24036 18.748 8.29309 18.5409C8.68778 16.9561 9.66559 15.6417 11.1206 14.7403C12.412 13.9406 14.0559 13.5 15.75 13.5C17.4773 13.5 19.0781 13.9219 20.377 14.7211C21.8353 15.6178 22.8145 16.9397 23.2073 18.5438C23.2594 18.751 23.264 18.9673 23.2209 19.1765C23.1777 19.3857 23.0878 19.5825 22.9579 19.7522C22.8359 19.9082 22.6797 20.0341 22.5015 20.1204C22.3232 20.2067 22.1275 20.251 21.9295 20.25Z" fill="currentColor"/>
<path d="M6.89068 12.1875C5.24115 12.1875 3.79083 10.6538 3.6563 8.76891C3.58974 7.80328 3.89068 6.91031 4.50005 6.25547C5.10287 5.60719 5.95318 5.25 6.89068 5.25C7.82818 5.25 8.67193 5.60906 9.27802 6.26109C9.89208 6.92109 10.1921 7.81219 10.1218 8.76984C9.98724 10.6542 8.5374 12.1875 6.89068 12.1875Z" fill="currentColor"/>
<path d="M9.96838 13.6613C9.14385 13.2582 8.0737 13.0566 6.89104 13.0566C5.5101 13.0566 4.16901 13.4166 3.11432 14.0701C1.91854 14.8121 1.11417 15.8926 0.789322 17.1971C0.741783 17.3847 0.737287 17.5807 0.776169 17.7703C0.815051 17.9599 0.896305 18.1383 1.01385 18.2921C1.12539 18.4353 1.26828 18.551 1.43154 18.6303C1.5948 18.7096 1.77407 18.7504 1.95557 18.7496H7.1587C7.24652 18.7496 7.33155 18.7188 7.39896 18.6625C7.46638 18.6062 7.5119 18.528 7.5276 18.4416C7.53276 18.4121 7.53932 18.3826 7.54682 18.3535C7.94432 16.757 8.87573 15.4079 10.252 14.4245C10.3026 14.388 10.3433 14.3394 10.3704 14.2832C10.3975 14.227 10.4102 14.165 10.4073 14.1026C10.4044 14.0403 10.3859 13.9797 10.3536 13.9263C10.3214 13.8729 10.2763 13.8284 10.2224 13.7968C10.1489 13.7537 10.0645 13.7082 9.96838 13.6613Z" fill="currentColor"/>
</svg>
