<svg width="24" height="24" viewBox="0 0 24 24" fill="none" xmlns="http://www.w3.org/2000/svg">
<path d="M15.7498 12C14.7861 12 13.8542 11.5697 13.1248 10.7888C12.4156 10.027 11.9825 9.01125 11.9061 7.92938C11.8245 6.77531 12.1766 5.71406 12.897 4.94063C13.6175 4.16719 14.6248 3.75 15.7498 3.75C16.8669 3.75 17.877 4.17469 18.5952 4.94625C19.3203 5.72531 19.6733 6.78469 19.5917 7.92891C19.5134 9.01219 19.0808 10.0275 18.373 10.7883C17.6455 11.5697 16.7141 12 15.7498 12Z" fill="currentColor"/>
<path d="M21.9302 20.25H9.57163C9.37294 20.2511 9.17664 20.2065 8.99786 20.1198C8.81908 20.0331 8.66257 19.9065 8.54038 19.7498C8.41078 19.58 8.32127 19.383 8.27857 19.1736C8.23588 18.9643 8.24109 18.748 8.29382 18.5409C8.68851 16.9561 9.66632 15.6417 11.1213 14.7403C12.4127 13.9406 14.0566 13.5 15.7507 13.5C17.478 13.5 19.0788 13.9219 20.3777 14.7211C21.836 15.6178 22.8152 16.9397 23.208 18.5438C23.2601 18.751 23.2648 18.9673 23.2216 19.1765C23.1784 19.3857 23.0885 19.5825 22.9587 19.7522C22.8366 19.9082 22.6805 20.0341 22.5022 20.1204C22.3239 20.2067 22.1283 20.251 21.9302 20.25Z" fill="currentColor"/>
<path d="M6.89092 12.1875C5.24139 12.1875 3.79108 10.6538 3.65655 8.76891C3.58998 7.80328 3.89092 6.91031 4.5003 6.25547C5.10311 5.60719 5.95342 5.25 6.89092 5.25C7.82842 5.25 8.67217 5.60906 9.27826 6.26109C9.89232 6.92109 10.1923 7.81219 10.122 8.76984C9.98748 10.6542 8.53764 12.1875 6.89092 12.1875Z" fill="currentColor"/>
<path d="M9.96839 13.6623C9.14386 13.2592 8.0737 13.0576 6.89104 13.0576C5.5101 13.0576 4.16901 13.4176 3.11432 14.0711C1.91854 14.8131 1.11417 15.8936 0.789322 17.1981C0.741783 17.3857 0.737287 17.5817 0.776169 17.7713C0.815051 17.9609 0.896305 18.1393 1.01385 18.2931C1.12539 18.4363 1.26828 18.552 1.43154 18.6313C1.5948 18.7106 1.77407 18.7514 1.95557 18.7506H7.1587C7.24652 18.7506 7.33155 18.7197 7.39897 18.6635C7.46638 18.6072 7.51191 18.529 7.52761 18.4426C7.53276 18.4131 7.53932 18.3836 7.54682 18.3545C7.94432 16.7579 8.87573 15.4089 10.252 14.4254C10.3026 14.3889 10.3433 14.3404 10.3704 14.2842C10.3976 14.228 10.4102 14.1659 10.4073 14.1036C10.4044 14.0413 10.3859 13.9807 10.3536 13.9273C10.3214 13.8739 10.2763 13.8293 10.2225 13.7978C10.1489 13.7546 10.0645 13.7092 9.96839 13.6623Z" fill="currentColor"/>
</svg>
