<svg width="24" height="24" viewBox="0 0 24 24" fill="none" xmlns="http://www.w3.org/2000/svg">
<path d="M14 20.725V19.175C15.6167 18.7083 16.9375 17.8125 17.9625 16.4875C18.9875 15.1625 19.5 13.6583 19.5 11.975C19.5 10.2917 18.9917 8.78334 17.975 7.45001C16.9583 6.11667 15.6333 5.22501 14 4.77501V3.22501C16.0667 3.69167 17.75 4.73751 19.05 6.36251C20.35 7.98751 21 9.85834 21 11.975C21 14.0917 20.35 15.9625 19.05 17.5875C17.75 19.2125 16.0667 20.2583 14 20.725ZM3 15V9.00001H7L12 4.00001V20L7 15H3ZM13.5 16.2V7.77501C14.4167 8.05834 15.1458 8.59167 15.6875 9.37501C16.2292 10.1583 16.5 11.0333 16.5 12C16.5 12.95 16.225 13.8167 15.675 14.6C15.125 15.3833 14.4 15.9167 13.5 16.2Z" fill="currentColor"/>
</svg>
