<svg width="24" height="24" viewBox="0 0 24 24" fill="none" xmlns="http://www.w3.org/2000/svg" stroke="currentColor">
<path d="M18.27 7.17999H2.75V17.2C2.75 18.85 4.09 20.18 5.73 20.18H18.26C19.91 20.18 21.24 18.84 21.24 17.2V10.17C21.25 8.51999 19.91 7.17999 18.27 7.17999Z" stroke="currentColor" stroke-width="1.5" stroke-linecap="round" stroke-linejoin="round"/>
<path d="M8.98001 3.82001H14.11C15.81 3.82001 17.19 5.33001 17.19 7.18001" stroke-width="1.5" stroke-linecap="round" stroke-linejoin="round"/>
<path d="M2.75 10.86V5.89001" stroke-width="1.5" stroke-linecap="round" stroke-linejoin="round"/>
<path d="M11.48 7.18001H4.29C3.44 7.18001 2.75 6.43001 2.75 5.50001C2.75 4.57001 3.44 3.82001 4.29 3.82001H11.48" stroke="currentColor" stroke-width="1.5" stroke-linecap="round" stroke-linejoin="round"/>
<path d="M17.71 14.19C17.9917 14.19 18.22 13.9617 18.22 13.68C18.22 13.3983 17.9917 13.17 17.71 13.17C17.4283 13.17 17.2 13.3983 17.2 13.68C17.2 13.9617 17.4283 14.19 17.71 14.19Z" fill="currentColor" stroke="currentColor" stroke-width="1.5" stroke-linecap="round" stroke-linejoin="round"/>
</svg>
